STARTFONT 2.1
COMMENT "$MirOS: X11/xc/fonts/bdf/misc/9x18.bdf,v 1.6.2.1.2.1 2012/08/01 03:13:35 tg Exp $"
FONT -Misc-Fixed-Medium-R-Normal--18-120-100-100-C-90-ISO10646-1
SIZE 12 100 100
FONTBOUNDINGBOX 9 18 0 -4
STARTPROPERTIES 21
ADD_STYLE_NAME ""
AVERAGE_WIDTH 90
CAP_HEIGHT 10
CHARSET_ENCODING "1"
CHARSET_REGISTRY "ISO10646"
COPYRIGHT "Fonts are not under Copyright protection in Germany."
DEFAULT_CHAR 0
FAMILY_NAME "Fixed"
FONTNAME_REGISTRY ""
FONT_ASCENT 14
FONT_DESCENT 4
FOUNDRY "Misc"
PIXEL_SIZE 18
POINT_SIZE 120
RESOLUTION_X 100
RESOLUTION_Y 100
SETWIDTH_NAME "Normal"
SLANT "R"
SPACING "C"
WEIGHT_NAME "Medium"
X_HEIGHT 7
ENDPROPERTIES
CHARS 7563
STARTCHAR char0
ENCODING 0
SWIDTH 540 0
DWIDTH 9 0
BBX 9 18 0 -4
BITMAP
0000
0000
0000
0000
6D00
0100
4000
4100
0100
4000
4100
0100
4000
5B00
0000
0000
0000
0000
ENDCHAR
STARTCHAR space
ENCODING 32
SWIDTH 540 0
DWIDTH 9 0
BBX 9 18 0 -4
BITMAP
0000
0000
0000
0000
0000
0000
0000
0000
0000
0000
0000
0000
0000
0000
0000
0000
0000
0000
ENDCHAR
STARTCHAR exclam
ENCODING 33
SWIDTH 540 0
DWIDTH 9 0
BBX 9 18 0 -4
BITMAP
0000
0000
0000
0800
0800
0800
0800
0800
0800
0800
0000
0000
0800
0800
0000
0000
0000
0000
ENDCHAR
STARTCHAR quotedbl
ENCODING 34
SWIDTH 540 0
DWIDTH 9 0
BBX 9 18 0 -4
BITMAP
0000
0000
0000
1200
1200
1200
1200
0000
0000
0000
0000
0000
0000
0000
0000
0000
0000
0000
ENDCHAR
STARTCHAR numbersign
ENCODING 35
SWIDTH 540 0
DWIDTH 9 0
BBX 9 18 0 -4
BITMAP
0000
0000
0000
0000
2400
2400
2400
FF00
2400
2400
FF00
2400
2400
2400
0000
0000
0000
0000
ENDCHAR
STARTCHAR dollar
ENCODING 36
SWIDTH 540 0
DWIDTH 9 0
BBX 9 18 0 -4
BITMAP
0000
0000
0000
0000
0800
3E00
4900
4800
2800
1C00
0A00
0900
4900
3E00
0800
0000
0000
0000
ENDCHAR
STARTCHAR percent
ENCODING 37
SWIDTH 540 0
DWIDTH 9 0
BBX 9 18 0 -4
BITMAP
0000
0000
0000
0000
2100
5200
5200
2400
0800
0800
1200
2500
2500
4200
0000
0000
0000
0000
ENDCHAR
STARTCHAR ampersand
ENCODING 38
SWIDTH 540 0
DWIDTH 9 0
BBX 9 18 0 -4
BITMAP
0000
0000
0000
0000
3000
4800
4800
4800
3000
3100
4A00
4400
4A00
3100
0000
0000
0000
0000
ENDCHAR
STARTCHAR quotesingle
ENCODING 39
SWIDTH 540 0
DWIDTH 9 0
BBX 9 18 0 -4
BITMAP
0000
0000
0000
0800
0800
0800
0800
0000
0000
0000
0000
0000
0000
0000
0000
0000
0000
0000
ENDCHAR
STARTCHAR parenleft
ENCODING 40
SWIDTH 540 0
DWIDTH 9 0
BBX 9 18 0 -4
BITMAP
0000
0000
0000
0400
0800
0800
1000
1000
1000
1000
1000
1000
0800
0800
0400
0000
0000
0000
ENDCHAR
STARTCHAR parenright
ENCODING 41
SWIDTH 540 0
DWIDTH 9 0
BBX 9 18 0 -4
BITMAP
0000
0000
0000
1000
0800
0800
0400
0400
0400
0400
0400
0400
0800
0800
1000
0000
0000
0000
ENDCHAR
STARTCHAR asterisk
ENCODING 42
SWIDTH 540 0
DWIDTH 9 0
BBX 9 18 0 -4
BITMAP
0000
0000
0000
0000
0800
4900
2A00
1C00
2A00
4900
0800
0000
0000
0000
0000
0000
0000
0000
ENDCHAR
STARTCHAR plus
ENCODING 43
SWIDTH 540 0
DWIDTH 9 0
BBX 9 18 0 -4
BITMAP
0000
0000
0000
0000
0000
0000
0800
0800
0800
7F00
0800
0800
0800
0000
0000
0000
0000
0000
ENDCHAR
STARTCHAR comma
ENCODING 44
SWIDTH 540 0
DWIDTH 9 0
BBX 9 18 0 -4
BITMAP
0000
0000
0000
0000
0000
0000
0000
0000
0000
0000
0000
0000
0C00
0C00
0400
0800
0000
0000
ENDCHAR
STARTCHAR hyphen
ENCODING 45
SWIDTH 540 0
DWIDTH 9 0
BBX 9 18 0 -4
BITMAP
0000
0000
0000
0000
0000
0000
0000
0000
0000
7F00
0000
0000
0000
0000
0000
0000
0000
0000
ENDCHAR
STARTCHAR period
ENCODING 46
SWIDTH 540 0
DWIDTH 9 0
BBX 9 18 0 -4
BITMAP
0000
0000
0000
0000
0000
0000
0000
0000
0000
0000
0000
0000
0C00
0C00
0000
0000
0000
0000
ENDCHAR
STARTCHAR slash
ENCODING 47
SWIDTH 540 0
DWIDTH 9 0
BBX 9 18 0 -4
BITMAP
0000
0000
0000
0000
0100
0200
0200
0400
0800
0800
1000
2000
2000
4000
0000
0000
0000
0000
ENDCHAR
STARTCHAR zero
ENCODING 48
SWIDTH 540 0
DWIDTH 9 0
BBX 9 18 0 -4
BITMAP
0000
0000
0000
0000
1C00
2200
4500
4500
4900
4900
5100
5100
2200
1C00
0000
0000
0000
0000
ENDCHAR
STARTCHAR one
ENCODING 49
SWIDTH 540 0
DWIDTH 9 0
BBX 9 18 0 -4
BITMAP
0000
0000
0000
0000
0800
1800
2800
4800
0800
0800
0800
0800
0800
7F00
0000
0000
0000
0000
ENDCHAR
STARTCHAR two
ENCODING 50
SWIDTH 540 0
DWIDTH 9 0
BBX 9 18 0 -4
BITMAP
0000
0000
0000
0000
1C00
2200
4100
0100
0200
0400
0800
1000
2000
7F00
0000
0000
0000
0000
ENDCHAR
STARTCHAR three
ENCODING 51
SWIDTH 540 0
DWIDTH 9 0
BBX 9 18 0 -4
BITMAP
0000
0000
0000
0000
7F00
0100
0200
0400
0C00
0200
0100
0100
4200
3C00
0000
0000
0000
0000
ENDCHAR
STARTCHAR four
ENCODING 52
SWIDTH 540 0
DWIDTH 9 0
BBX 9 18 0 -4
BITMAP
0000
0000
0000
0000
0200
0600
0A00
1200
2200
4200
7F00
0200
0200
0200
0000
0000
0000
0000
ENDCHAR
STARTCHAR five
ENCODING 53
SWIDTH 540 0
DWIDTH 9 0
BBX 9 18 0 -4
BITMAP
0000
0000
0000
0000
7F00
4000
4000
4000
7C00
0200
0100
0100
4200
3C00
0000
0000
0000
0000
ENDCHAR
STARTCHAR six
ENCODING 54
SWIDTH 540 0
DWIDTH 9 0
BBX 9 18 0 -4
BITMAP
0000
0000
0000
0000
1E00
2000
4000
4000
5C00
6200
4100
4100
2200
1C00
0000
0000
0000
0000
ENDCHAR
STARTCHAR seven
ENCODING 55
SWIDTH 540 0
DWIDTH 9 0
BBX 9 18 0 -4
BITMAP
0000
0000
0000
0000
7F00
0100
0200
0200
0400
0400
0800
0800
0800
0800
0000
0000
0000
0000
ENDCHAR
STARTCHAR eight
ENCODING 56
SWIDTH 540 0
DWIDTH 9 0
BBX 9 18 0 -4
BITMAP
0000
0000
0000
0000
1C00
2200
4100
2200
1C00
2200
4100
4100
2200
1C00
0000
0000
0000
0000
ENDCHAR
STARTCHAR nine
ENCODING 57
SWIDTH 540 0
DWIDTH 9 0
BBX 9 18 0 -4
BITMAP
0000
0000
0000
0000
1C00
2200
4100
4100
2300
1D00
0100
0100
0200
3C00
0000
0000
0000
0000
ENDCHAR
STARTCHAR colon
ENCODING 58
SWIDTH 540 0
DWIDTH 9 0
BBX 9 18 0 -4
BITMAP
0000
0000
0000
0000
0000
0000
0000
0C00
0C00
0000
0000
0000
0C00
0C00
0000
0000
0000
0000
ENDCHAR
STARTCHAR semicolon
ENCODING 59
SWIDTH 540 0
DWIDTH 9 0
BBX 9 18 0 -4
BITMAP
0000
0000
0000
0000
0000
0000
0000
0C00
0C00
0000
0000
0000
0C00
0C00
0400
0800
0000
0000
ENDCHAR
STARTCHAR less
ENCODING 60
SWIDTH 540 0
DWIDTH 9 0
BBX 9 18 0 -4
BITMAP
0000
0000
0000
0000
0000
0200
0400
0800
1000
2000
1000
0800
0400
0200
0000
0000
0000
0000
ENDCHAR
STARTCHAR equal
ENCODING 61
SWIDTH 540 0
DWIDTH 9 0
BBX 9 18 0 -4
BITMAP
0000
0000
0000
0000
0000
0000
0000
0000
7F00
0000
0000
7F00
0000
0000
0000
0000
0000
0000
ENDCHAR
STARTCHAR greater
ENCODING 62
SWIDTH 540 0
DWIDTH 9 0
BBX 9 18 0 -4
BITMAP
0000
0000
0000
0000
0000
2000
1000
0800
0400
0200
0400
0800
1000
2000
0000
0000
0000
0000
ENDCHAR
STARTCHAR question
ENCODING 63
SWIDTH 540 0
DWIDTH 9 0
BBX 9 18 0 -4
BITMAP
0000
0000
0000
0000
1C00
2200
4100
0100
0200
0400
0800
0800
0000
0800
0000
0000
0000
0000
ENDCHAR
STARTCHAR at
ENCODING 64
SWIDTH 540 0
DWIDTH 9 0
BBX 9 18 0 -4
BITMAP
0000
0000
0000
0000
1C00
2200
4D00
5500
5500
5500
5500
4E00
2000
1E00
0000
0000
0000
0000
ENDCHAR
STARTCHAR A
ENCODING 65
SWIDTH 540 0
DWIDTH 9 0
BBX 9 18 0 -4
BITMAP
0000
0000
0000
0000
0800
1400
1400
1400
2200
3E00
2200
4100
4100
4100
0000
0000
0000
0000
ENDCHAR
STARTCHAR B
ENCODING 66
SWIDTH 540 0
DWIDTH 9 0
BBX 9 18 0 -4
BITMAP
0000
0000
0000
0000
7C00
4200
4100
4200
7C00
4200
4100
4100
4200
7C00
0000
0000
0000
0000
ENDCHAR
STARTCHAR C
ENCODING 67
SWIDTH 540 0
DWIDTH 9 0
BBX 9 18 0 -4
BITMAP
0000
0000
0000
0000
1E00
2100
4000
4000
4000
4000
4000
4000
2100
1E00
0000
0000
0000
0000
ENDCHAR
STARTCHAR D
ENCODING 68
SWIDTH 540 0
DWIDTH 9 0
BBX 9 18 0 -4
BITMAP
0000
0000
0000
0000
7C00
4200
4100
4100
4100
4100
4100
4100
4200
7C00
0000
0000
0000
0000
ENDCHAR
STARTCHAR E
ENCODING 69
SWIDTH 540 0
DWIDTH 9 0
BBX 9 18 0 -4
BITMAP
0000
0000
0000
0000
7F00
4000
4000
4000
7C00
4000
4000
4000
4000
7F00
0000
0000
0000
0000
ENDCHAR
STARTCHAR F
ENCODING 70
SWIDTH 540 0
DWIDTH 9 0
BBX 9 18 0 -4
BITMAP
0000
0000
0000
0000
7F00
4000
4000
4000
7C00
4000
4000
4000
4000
4000
0000
0000
0000
0000
ENDCHAR
STARTCHAR G
ENCODING 71
SWIDTH 540 0
DWIDTH 9 0
BBX 9 18 0 -4
BITMAP
0000
0000
0000
0000
1C00
2200
4100
4000
4000
4700
4100
4100
2200
1C00
0000
0000
0000
0000
ENDCHAR
STARTCHAR H
ENCODING 72
SWIDTH 540 0
DWIDTH 9 0
BBX 9 18 0 -4
BITMAP
0000
0000
0000
0000
4100
4100
4100
4100
7F00
4100
4100
4100
4100
4100
0000
0000
0000
0000
ENDCHAR
STARTCHAR I
ENCODING 73
SWIDTH 540 0
DWIDTH 9 0
BBX 9 18 0 -4
BITMAP
0000
0000
0000
0000
3E00
0800
0800
0800
0800
0800
0800
0800
0800
3E00
0000
0000
0000
0000
ENDCHAR
STARTCHAR J
ENCODING 74
SWIDTH 540 0
DWIDTH 9 0
BBX 9 18 0 -4
BITMAP
0000
0000
0000
0000
1F00
0400
0400
0400
0400
0400
0400
4400
4400
3800
0000
0000
0000
0000
ENDCHAR
STARTCHAR K
ENCODING 75
SWIDTH 540 0
DWIDTH 9 0
BBX 9 18 0 -4
BITMAP
0000
0000
0000
0000
4100
4200
4400
4800
5000
6800
4400
4200
4100
4100
0000
0000
0000
0000
ENDCHAR
STARTCHAR L
ENCODING 76
SWIDTH 540 0
DWIDTH 9 0
BBX 9 18 0 -4
BITMAP
0000
0000
0000
0000
4000
4000
4000
4000
4000
4000
4000
4000
4000
7F00
0000
0000
0000
0000
ENDCHAR
STARTCHAR M
ENCODING 77
SWIDTH 540 0
DWIDTH 9 0
BBX 9 18 0 -4
BITMAP
0000
0000
0000
0000
4100
4100
6300
5500
4900
4100
4100
4100
4100
4100
0000
0000
0000
0000
ENDCHAR
STARTCHAR N
ENCODING 78
SWIDTH 540 0
DWIDTH 9 0
BBX 9 18 0 -4
BITMAP
0000
0000
0000
0000
4100
4100
6100
5100
4900
4500
4300
4100
4100
4100
0000
0000
0000
0000
ENDCHAR
STARTCHAR O
ENCODING 79
SWIDTH 540 0
DWIDTH 9 0
BBX 9 18 0 -4
BITMAP
0000
0000
0000
0000
3E00
4100
4100
4100
4100
4100
4100
4100
4100
3E00
0000
0000
0000
0000
ENDCHAR
STARTCHAR P
ENCODING 80
SWIDTH 540 0
DWIDTH 9 0
BBX 9 18 0 -4
BITMAP
0000
0000
0000
0000
7C00
4200
4100
4100
4200
7C00
4000
4000
4000
4000
0000
0000
0000
0000
ENDCHAR
STARTCHAR Q
ENCODING 81
SWIDTH 540 0
DWIDTH 9 0
BBX 9 18 0 -4
BITMAP
0000
0000
0000
0000
1C00
2200
4100
4100
4100
4100
4100
4500
2200
1D00
0080
0000
0000
0000
ENDCHAR
STARTCHAR R
ENCODING 82
SWIDTH 540 0
DWIDTH 9 0
BBX 9 18 0 -4
BITMAP
0000
0000
0000
0000
7C00
4200
4100
4100
4200
7C00
4800
4400
4200
4100
0000
0000
0000
0000
ENDCHAR
STARTCHAR S
ENCODING 83
SWIDTH 540 0
DWIDTH 9 0
BBX 9 18 0 -4
BITMAP
0000
0000
0000
0000
3E00
4100
4000
4000
3E00
0100
0100
0100
4100
3E00
0000
0000
0000
0000
ENDCHAR
STARTCHAR T
ENCODING 84
SWIDTH 540 0
DWIDTH 9 0
BBX 9 18 0 -4
BITMAP
0000
0000
0000
0000
7F00
0800
0800
0800
0800
0800
0800
0800
0800
0800
0000
0000
0000
0000
ENDCHAR
STARTCHAR U
ENCODING 85
SWIDTH 540 0
DWIDTH 9 0
BBX 9 18 0 -4
BITMAP
0000
0000
0000
0000
4100
4100
4100
4100
4100
4100
4100
4100
2200
1C00
0000
0000
0000
0000
ENDCHAR
STARTCHAR V
ENCODING 86
SWIDTH 540 0
DWIDTH 9 0
BBX 9 18 0 -4
BITMAP
0000
0000
0000
0000
4100
4100
4100
2200
2200
2200
1400
1400
1400
0800
0000
0000
0000
0000
ENDCHAR
STARTCHAR W
ENCODING 87
SWIDTH 540 0
DWIDTH 9 0
BBX 9 18 0 -4
BITMAP
0000
0000
0000
0000
4100
4100
4100
4100
4900
4900
4900
4900
5500
2200
0000
0000
0000
0000
ENDCHAR
STARTCHAR X
ENCODING 88
SWIDTH 540 0
DWIDTH 9 0
BBX 9 18 0 -4
BITMAP
0000
0000
0000
0000
4100
4100
2200
1400
0800
0800
1400
2200
4100
4100
0000
0000
0000
0000
ENDCHAR
STARTCHAR Y
ENCODING 89
SWIDTH 540 0
DWIDTH 9 0
BBX 9 18 0 -4
BITMAP
0000
0000
0000
0000
4100
4100
2200
1400
0800
0800
0800
0800
0800
0800
0000
0000
0000
0000
ENDCHAR
STARTCHAR Z
ENCODING 90
SWIDTH 540 0
DWIDTH 9 0
BBX 9 18 0 -4
BITMAP
0000
0000
0000
0000
7F00
0100
0200
0400
0800
1000
2000
4000
4000
7F00
0000
0000
0000
0000
ENDCHAR
STARTCHAR bracketleft
ENCODING 91
SWIDTH 540 0
DWIDTH 9 0
BBX 9 18 0 -4
BITMAP
0000
0000
0000
1E00
1000
1000
1000
1000
1000
1000
1000
1000
1000
1000
1E00
0000
0000
0000
ENDCHAR
STARTCHAR backslash
ENCODING 92
SWIDTH 540 0
DWIDTH 9 0
BBX 9 18 0 -4
BITMAP
0000
0000
0000
0000
4000
2000
2000
1000
0800
0800
0400
0200
0200
0100
0000
0000
0000
0000
ENDCHAR
STARTCHAR bracketright
ENCODING 93
SWIDTH 540 0
DWIDTH 9 0
BBX 9 18 0 -4
BITMAP
0000
0000
0000
3C00
0400
0400
0400
0400
0400
0400
0400
0400
0400
0400
3C00
0000
0000
0000
ENDCHAR
STARTCHAR asciicircum
ENCODING 94
SWIDTH 540 0
DWIDTH 9 0
BBX 9 18 0 -4
BITMAP
0000
0000
0000
0000
0800
1400
2200
4100
0000
0000
0000
0000
0000
0000
0000
0000
0000
0000
ENDCHAR
STARTCHAR underscore
ENCODING 95
SWIDTH 540 0
DWIDTH 9 0
BBX 9 18 0 -4
BITMAP
0000
0000
0000
0000
0000
0000
0000
0000
0000
0000
0000
0000
0000
0000
FF00
0000
0000
0000
ENDCHAR
STARTCHAR grave
ENCODING 96
SWIDTH 540 0
DWIDTH 9 0
BBX 9 18 0 -4
BITMAP
0000
1000
0800
0400
0000
0000
0000
0000
0000
0000
0000
0000
0000
0000
0000
0000
0000
0000
ENDCHAR
STARTCHAR a
ENCODING 97
SWIDTH 540 0
DWIDTH 9 0
BBX 9 18 0 -4
BITMAP
0000
0000
0000
0000
0000
0000
0000
3E00
0100
0100
3F00
4100
4300
3D00
0000
0000
0000
0000
ENDCHAR
STARTCHAR b
ENCODING 98
SWIDTH 540 0
DWIDTH 9 0
BBX 9 18 0 -4
BITMAP
0000
0000
0000
0000
4000
4000
4000
5E00
6100
4100
4100
4100
6100
5E00
0000
0000
0000
0000
ENDCHAR
STARTCHAR c
ENCODING 99
SWIDTH 540 0
DWIDTH 9 0
BBX 9 18 0 -4
BITMAP
0000
0000
0000
0000
0000
0000
0000
3E00
4100
4000
4000
4000
4100
3E00
0000
0000
0000
0000
ENDCHAR
STARTCHAR d
ENCODING 100
SWIDTH 540 0
DWIDTH 9 0
BBX 9 18 0 -4
BITMAP
0000
0000
0000
0000
0100
0100
0100
3D00
4300
4100
4100
4100
4300
3D00
0000
0000
0000
0000
ENDCHAR
STARTCHAR e
ENCODING 101
SWIDTH 540 0
DWIDTH 9 0
BBX 9 18 0 -4
BITMAP
0000
0000
0000
0000
0000
0000
0000
3E00
4100
4100
7F00
4000
4100
3E00
0000
0000
0000
0000
ENDCHAR
STARTCHAR f
ENCODING 102
SWIDTH 540 0
DWIDTH 9 0
BBX 9 18 0 -4
BITMAP
0000
0000
0000
0000
0E00
1100
1100
1000
1000
7C00
1000
1000
1000
1000
0000
0000
0000
0000
ENDCHAR
STARTCHAR g
ENCODING 103
SWIDTH 540 0
DWIDTH 9 0
BBX 9 18 0 -4
BITMAP
0000
0000
0000
0000
0000
0000
0000
3D00
4200
4200
4200
3C00
4000
3E00
4100
4100
3E00
0000
ENDCHAR
STARTCHAR h
ENCODING 104
SWIDTH 540 0
DWIDTH 9 0
BBX 9 18 0 -4
BITMAP
0000
0000
0000
0000
4000
4000
4000
5E00
6100
4100
4100
4100
4100
4100
0000
0000
0000
0000
ENDCHAR
STARTCHAR i
ENCODING 105
SWIDTH 540 0
DWIDTH 9 0
BBX 9 18 0 -4
BITMAP
0000
0000
0000
0000
1800
0000
0000
3800
0800
0800
0800
0800
0800
3E00
0000
0000
0000
0000
ENDCHAR
STARTCHAR j
ENCODING 106
SWIDTH 540 0
DWIDTH 9 0
BBX 9 18 0 -4
BITMAP
0000
0000
0000
0000
0600
0000
0000
0E00
0200
0200
0200
0200
0200
0200
2200
2200
1C00
0000
ENDCHAR
STARTCHAR k
ENCODING 107
SWIDTH 540 0
DWIDTH 9 0
BBX 9 18 0 -4
BITMAP
0000
0000
0000
0000
4000
4000
4000
4200
4400
4800
5800
6400
4200
4100
0000
0000
0000
0000
ENDCHAR
STARTCHAR l
ENCODING 108
SWIDTH 540 0
DWIDTH 9 0
BBX 9 18 0 -4
BITMAP
0000
0000
0000
0000
3800
0800
0800
0800
0800
0800
0800
0800
0800
3E00
0000
0000
0000
0000
ENDCHAR
STARTCHAR m
ENCODING 109
SWIDTH 540 0
DWIDTH 9 0
BBX 9 18 0 -4
BITMAP
0000
0000
0000
0000
0000
0000
0000
7600
4900
4900
4900
4900
4900
4100
0000
0000
0000
0000
ENDCHAR
STARTCHAR n
ENCODING 110
SWIDTH 540 0
DWIDTH 9 0
BBX 9 18 0 -4
BITMAP
0000
0000
0000
0000
0000
0000
0000
5E00
6100
4100
4100
4100
4100
4100
0000
0000
0000
0000
ENDCHAR
STARTCHAR o
ENCODING 111
SWIDTH 540 0
DWIDTH 9 0
BBX 9 18 0 -4
BITMAP
0000
0000
0000
0000
0000
0000
0000
3E00
4100
4100
4100
4100
4100
3E00
0000
0000
0000
0000
ENDCHAR
STARTCHAR p
ENCODING 112
SWIDTH 540 0
DWIDTH 9 0
BBX 9 18 0 -4
BITMAP
0000
0000
0000
0000
0000
0000
0000
5C00
6200
4100
4100
4100
6200
5C00
4000
4000
4000
0000
ENDCHAR
STARTCHAR q
ENCODING 113
SWIDTH 540 0
DWIDTH 9 0
BBX 9 18 0 -4
BITMAP
0000
0000
0000
0000
0000
0000
0000
1D00
2300
4100
4100
4100
2300
1D00
0100
0100
0100
0000
ENDCHAR
STARTCHAR r
ENCODING 114
SWIDTH 540 0
DWIDTH 9 0
BBX 9 18 0 -4
BITMAP
0000
0000
0000
0000
0000
0000
0000
4E00
3100
2100
2000
2000
2000
2000
0000
0000
0000
0000
ENDCHAR
STARTCHAR s
ENCODING 115
SWIDTH 540 0
DWIDTH 9 0
BBX 9 18 0 -4
BITMAP
0000
0000
0000
0000
0000
0000
0000
3E00
4100
4000
3E00
0100
4100
3E00
0000
0000
0000
0000
ENDCHAR
STARTCHAR t
ENCODING 116
SWIDTH 540 0
DWIDTH 9 0
BBX 9 18 0 -4
BITMAP
0000
0000
0000
0000
0000
1000
1000
7E00
1000
1000
1000
1000
1100
0E00
0000
0000
0000
0000
ENDCHAR
STARTCHAR u
ENCODING 117
SWIDTH 540 0
DWIDTH 9 0
BBX 9 18 0 -4
BITMAP
0000
0000
0000
0000
0000
0000
0000
4100
4100
4100
4100
4100
4300
3D00
0000
0000
0000
0000
ENDCHAR
STARTCHAR v
ENCODING 118
SWIDTH 540 0
DWIDTH 9 0
BBX 9 18 0 -4
BITMAP
0000
0000
0000
0000
0000
0000
0000
4100
4100
2200
2200
1400
1400
0800
0000
0000
0000
0000
ENDCHAR
STARTCHAR w
ENCODING 119
SWIDTH 540 0
DWIDTH 9 0
BBX 9 18 0 -4
BITMAP
0000
0000
0000
0000
0000
0000
0000
4100
4100
4900
4900
4900
5500
2200
0000
0000
0000
0000
ENDCHAR
STARTCHAR x
ENCODING 120
SWIDTH 540 0
DWIDTH 9 0
BBX 9 18 0 -4
BITMAP
0000
0000
0000
0000
0000
0000
0000
4100
2200
1400
0800
1400
2200
4100
0000
0000
0000
0000
ENDCHAR
STARTCHAR y
ENCODING 121
SWIDTH 540 0
DWIDTH 9 0
BBX 9 18 0 -4
BITMAP
0000
0000
0000
0000
0000
0000
0000
2100
2100
1200
1200
1200
0C00
0C00
0800
4800
3000
0000
ENDCHAR
STARTCHAR z
ENCODING 122
SWIDTH 540 0
DWIDTH 9 0
BBX 9 18 0 -4
BITMAP
0000
0000
0000
0000
0000
0000
0000
7F00
0200
0400
0800
1000
2000
7F00
0000
0000
0000
0000
ENDCHAR
STARTCHAR braceleft
ENCODING 123
SWIDTH 540 0
DWIDTH 9 0
BBX 9 18 0 -4
BITMAP
0000
0000
0000
0700
0800
0800
0800
0800
3000
0800
0800
0800
0800
0700
0000
0000
0000
0000
ENDCHAR
STARTCHAR bar
ENCODING 124
SWIDTH 540 0
DWIDTH 9 0
BBX 9 18 0 -4
BITMAP
0000
0000
0000
0800
0800
0800
0800
0800
0800
0800
0800
0800
0800
0800
0800
0000
0000
0000
ENDCHAR
STARTCHAR braceright
ENCODING 125
SWIDTH 540 0
DWIDTH 9 0
BBX 9 18 0 -4
BITMAP
0000
0000
0000
7000
0800
0800
0800
0800
0600
0800
0800
0800
0800
7000
0000
0000
0000
0000
ENDCHAR
STARTCHAR asciitilde
ENCODING 126
SWIDTH 540 0
DWIDTH 9 0
BBX 9 18 0 -4
BITMAP
0000
0000
0000
0000
3100
4900
4600
0000
0000
0000
0000
0000
0000
0000
0000
0000
0000
0000
ENDCHAR
STARTCHAR space
ENCODING 160
SWIDTH 540 0
DWIDTH 9 0
BBX 9 18 0 -4
BITMAP
0000
0000
0000
0000
0000
0000
0000
0000
0000
0000
0000
0000
0000
0000
0000
0000
0000
0000
ENDCHAR
STARTCHAR exclamdown
ENCODING 161
SWIDTH 540 0
DWIDTH 9 0
BBX 9 18 0 -4
BITMAP
0000
0000
0000
0800
0800
0000
0000
0800
0800
0800
0800
0800
0800
0800
0000
0000
0000
0000
ENDCHAR
STARTCHAR cent
ENCODING 162
SWIDTH 540 0
DWIDTH 9 0
BBX 9 18 0 -4
BITMAP
0000
0000
0000
0000
0000
0000
0400
3C00
4A00
4800
5000
5200
3C00
2000
0000
0000
0000
0000
ENDCHAR
STARTCHAR sterling
ENCODING 163
SWIDTH 540 0
DWIDTH 9 0
BBX 9 18 0 -4
BITMAP
0000
0000
0000
0000
0E00
1100
1000
1000
7C00
1000
1000
3000
5100
2E00
0000
0000
0000
0000
ENDCHAR
STARTCHAR currency
ENCODING 164
SWIDTH 540 0
DWIDTH 9 0
BBX 9 18 0 -4
BITMAP
0000
0000
0000
0000
0000
4100
3E00
2200
2200
3E00
4100
0000
0000
0000
0000
0000
0000
0000
ENDCHAR
STARTCHAR yen
ENCODING 165
SWIDTH 540 0
DWIDTH 9 0
BBX 9 18 0 -4
BITMAP
0000
0000
0000
0000
4100
4100
2200
1400
3E00
0800
3E00
0800
0800
0800
0000
0000
0000
0000
ENDCHAR
STARTCHAR brokenbar
ENCODING 166
SWIDTH 540 0
DWIDTH 9 0
BBX 9 18 0 -4
BITMAP
0000
0000
0000
0000
0800
0800
0800
0800
0800
0000
0800
0800
0800
0800
0800
0000
0000
0000
ENDCHAR
STARTCHAR section
ENCODING 167
SWIDTH 540 0
DWIDTH 9 0
BBX 9 18 0 -4
BITMAP
0000
0000
0000
0000
1800
2400
2000
1800
2400
2400
2400
1800
0400
2400
1800
0000
0000
0000
ENDCHAR
STARTCHAR dieresis
ENCODING 168
SWIDTH 540 0
DWIDTH 9 0
BBX 9 18 0 -4
BITMAP
0000
1400
1400
0000
0000
0000
0000
0000
0000
0000
0000
0000
0000
0000
0000
0000
0000
0000
ENDCHAR
STARTCHAR copyright
ENCODING 169
SWIDTH 540 0
DWIDTH 9 0
BBX 9 18 0 -4
BITMAP
0000
0000
0000
0000
3C00
4200
9900
A500
A100
A500
9900
4200
3C00
0000
0000
0000
0000
0000
ENDCHAR
STARTCHAR ordfeminine
ENCODING 170
SWIDTH 540 0
DWIDTH 9 0
BBX 9 18 0 -4
BITMAP
0000
0000
0000
0000
3000
4800
3800
4800
3C00
0000
7C00
0000
0000
0000
0000
0000
0000
0000
ENDCHAR
STARTCHAR guillemotleft
ENCODING 171
SWIDTH 540 0
DWIDTH 9 0
BBX 9 18 0 -4
BITMAP
0000
0000
0000
0000
0000
0900
1200
2400
4800
4800
2400
1200
0900
0000
0000
0000
0000
0000
ENDCHAR
STARTCHAR logicalnot
ENCODING 172
SWIDTH 540 0
DWIDTH 9 0
BBX 9 18 0 -4
BITMAP
0000
0000
0000
0000
0000
0000
0000
0000
7E00
0200
0200
0200
0000
0000
0000
0000
0000
0000
ENDCHAR
STARTCHAR hyphen
ENCODING 173
SWIDTH 540 0
DWIDTH 9 0
BBX 9 18 0 -4
BITMAP
0000
0000
0000
0000
0000
0000
0000
0000
0000
3E00
0000
0000
0000
0000
0000
0000
0000
0000
ENDCHAR
STARTCHAR registered
ENCODING 174
SWIDTH 540 0
DWIDTH 9 0
BBX 9 18 0 -4
BITMAP
0000
0000
0000
0000
3C00
4200
B900
A500
BD00
A900
A500
4200
3C00
0000
0000
0000
0000
0000
ENDCHAR
STARTCHAR macron
ENCODING 175
SWIDTH 540 0
DWIDTH 9 0
BBX 9 18 0 -4
BITMAP
0000
0000
0000
0000
7E00
0000
0000
0000
0000
0000
0000
0000
0000
0000
0000
0000
0000
0000
ENDCHAR
STARTCHAR degree
ENCODING 176
SWIDTH 540 0
DWIDTH 9 0
BBX 9 18 0 -4
BITMAP
0000
0000
0000
0000
0C00
1200
1200
0C00
0000
0000
0000
0000
0000
0000
0000
0000
0000
0000
ENDCHAR
STARTCHAR plusminus
ENCODING 177
SWIDTH 540 0
DWIDTH 9 0
BBX 9 18 0 -4
BITMAP
0000
0000
0000
0000
0800
0800
0800
7F00
0800
0800
0800
0000
7F00
0000
0000
0000
0000
0000
ENDCHAR
STARTCHAR twosuperior
ENCODING 178
SWIDTH 540 0
DWIDTH 9 0
BBX 9 18 0 -4
BITMAP
0000
0000
0000
0000
3000
4800
0800
3000
4000
7800
0000
0000
0000
0000
0000
0000
0000
0000
ENDCHAR
STARTCHAR threesuperior
ENCODING 179
SWIDTH 540 0
DWIDTH 9 0
BBX 9 18 0 -4
BITMAP
0000
0000
0000
0000
3000
4800
1000
0800
4800
3000
0000
0000
0000
0000
0000
0000
0000
0000
ENDCHAR
STARTCHAR acute
ENCODING 180
SWIDTH 540 0
DWIDTH 9 0
BBX 9 18 0 -4
BITMAP
0000
0400
0800
1000
0000
0000
0000
0000
0000
0000
0000
0000
0000
0000
0000
0000
0000
0000
ENDCHAR
STARTCHAR mu
ENCODING 181
SWIDTH 540 0
DWIDTH 9 0
BBX 9 18 0 -4
BITMAP
0000
0000
0000
0000
0000
0000
0000
4100
4100
4100
4100
4100
6300
5D00
4000
4000
0000
0000
ENDCHAR
STARTCHAR paragraph
ENCODING 182
SWIDTH 540 0
DWIDTH 9 0
BBX 9 18 0 -4
BITMAP
0000
0000
0000
0000
3F00
4500
4500
4500
3D00
0500
0500
0500
0500
0500
0000
0000
0000
0000
ENDCHAR
STARTCHAR periodcentered
ENCODING 183
SWIDTH 540 0
DWIDTH 9 0
BBX 9 18 0 -4
BITMAP
0000
0000
0000
0000
0000
0000
0000
0000
0C00
0C00
0000
0000
0000
0000
0000
0000
0000
0000
ENDCHAR
STARTCHAR cedilla
ENCODING 184
SWIDTH 540 0
DWIDTH 9 0
BBX 9 18 0 -4
BITMAP
0000
0000
0000
0000
0000
0000
0000
0000
0000
0000
0000
0000
0000
0000
0800
2400
1800
0000
ENDCHAR
STARTCHAR onesuperior
ENCODING 185
SWIDTH 540 0
DWIDTH 9 0
BBX 9 18 0 -4
BITMAP
0000
0000
0000
0000
2000
6000
2000
2000
2000
7000
0000
0000
0000
0000
0000
0000
0000
0000
ENDCHAR
STARTCHAR ordmasculine
ENCODING 186
SWIDTH 540 0
DWIDTH 9 0
BBX 9 18 0 -4
BITMAP
0000
0000
0000
0000
3800
4400
4400
3800
0000
7C00
0000
0000
0000
0000
0000
0000
0000
0000
ENDCHAR
STARTCHAR guillemotright
ENCODING 187
SWIDTH 540 0
DWIDTH 9 0
BBX 9 18 0 -4
BITMAP
0000
0000
0000
0000
0000
4800
2400
1200
0900
0900
1200
2400
4800
0000
0000
0000
0000
0000
ENDCHAR
STARTCHAR onequarter
ENCODING 188
SWIDTH 540 0
DWIDTH 9 0
BBX 9 18 0 -4
BITMAP
0000
0000
0000
0000
2000
6000
2000
2000
2100
7300
0500
0900
0D00
0300
0000
0000
0000
0000
ENDCHAR
STARTCHAR onehalf
ENCODING 189
SWIDTH 540 0
DWIDTH 9 0
BBX 9 18 0 -4
BITMAP
0000
0000
0000
0000
2000
6000
2000
2000
2600
7900
0100
0600
0800
0F00
0000
0000
0000
0000
ENDCHAR
STARTCHAR threequarters
ENCODING 190
SWIDTH 540 0
DWIDTH 9 0
BBX 9 18 0 -4
BITMAP
0000
0000
0000
0000
3000
4800
1000
0800
4900
3300
0500
0900
0D00
0300
0000
0000
0000
0000
ENDCHAR
STARTCHAR questiondown
ENCODING 191
SWIDTH 540 0
DWIDTH 9 0
BBX 9 18 0 -4
BITMAP
0000
0000
0000
0000
0800
0000
0800
0800
1000
2000
4000
4100
4100
3E00
0000
0000
0000
0000
ENDCHAR
STARTCHAR Agrave
ENCODING 192
SWIDTH 540 0
DWIDTH 9 0
BBX 9 18 0 -4
BITMAP
1000
0800
0400
0000
0800
1400
1400
1400
2200
3E00
2200
4100
4100
4100
0000
0000
0000
0000
ENDCHAR
STARTCHAR Aacute
ENCODING 193
SWIDTH 540 0
DWIDTH 9 0
BBX 9 18 0 -4
BITMAP
0400
0800
1000
0000
0800
1400
1400
1400
2200
3E00
2200
4100
4100
4100
0000
0000
0000
0000
ENDCHAR
STARTCHAR Acircumflex
ENCODING 194
SWIDTH 540 0
DWIDTH 9 0
BBX 9 18 0 -4
BITMAP
0800
1400
2200
0000
0800
1400
1400
1400
2200
3E00
2200
4100
4100
4100
0000
0000
0000
0000
ENDCHAR
STARTCHAR Atilde
ENCODING 195
SWIDTH 540 0
DWIDTH 9 0
BBX 9 18 0 -4
BITMAP
0000
1A00
2C00
0000
0800
1400
1400
1400
2200
3E00
2200
4100
4100
4100
0000
0000
0000
0000
ENDCHAR
STARTCHAR Adieresis
ENCODING 196
SWIDTH 540 0
DWIDTH 9 0
BBX 9 18 0 -4
BITMAP
0000
1400
1400
0000
0800
1400
1400
1400
2200
3E00
2200
4100
4100
4100
0000
0000
0000
0000
ENDCHAR
STARTCHAR Aring
ENCODING 197
SWIDTH 540 0
DWIDTH 9 0
BBX 9 18 0 -4
BITMAP
0800
1400
1400
0800
0800
1400
1400
1400
2200
3E00
2200
4100
4100
4100
0000
0000
0000
0000
ENDCHAR
STARTCHAR AE
ENCODING 198
SWIDTH 540 0
DWIDTH 9 0
BBX 9 18 0 -4
BITMAP
0000
0000
0000
0000
0F00
1400
1400
1400
2700
3C00
2400
4400
4400
4700
0000
0000
0000
0000
ENDCHAR
STARTCHAR Ccedilla
ENCODING 199
SWIDTH 540 0
DWIDTH 9 0
BBX 9 18 0 -4
BITMAP
0000
0000
0000
0000
1E00
2100
4000
4000
4000
4000
4000
4000
2100
1E00
0400
1200
0C00
0000
ENDCHAR
STARTCHAR Egrave
ENCODING 200
SWIDTH 540 0
DWIDTH 9 0
BBX 9 18 0 -4
BITMAP
1000
0800
0400
0000
7F00
4000
4000
4000
7C00
4000
4000
4000
4000
7F00
0000
0000
0000
0000
ENDCHAR
STARTCHAR Eacute
ENCODING 201
SWIDTH 540 0
DWIDTH 9 0
BBX 9 18 0 -4
BITMAP
0400
0800
1000
0000
7F00
4000
4000
4000
7C00
4000
4000
4000
4000
7F00
0000
0000
0000
0000
ENDCHAR
STARTCHAR Ecircumflex
ENCODING 202
SWIDTH 540 0
DWIDTH 9 0
BBX 9 18 0 -4
BITMAP
0800
1400
2200
0000
7F00
4000
4000
4000
7C00
4000
4000
4000
4000
7F00
0000
0000
0000
0000
ENDCHAR
STARTCHAR Edieresis
ENCODING 203
SWIDTH 540 0
DWIDTH 9 0
BBX 9 18 0 -4
BITMAP
0000
1400
1400
0000
7F00
4000
4000
4000
7C00
4000
4000
4000
4000
7F00
0000
0000
0000
0000
ENDCHAR
STARTCHAR Igrave
ENCODING 204
SWIDTH 540 0
DWIDTH 9 0
BBX 9 18 0 -4
BITMAP
1000
0800
0400
0000
3E00
0800
0800
0800
0800
0800
0800
0800
0800
3E00
0000
0000
0000
0000
ENDCHAR
STARTCHAR Iacute
ENCODING 205
SWIDTH 540 0
DWIDTH 9 0
BBX 9 18 0 -4
BITMAP
0400
0800
1000
0000
3E00
0800
0800
0800
0800
0800
0800
0800
0800
3E00
0000
0000
0000
0000
ENDCHAR
STARTCHAR Icircumflex
ENCODING 206
SWIDTH 540 0
DWIDTH 9 0
BBX 9 18 0 -4
BITMAP
0800
1400
2200
0000
3E00
0800
0800
0800
0800
0800
0800
0800
0800
3E00
0000
0000
0000
0000
ENDCHAR
STARTCHAR Idieresis
ENCODING 207
SWIDTH 540 0
DWIDTH 9 0
BBX 9 18 0 -4
BITMAP
0000
1400
1400
0000
3E00
0800
0800
0800
0800
0800
0800
0800
0800
3E00
0000
0000
0000
0000
ENDCHAR
STARTCHAR Eth
ENCODING 208
SWIDTH 540 0
DWIDTH 9 0
BBX 9 18 0 -4
BITMAP
0000
0000
0000
0000
3C00
2200
2100
2100
7900
2100
2100
2100
2200
3C00
0000
0000
0000
0000
ENDCHAR
STARTCHAR Ntilde
ENCODING 209
SWIDTH 540 0
DWIDTH 9 0
BBX 9 18 0 -4
BITMAP
0000
1A00
2C00
0000
4100
4100
6100
5100
4900
4500
4300
4100
4100
4100
0000
0000
0000
0000
ENDCHAR
STARTCHAR Ograve
ENCODING 210
SWIDTH 540 0
DWIDTH 9 0
BBX 9 18 0 -4
BITMAP
1000
0800
0400
0000
3E00
4100
4100
4100
4100
4100
4100
4100
4100
3E00
0000
0000
0000
0000
ENDCHAR
STARTCHAR Oacute
ENCODING 211
SWIDTH 540 0
DWIDTH 9 0
BBX 9 18 0 -4
BITMAP
0400
0800
1000
0000
3E00
4100
4100
4100
4100
4100
4100
4100
4100
3E00
0000
0000
0000
0000
ENDCHAR
STARTCHAR Ocircumflex
ENCODING 212
SWIDTH 540 0
DWIDTH 9 0
BBX 9 18 0 -4
BITMAP
0800
1400
2200
0000
3E00
4100
4100
4100
4100
4100
4100
4100
4100
3E00
0000
0000
0000
0000
ENDCHAR
STARTCHAR Otilde
ENCODING 213
SWIDTH 540 0
DWIDTH 9 0
BBX 9 18 0 -4
BITMAP
0000
1A00
2C00
0000
3E00
4100
4100
4100
4100
4100
4100
4100
4100
3E00
0000
0000
0000
0000
ENDCHAR
STARTCHAR Odieresis
ENCODING 214
SWIDTH 540 0
DWIDTH 9 0
BBX 9 18 0 -4
BITMAP
0000
1400
1400
0000
3E00
4100
4100
4100
4100
4100
4100
4100
4100
3E00
0000
0000
0000
0000
ENDCHAR
STARTCHAR multiply
ENCODING 215
SWIDTH 540 0
DWIDTH 9 0
BBX 9 18 0 -4
BITMAP
0000
0000
0000
0000
0000
0000
4100
2200
1400
0800
1400
2200
4100
0000
0000
0000
0000
0000
ENDCHAR
STARTCHAR Oslash
ENCODING 216
SWIDTH 540 0
DWIDTH 9 0
BBX 9 18 0 -4
BITMAP
0000
0000
0000
0100
3E00
4300
4500
4500
4900
4900
5100
5100
6100
3E00
4000
0000
0000
0000
ENDCHAR
STARTCHAR Ugrave
ENCODING 217
SWIDTH 540 0
DWIDTH 9 0
BBX 9 18 0 -4
BITMAP
1000
0800
0400
0000
4100
4100
4100
4100
4100
4100
4100
4100
2200
1C00
0000
0000
0000
0000
ENDCHAR
STARTCHAR Uacute
ENCODING 218
SWIDTH 540 0
DWIDTH 9 0
BBX 9 18 0 -4
BITMAP
0400
0800
1000
0000
4100
4100
4100
4100
4100
4100
4100
4100
2200
1C00
0000
0000
0000
0000
ENDCHAR
STARTCHAR Ucircumflex
ENCODING 219
SWIDTH 540 0
DWIDTH 9 0
BBX 9 18 0 -4
BITMAP
0800
1400
2200
0000
4100
4100
4100
4100
4100
4100
4100
4100
2200
1C00
0000
0000
0000
0000
ENDCHAR
STARTCHAR Udieresis
ENCODING 220
SWIDTH 540 0
DWIDTH 9 0
BBX 9 18 0 -4
BITMAP
0000
1400
1400
0000
4100
4100
4100
4100
4100
4100
4100
4100
2200
1C00
0000
0000
0000
0000
ENDCHAR
STARTCHAR Yacute
ENCODING 221
SWIDTH 540 0
DWIDTH 9 0
BBX 9 18 0 -4
BITMAP
0400
0800
1000
0000
4100
4100
2200
1400
0800
0800
0800
0800
0800
0800
0000
0000
0000
0000
ENDCHAR
STARTCHAR Thorn
ENCODING 222
SWIDTH 540 0
DWIDTH 9 0
BBX 9 18 0 -4
BITMAP
0000
0000
0000
0000
4000
4000
7E00
4100
4100
4100
7E00
4000
4000
4000
0000
0000
0000
0000
ENDCHAR
STARTCHAR germandbls
ENCODING 223
SWIDTH 540 0
DWIDTH 9 0
BBX 9 18 0 -4
BITMAP
0000
0000
0000
0000
1C00
2200
2200
2400
6800
2400
2200
2200
2200
2C00
0000
0000
0000
0000
ENDCHAR
STARTCHAR agrave
ENCODING 224
SWIDTH 540 0
DWIDTH 9 0
BBX 9 18 0 -4
BITMAP
0000
0000
0000
1000
0800
0400
0000
3E00
0100
0100
3F00
4100
4300
3D00
0000
0000
0000
0000
ENDCHAR
STARTCHAR aacute
ENCODING 225
SWIDTH 540 0
DWIDTH 9 0
BBX 9 18 0 -4
BITMAP
0000
0000
0000
0400
0800
1000
0000
3E00
0100
0100
3F00
4100
4300
3D00
0000
0000
0000
0000
ENDCHAR
STARTCHAR acircumflex
ENCODING 226
SWIDTH 540 0
DWIDTH 9 0
BBX 9 18 0 -4
BITMAP
0000
0000
0000
0800
1400
2200
0000
3E00
0100
0100
3F00
4100
4300
3D00
0000
0000
0000
0000
ENDCHAR
STARTCHAR atilde
ENCODING 227
SWIDTH 540 0
DWIDTH 9 0
BBX 9 18 0 -4
BITMAP
0000
0000
0000
0000
1A00
2C00
0000
3E00
0100
0100
3F00
4100
4300
3D00
0000
0000
0000
0000
ENDCHAR
STARTCHAR adieresis
ENCODING 228
SWIDTH 540 0
DWIDTH 9 0
BBX 9 18 0 -4
BITMAP
0000
0000
0000
0000
1400
1400
0000
3E00
0100
0100
3F00
4100
4300
3D00
0000
0000
0000
0000
ENDCHAR
STARTCHAR aring
ENCODING 229
SWIDTH 540 0
DWIDTH 9 0
BBX 9 18 0 -4
BITMAP
0000
0000
0800
1400
1400
0800
0000
3E00
0100
0100
3F00
4100
4300
3D00
0000
0000
0000
0000
ENDCHAR
STARTCHAR ae
ENCODING 230
SWIDTH 540 0
DWIDTH 9 0
BBX 9 18 0 -4
BITMAP
0000
0000
0000
0000
0000
0000
0000
3600
0900
0900
3F00
4800
4900
3600
0000
0000
0000
0000
ENDCHAR
STARTCHAR ccedilla
ENCODING 231
SWIDTH 540 0
DWIDTH 9 0
BBX 9 18 0 -4
BITMAP
0000
0000
0000
0000
0000
0000
0000
3E00
4100
4000
4000
4000
4100
3E00
0800
2400
1800
0000
ENDCHAR
STARTCHAR egrave
ENCODING 232
SWIDTH 540 0
DWIDTH 9 0
BBX 9 18 0 -4
BITMAP
0000
0000
0000
1000
0800
0400
0000
3E00
4100
4100
7F00
4000
4100
3E00
0000
0000
0000
0000
ENDCHAR
STARTCHAR eacute
ENCODING 233
SWIDTH 540 0
DWIDTH 9 0
BBX 9 18 0 -4
BITMAP
0000
0000
0000
0400
0800
1000
0000
3E00
4100
4100
7F00
4000
4100
3E00
0000
0000
0000
0000
ENDCHAR
STARTCHAR ecircumflex
ENCODING 234
SWIDTH 540 0
DWIDTH 9 0
BBX 9 18 0 -4
BITMAP
0000
0000
0000
0800
1400
2200
0000
3E00
4100
4100
7F00
4000
4100
3E00
0000
0000
0000
0000
ENDCHAR
STARTCHAR edieresis
ENCODING 235
SWIDTH 540 0
DWIDTH 9 0
BBX 9 18 0 -4
BITMAP
0000
0000
0000
0000
1400
1400
0000
3E00
4100
4100
7F00
4000
4100
3E00
0000
0000
0000
0000
ENDCHAR
STARTCHAR igrave
ENCODING 236
SWIDTH 540 0
DWIDTH 9 0
BBX 9 18 0 -4
BITMAP
0000
0000
2000
1000
0800
0000
0000
3800
0800
0800
0800
0800
0800
3E00
0000
0000
0000
0000
ENDCHAR
STARTCHAR iacute
ENCODING 237
SWIDTH 540 0
DWIDTH 9 0
BBX 9 18 0 -4
BITMAP
0000
0000
0400
0800
1000
0000
0000
3800
0800
0800
0800
0800
0800
3E00
0000
0000
0000
0000
ENDCHAR
STARTCHAR icircumflex
ENCODING 238
SWIDTH 540 0
DWIDTH 9 0
BBX 9 18 0 -4
BITMAP
0000
0000
0800
1400
2200
0000
0000
3800
0800
0800
0800
0800
0800
3E00
0000
0000
0000
0000
ENDCHAR
STARTCHAR idieresis
ENCODING 239
SWIDTH 540 0
DWIDTH 9 0
BBX 9 18 0 -4
BITMAP
0000
0000
0000
1400
1400
0000
0000
3800
0800
0800
0800
0800
0800
3E00
0000
0000
0000
0000
ENDCHAR
STARTCHAR eth
ENCODING 240
SWIDTH 540 0
DWIDTH 9 0
BBX 9 18 0 -4
BITMAP
0000
0000
0000
2400
1800
2800
0400
1E00
2200
4100
4100
4100
2200
1C00
0000
0000
0000
0000
ENDCHAR
STARTCHAR ntilde
ENCODING 241
SWIDTH 540 0
DWIDTH 9 0
BBX 9 18 0 -4
BITMAP
0000
0000
0000
0000
1A00
2C00
0000
5E00
6100
4100
4100
4100
4100
4100
0000
0000
0000
0000
ENDCHAR
STARTCHAR ograve
ENCODING 242
SWIDTH 540 0
DWIDTH 9 0
BBX 9 18 0 -4
BITMAP
0000
0000
0000
1000
0800
0400
0000
3E00
4100
4100
4100
4100
4100
3E00
0000
0000
0000
0000
ENDCHAR
STARTCHAR oacute
ENCODING 243
SWIDTH 540 0
DWIDTH 9 0
BBX 9 18 0 -4
BITMAP
0000
0000
0000
0400
0800
1000
0000
3E00
4100
4100
4100
4100
4100
3E00
0000
0000
0000
0000
ENDCHAR
STARTCHAR ocircumflex
ENCODING 244
SWIDTH 540 0
DWIDTH 9 0
BBX 9 18 0 -4
BITMAP
0000
0000
0000
0800
1400
2200
0000
3E00
4100
4100
4100
4100
4100
3E00
0000
0000
0000
0000
ENDCHAR
STARTCHAR otilde
ENCODING 245
SWIDTH 540 0
DWIDTH 9 0
BBX 9 18 0 -4
BITMAP
0000
0000
0000
0000
1A00
2C00
0000
3E00
4100
4100
4100
4100
4100
3E00
0000
0000
0000
0000
ENDCHAR
STARTCHAR odieresis
ENCODING 246
SWIDTH 540 0
DWIDTH 9 0
BBX 9 18 0 -4
BITMAP
0000
0000
0000
0000
1400
1400
0000
3E00
4100
4100
4100
4100
4100
3E00
0000
0000
0000
0000
ENDCHAR
STARTCHAR divide
ENCODING 247
SWIDTH 540 0
DWIDTH 9 0
BBX 9 18 0 -4
BITMAP
0000
0000
0000
0000
0000
0800
1C00
0800
0000
7F00
0000
0800
1C00
0800
0000
0000
0000
0000
ENDCHAR
STARTCHAR oslash
ENCODING 248
SWIDTH 540 0
DWIDTH 9 0
BBX 9 18 0 -4
BITMAP
0000
0000
0000
0000
0000
0000
0100
3E00
4500
4500
4900
5100
5100
3E00
4000
0000
0000
0000
ENDCHAR
STARTCHAR ugrave
ENCODING 249
SWIDTH 540 0
DWIDTH 9 0
BBX 9 18 0 -4
BITMAP
0000
0000
0000
2000
1000
0800
0000
4100
4100
4100
4100
4100
4300
3D00
0000
0000
0000
0000
ENDCHAR
STARTCHAR uacute
ENCODING 250
SWIDTH 540 0
DWIDTH 9 0
BBX 9 18 0 -4
BITMAP
0000
0000
0000
0400
0800
1000
0000
4100
4100
4100
4100
4100
4300
3D00
0000
0000
0000
0000
ENDCHAR
STARTCHAR ucircumflex
ENCODING 251
SWIDTH 540 0
DWIDTH 9 0
BBX 9 18 0 -4
BITMAP
0000
0000
0000
0800
1400
2200
0000
4100
4100
4100
4100
4100
4300
3D00
0000
0000
0000
0000
ENDCHAR
STARTCHAR udieresis
ENCODING 252
SWIDTH 540 0
DWIDTH 9 0
BBX 9 18 0 -4
BITMAP
0000
0000
0000
0000
1400
1400
0000
4100
4100
4100
4100
4100
4300
3D00
0000
0000
0000
0000
ENDCHAR
STARTCHAR yacute
ENCODING 253
SWIDTH 540 0
DWIDTH 9 0
BBX 9 18 0 -4
BITMAP
0000
0000
0000
0200
0400
0800
0000
2100
2100
1200
1200
1200
0C00
0C00
0800
4800
3000
0000
ENDCHAR
STARTCHAR thorn
ENCODING 254
SWIDTH 540 0
DWIDTH 9 0
BBX 9 18 0 -4
BITMAP
0000
0000
0000
0000
0000
4000
4000
5C00
6200
4100
4100
4100
6200
5C00
4000
4000
0000
0000
ENDCHAR
STARTCHAR ydieresis
ENCODING 255
SWIDTH 540 0
DWIDTH 9 0
BBX 9 18 0 -4
BITMAP
0000
0000
0000
0000
1200
1200
0000
2100
2100
1200
1200
1200
0C00
0C00
0800
4800
3000
0000
ENDCHAR
STARTCHAR Amacron
ENCODING 256
SWIDTH 540 0
DWIDTH 9 0
BBX 9 18 0 -4
BITMAP
0000
0000
3E00
0000
0800
1400
1400
1400
2200
3E00
2200
4100
4100
4100
0000
0000
0000
0000
ENDCHAR
STARTCHAR amacron
ENCODING 257
SWIDTH 540 0
DWIDTH 9 0
BBX 9 18 0 -4
BITMAP
0000
0000
0000
0000
0000
3E00
0000
3E00
0100
0100
3F00
4100
4300
3D00
0000
0000
0000
0000
ENDCHAR
STARTCHAR Abreve
ENCODING 258
SWIDTH 540 0
DWIDTH 9 0
BBX 9 18 0 -4
BITMAP
0000
2200
1C00
0000
0800
1400
1400
1400
2200
3E00
2200
4100
4100
4100
0000
0000
0000
0000
ENDCHAR
STARTCHAR abreve
ENCODING 259
SWIDTH 540 0
DWIDTH 9 0
BBX 9 18 0 -4
BITMAP
0000
0000
0000
0000
2200
1C00
0000
3E00
0100
0100
3F00
4100
4300
3D00
0000
0000
0000
0000
ENDCHAR
STARTCHAR Aogonek
ENCODING 260
SWIDTH 540 0
DWIDTH 9 0
BBX 9 18 0 -4
BITMAP
0000
0000
0000
0000
0800
1400
1400
1400
2200
3E00
2200
4100
4100
4100
0100
0200
0180
0000
ENDCHAR
STARTCHAR aogonek
ENCODING 261
SWIDTH 540 0
DWIDTH 9 0
BBX 9 18 0 -4
BITMAP
0000
0000
0000
0000
0000
0000
0000
3E00
0100
0100
3F00
4100
4300
3D00
0800
1000
0E00
0000
ENDCHAR
STARTCHAR Cacute
ENCODING 262
SWIDTH 540 0
DWIDTH 9 0
BBX 9 18 0 -4
BITMAP
0400
0800
1000
0000
1E00
2100
4000
4000
4000
4000
4000
4000
2100
1E00
0000
0000
0000
0000
ENDCHAR
STARTCHAR cacute
ENCODING 263
SWIDTH 540 0
DWIDTH 9 0
BBX 9 18 0 -4
BITMAP
0000
0000
0000
0400
0800
1000
0000
3E00
4100
4000
4000
4000
4100
3E00
0000
0000
0000
0000
ENDCHAR
STARTCHAR Ccircumflex
ENCODING 264
SWIDTH 540 0
DWIDTH 9 0
BBX 9 18 0 -4
BITMAP
0800
1400
2200
0000
1E00
2100
4000
4000
4000
4000
4000
4000
2100
1E00
0000
0000
0000
0000
ENDCHAR
STARTCHAR ccircumflex
ENCODING 265
SWIDTH 540 0
DWIDTH 9 0
BBX 9 18 0 -4
BITMAP
0000
0000
0000
0800
1400
2200
0000
3E00
4100
4000
4000
4000
4100
3E00
0000
0000
0000
0000
ENDCHAR
STARTCHAR Cdotaccent
ENCODING 266
SWIDTH 540 0
DWIDTH 9 0
BBX 9 18 0 -4
BITMAP
0000
0800
0800
0000
1E00
2100
4000
4000
4000
4000
4000
4000
2100
1E00
0000
0000
0000
0000
ENDCHAR
STARTCHAR cdotaccent
ENCODING 267
SWIDTH 540 0
DWIDTH 9 0
BBX 9 18 0 -4
BITMAP
0000
0000
0000
0000
0800
0800
0000
3E00
4100
4000
4000
4000
4100
3E00
0000
0000
0000
0000
ENDCHAR
STARTCHAR Ccaron
ENCODING 268
SWIDTH 540 0
DWIDTH 9 0
BBX 9 18 0 -4
BITMAP
2200
1400
0800
0000
1E00
2100
4000
4000
4000
4000
4000
4000
2100
1E00
0000
0000
0000
0000
ENDCHAR
STARTCHAR ccaron
ENCODING 269
SWIDTH 540 0
DWIDTH 9 0
BBX 9 18 0 -4
BITMAP
0000
0000
0000
2200
1400
0800
0000
3E00
4100
4000
4000
4000
4100
3E00
0000
0000
0000
0000
ENDCHAR
STARTCHAR Dcaron
ENCODING 270
SWIDTH 540 0
DWIDTH 9 0
BBX 9 18 0 -4
BITMAP
2200
1400
0800
0000
7C00
4200
4100
4100
4100
4100
4100
4100
4200
7C00
0000
0000
0000
0000
ENDCHAR
STARTCHAR dcaron
ENCODING 271
SWIDTH 540 0
DWIDTH 9 0
BBX 9 18 0 -4
BITMAP
0000
2200
1400
0800
0100
0100
0100
3D00
4300
4100
4100
4100
4300
3D00
0000
0000
0000
0000
ENDCHAR
STARTCHAR Dcroat
ENCODING 272
SWIDTH 540 0
DWIDTH 9 0
BBX 9 18 0 -4
BITMAP
0000
0000
0000
0000
7C00
4200
4100
4100
F100
4100
4100
4100
4200
7C00
0000
0000
0000
0000
ENDCHAR
STARTCHAR dcroat
ENCODING 273
SWIDTH 540 0
DWIDTH 9 0
BBX 9 18 0 -4
BITMAP
0000
0000
0000
0000
0100
0F80
0100
3D00
4300
4100
4100
4100
4300
3D00
0000
0000
0000
0000
ENDCHAR
STARTCHAR Emacron
ENCODING 274
SWIDTH 540 0
DWIDTH 9 0
BBX 9 18 0 -4
BITMAP
0000
0000
3E00
0000
7F00
4000
4000
4000
7C00
4000
4000
4000
4000
7F00
0000
0000
0000
0000
ENDCHAR
STARTCHAR emacron
ENCODING 275
SWIDTH 540 0
DWIDTH 9 0
BBX 9 18 0 -4
BITMAP
0000
0000
0000
0000
0000
3E00
0000
3E00
4100
4100
7F00
4000
4100
3E00
0000
0000
0000
0000
ENDCHAR
STARTCHAR Ebreve
ENCODING 276
SWIDTH 540 0
DWIDTH 9 0
BBX 9 18 0 -4
BITMAP
0000
2200
1C00
0000
7F00
4000
4000
4000
7C00
4000
4000
4000
4000
7F00
0000
0000
0000
0000
ENDCHAR
STARTCHAR ebreve
ENCODING 277
SWIDTH 540 0
DWIDTH 9 0
BBX 9 18 0 -4
BITMAP
0000
0000
0000
0000
2200
1C00
0000
3E00
4100
4100
7F00
4000
4100
3E00
0000
0000
0000
0000
ENDCHAR
STARTCHAR Edotaccent
ENCODING 278
SWIDTH 540 0
DWIDTH 9 0
BBX 9 18 0 -4
BITMAP
0000
0800
0800
0000
7F00
4000
4000
4000
7C00
4000
4000
4000
4000
7F00
0000
0000
0000
0000
ENDCHAR
STARTCHAR edotaccent
ENCODING 279
SWIDTH 540 0
DWIDTH 9 0
BBX 9 18 0 -4
BITMAP
0000
0000
0000
0000
0800
0800
0000
3E00
4100
4100
7F00
4000
4100
3E00
0000
0000
0000
0000
ENDCHAR
STARTCHAR Eogonek
ENCODING 280
SWIDTH 540 0
DWIDTH 9 0
BBX 9 18 0 -4
BITMAP
0000
0000
0000
0000
7F00
4000
4000
4000
7C00
4000
4000
4000
4000
7F00
0800
1000
0E00
0000
ENDCHAR
STARTCHAR eogonek
ENCODING 281
SWIDTH 540 0
DWIDTH 9 0
BBX 9 18 0 -4
BITMAP
0000
0000
0000
0000
0000
0000
0000
3E00
4100
4100
7F00
4000
4100
3E00
0800
1000
0E00
0000
ENDCHAR
STARTCHAR Ecaron
ENCODING 282
SWIDTH 540 0
DWIDTH 9 0
BBX 9 18 0 -4
BITMAP
2200
1400
0800
0000
7F00
4000
4000
4000
7C00
4000
4000
4000
4000
7F00
0000
0000
0000
0000
ENDCHAR
STARTCHAR ecaron
ENCODING 283
SWIDTH 540 0
DWIDTH 9 0
BBX 9 18 0 -4
BITMAP
0000
0000
0000
2200
1400
0800
0000
3E00
4100
4100
7F00
4000
4100
3E00
0000
0000
0000
0000
ENDCHAR
STARTCHAR Gcircumflex
ENCODING 284
SWIDTH 540 0
DWIDTH 9 0
BBX 9 18 0 -4
BITMAP
0800
1400
2200
0000
1C00
2200
4100
4000
4000
4700
4100
4100
2200
1C00
0000
0000
0000
0000
ENDCHAR
STARTCHAR gcircumflex
ENCODING 285
SWIDTH 540 0
DWIDTH 9 0
BBX 9 18 0 -4
BITMAP
0000
0000
0000
0800
1400
2200
0000
3D00
4200
4200
4200
3C00
4000
3E00
4100
4100
3E00
0000
ENDCHAR
STARTCHAR Gbreve
ENCODING 286
SWIDTH 540 0
DWIDTH 9 0
BBX 9 18 0 -4
BITMAP
0000
2200
1C00
0000
1C00
2200
4100
4000
4000
4700
4100
4100
2200
1C00
0000
0000
0000
0000
ENDCHAR
STARTCHAR gbreve
ENCODING 287
SWIDTH 540 0
DWIDTH 9 0
BBX 9 18 0 -4
BITMAP
0000
0000
0000
0000
2200
1C00
0000
3D00
4200
4200
4200
3C00
4000
3E00
4100
4100
3E00
0000
ENDCHAR
STARTCHAR Gdotaccent
ENCODING 288
SWIDTH 540 0
DWIDTH 9 0
BBX 9 18 0 -4
BITMAP
0000
0800
0800
0000
1C00
2200
4100
4000
4000
4700
4100
4100
2200
1C00
0000
0000
0000
0000
ENDCHAR
STARTCHAR gdotaccent
ENCODING 289
SWIDTH 540 0
DWIDTH 9 0
BBX 9 18 0 -4
BITMAP
0000
0000
0000
0000
0800
0800
0000
3D00
4200
4200
4200
3C00
4000
3E00
4100
4100
3E00
0000
ENDCHAR
STARTCHAR Gcommaaccent
ENCODING 290
SWIDTH 540 0
DWIDTH 9 0
BBX 9 18 0 -4
BITMAP
0000
0000
0000
0000
1C00
2200
4100
4000
4000
4700
4100
4100
2200
1C00
0800
2400
1800
0000
ENDCHAR
STARTCHAR gcommaaccent
ENCODING 291
SWIDTH 540 0
DWIDTH 9 0
BBX 9 18 0 -4
BITMAP
0000
0000
0000
0800
1000
1800
0000
3D00
4200
4200
4200
3C00
4000
3E00
4100
4100
3E00
0000
ENDCHAR
STARTCHAR Hcircumflex
ENCODING 292
SWIDTH 540 0
DWIDTH 9 0
BBX 9 18 0 -4
BITMAP
0800
1400
2200
0000
4100
4100
4100
4100
7F00
4100
4100
4100
4100
4100
0000
0000
0000
0000
ENDCHAR
STARTCHAR hcircumflex
ENCODING 293
SWIDTH 540 0
DWIDTH 9 0
BBX 9 18 0 -4
BITMAP
0800
1400
2200
0000
4000
4000
4000
5E00
6100
4100
4100
4100
4100
4100
0000
0000
0000
0000
ENDCHAR
STARTCHAR Hbar
ENCODING 294
SWIDTH 540 0
DWIDTH 9 0
BBX 9 18 0 -4
BITMAP
0000
0000
0000
0000
4100
4100
FF80
4100
7F00
4100
4100
4100
4100
4100
0000
0000
0000
0000
ENDCHAR
STARTCHAR hbar
ENCODING 295
SWIDTH 540 0
DWIDTH 9 0
BBX 9 18 0 -4
BITMAP
0000
0000
0000
0000
4000
F800
4000
5E00
6100
4100
4100
4100
4100
4100
0000
0000
0000
0000
ENDCHAR
STARTCHAR Itilde
ENCODING 296
SWIDTH 540 0
DWIDTH 9 0
BBX 9 18 0 -4
BITMAP
0000
1A00
2C00
0000
3E00
0800
0800
0800
0800
0800
0800
0800
0800
3E00
0000
0000
0000
0000
ENDCHAR
STARTCHAR itilde
ENCODING 297
SWIDTH 540 0
DWIDTH 9 0
BBX 9 18 0 -4
BITMAP
0000
0000
0000
0000
1A00
2C00
0000
3800
0800
0800
0800
0800
0800
3E00
0000
0000
0000
0000
ENDCHAR
STARTCHAR Imacron
ENCODING 298
SWIDTH 540 0
DWIDTH 9 0
BBX 9 18 0 -4
BITMAP
0000
0000
3E00
0000
3E00
0800
0800
0800
0800
0800
0800
0800
0800
3E00
0000
0000
0000
0000
ENDCHAR
STARTCHAR imacron
ENCODING 299
SWIDTH 540 0
DWIDTH 9 0
BBX 9 18 0 -4
BITMAP
0000
0000
0000
0000
0000
3E00
0000
3800
0800
0800
0800
0800
0800
3E00
0000
0000
0000
0000
ENDCHAR
STARTCHAR Ibreve
ENCODING 300
SWIDTH 540 0
DWIDTH 9 0
BBX 9 18 0 -4
BITMAP
0000
2200
1C00
0000
3E00
0800
0800
0800
0800
0800
0800
0800
0800
3E00
0000
0000
0000
0000
ENDCHAR
STARTCHAR ibreve
ENCODING 301
SWIDTH 540 0
DWIDTH 9 0
BBX 9 18 0 -4
BITMAP
0000
0000
0000
0000
2200
1C00
0000
3800
0800
0800
0800
0800
0800
3E00
0000
0000
0000
0000
ENDCHAR
STARTCHAR Iogonek
ENCODING 302
SWIDTH 540 0
DWIDTH 9 0
BBX 9 18 0 -4
BITMAP
0000
0000
0000
0000
3E00
0800
0800
0800
0800
0800
0800
0800
0800
3E00
0800
1000
0C00
0000
ENDCHAR
STARTCHAR iogonek
ENCODING 303
SWIDTH 540 0
DWIDTH 9 0
BBX 9 18 0 -4
BITMAP
0000
0000
0000
0000
0000
1800
0000
3800
0800
0800
0800
0800
0800
3E00
0800
1000
0C00
0000
ENDCHAR
STARTCHAR Idotaccent
ENCODING 304
SWIDTH 540 0
DWIDTH 9 0
BBX 9 18 0 -4
BITMAP
0000
0800
0800
0000
3E00
0800
0800
0800
0800
0800
0800
0800
0800
3E00
0000
0000
0000
0000
ENDCHAR
STARTCHAR dotlessi
ENCODING 305
SWIDTH 540 0
DWIDTH 9 0
BBX 9 18 0 -4
BITMAP
0000
0000
0000
0000
0000
0000
0000
3800
0800
0800
0800
0800
0800
3E00
0000
0000
0000
0000
ENDCHAR
STARTCHAR IJ
ENCODING 306
SWIDTH 540 0
DWIDTH 9 0
BBX 9 18 0 -4
BITMAP
0000
0000
0000
0000
7700
2100
2100
2100
2100
2100
2100
2100
2900
7600
0000
0000
0000
0000
ENDCHAR
STARTCHAR ij
ENCODING 307
SWIDTH 540 0
DWIDTH 9 0
BBX 9 18 0 -4
BITMAP
0000
0000
0000
0000
0000
3300
0000
7700
1100
1100
1100
1100
1100
7D00
0100
1100
0E00
0000
ENDCHAR
STARTCHAR Jcircumflex
ENCODING 308
SWIDTH 540 0
DWIDTH 9 0
BBX 9 18 0 -4
BITMAP
0400
0A00
1100
0000
1F00
0400
0400
0400
0400
0400
0400
4400
4400
3800
0000
0000
0000
0000
ENDCHAR
STARTCHAR jcircumflex
ENCODING 309
SWIDTH 540 0
DWIDTH 9 0
BBX 9 18 0 -4
BITMAP
0000
0000
0400
0A00
1100
0000
0000
0C00
0400
0400
0400
0400
0400
0400
4400
4400
3800
0000
ENDCHAR
STARTCHAR Kcommaaccent
ENCODING 310
SWIDTH 540 0
DWIDTH 9 0
BBX 9 18 0 -4
BITMAP
0000
0000
0000
0000
4100
4200
4400
4800
5000
6800
4400
4200
4100
4100
0400
1200
0C00
0000
ENDCHAR
STARTCHAR kcommaaccent
ENCODING 311
SWIDTH 540 0
DWIDTH 9 0
BBX 9 18 0 -4
BITMAP
0000
0000
0000
0000
4000
4000
4000
4200
4400
4800
5800
6400
4200
4100
0400
1200
0C00
0000
ENDCHAR
STARTCHAR kgreenlandic
ENCODING 312
SWIDTH 540 0
DWIDTH 9 0
BBX 9 18 0 -4
BITMAP
0000
0000
0000
0000
0000
0000
0000
4200
4400
4800
7000
4800
4400
4200
0000
0000
0000
0000
ENDCHAR
STARTCHAR Lacute
ENCODING 313
SWIDTH 540 0
DWIDTH 9 0
BBX 9 18 0 -4
BITMAP
0400
0800
1000
0000
4000
4000
4000
4000
4000
4000
4000
4000
4000
7F00
0000
0000
0000
0000
ENDCHAR
STARTCHAR lacute
ENCODING 314
SWIDTH 540 0
DWIDTH 9 0
BBX 9 18 0 -4
BITMAP
0400
0800
1000
0000
3800
0800
0800
0800
0800
0800
0800
0800
0800
3E00
0000
0000
0000
0000
ENDCHAR
STARTCHAR Lcommaaccent
ENCODING 315
SWIDTH 540 0
DWIDTH 9 0
BBX 9 18 0 -4
BITMAP
0000
0000
0000
0000
4000
4000
4000
4000
4000
4000
4000
4000
4000
7F00
0800
2400
1800
0000
ENDCHAR
STARTCHAR lcommaaccent
ENCODING 316
SWIDTH 540 0
DWIDTH 9 0
BBX 9 18 0 -4
BITMAP
0000
0000
0000
0000
3800
0800
0800
0800
0800
0800
0800
0800
0800
3E00
0800
2400
1800
0000
ENDCHAR
STARTCHAR Lcaron
ENCODING 317
SWIDTH 540 0
DWIDTH 9 0
BBX 9 18 0 -4
BITMAP
2200
1400
0800
0000
4000
4000
4000
4000
4000
4000
4000
4000
4000
7F00
0000
0000
0000
0000
ENDCHAR
STARTCHAR lcaron
ENCODING 318
SWIDTH 540 0
DWIDTH 9 0
BBX 9 18 0 -4
BITMAP
2200
1400
0800
0000
3800
0800
0800
0800
0800
0800
0800
0800
0800
3E00
0000
0000
0000
0000
ENDCHAR
STARTCHAR Ldot
ENCODING 319
SWIDTH 540 0
DWIDTH 9 0
BBX 9 18 0 -4
BITMAP
0000
0000
0000
0000
4000
4000
4000
4000
4C00
4000
4000
4000
4000
7F00
0000
0000
0000
0000
ENDCHAR
STARTCHAR ldot
ENCODING 320
SWIDTH 540 0
DWIDTH 9 0
BBX 9 18 0 -4
BITMAP
0000
0000
0000
0000
3800
0800
0800
0800
0B00
0800
0800
0800
0800
3E00
0000
0000
0000
0000
ENDCHAR
STARTCHAR Lslash
ENCODING 321
SWIDTH 540 0
DWIDTH 9 0
BBX 9 18 0 -4
BITMAP
0000
0000
0000
0000
2000
2000
2000
2800
3000
6000
A000
2000
2000
3F00
0000
0000
0000
0000
ENDCHAR
STARTCHAR lslash
ENCODING 322
SWIDTH 540 0
DWIDTH 9 0
BBX 9 18 0 -4
BITMAP
0000
0000
0000
0000
3800
0800
0800
0A00
0C00
1800
2800
0800
0800
3E00
0000
0000
0000
0000
ENDCHAR
STARTCHAR Nacute
ENCODING 323
SWIDTH 540 0
DWIDTH 9 0
BBX 9 18 0 -4
BITMAP
0400
0800
1000
0000
4100
4100
6100
5100
4900
4500
4300
4100
4100
4100
0000
0000
0000
0000
ENDCHAR
STARTCHAR nacute
ENCODING 324
SWIDTH 540 0
DWIDTH 9 0
BBX 9 18 0 -4
BITMAP
0000
0000
0000
0400
0800
1000
0000
5E00
6100
4100
4100
4100
4100
4100
0000
0000
0000
0000
ENDCHAR
STARTCHAR Ncommaaccent
ENCODING 325
SWIDTH 540 0
DWIDTH 9 0
BBX 9 18 0 -4
BITMAP
0000
0000
0000
0000
4100
4100
6100
5100
4900
4500
4300
4100
4100
4100
0800
2400
1800
0000
ENDCHAR
STARTCHAR ncommaaccent
ENCODING 326
SWIDTH 540 0
DWIDTH 9 0
BBX 9 18 0 -4
BITMAP
0000
0000
0000
0000
0000
0000
0000
5E00
6100
4100
4100
4100
4100
4100
0800
2400
1800
0000
ENDCHAR
STARTCHAR Ncaron
ENCODING 327
SWIDTH 540 0
DWIDTH 9 0
BBX 9 18 0 -4
BITMAP
2200
1400
0800
0000
4100
4100
6100
5100
4900
4500
4300
4100
4100
4100
0000
0000
0000
0000
ENDCHAR
STARTCHAR ncaron
ENCODING 328
SWIDTH 540 0
DWIDTH 9 0
BBX 9 18 0 -4
BITMAP
0000
0000
0000
2200
1400
0800
0000
5E00
6100
4100
4100
4100
4100
4100
0000
0000
0000
0000
ENDCHAR
STARTCHAR napostrophe
ENCODING 329
SWIDTH 540 0
DWIDTH 9 0
BBX 9 18 0 -4
BITMAP
0000
0000
0000
6000
2000
4000
0000
2E00
3100
2100
2100
2100
2100
2100
0000
0000
0000
0000
ENDCHAR
STARTCHAR Eng
ENCODING 330
SWIDTH 540 0
DWIDTH 9 0
BBX 9 18 0 -4
BITMAP
0000
0000
0000
0000
4100
4100
6100
5100
4900
4500
4300
4100
4100
4100
0100
1100
0E00
0000
ENDCHAR
STARTCHAR eng
ENCODING 331
SWIDTH 540 0
DWIDTH 9 0
BBX 9 18 0 -4
BITMAP
0000
0000
0000
0000
0000
0000
0000
5E00
6100
4100
4100
4100
4100
4100
0100
1100
0E00
0000
ENDCHAR
STARTCHAR Omacron
ENCODING 332
SWIDTH 540 0
DWIDTH 9 0
BBX 9 18 0 -4
BITMAP
0000
0000
3E00
0000
3E00
4100
4100
4100
4100
4100
4100
4100
4100
3E00
0000
0000
0000
0000
ENDCHAR
STARTCHAR omacron
ENCODING 333
SWIDTH 540 0
DWIDTH 9 0
BBX 9 18 0 -4
BITMAP
0000
0000
0000
0000
0000
3E00
0000
3E00
4100
4100
4100
4100
4100
3E00
0000
0000
0000
0000
ENDCHAR
STARTCHAR Obreve
ENCODING 334
SWIDTH 540 0
DWIDTH 9 0
BBX 9 18 0 -4
BITMAP
0000
2200
1C00
0000
3E00
4100
4100
4100
4100
4100
4100
4100
4100
3E00
0000
0000
0000
0000
ENDCHAR
STARTCHAR obreve
ENCODING 335
SWIDTH 540 0
DWIDTH 9 0
BBX 9 18 0 -4
BITMAP
0000
0000
0000
0000
2200
1C00
0000
3E00
4100
4100
4100
4100
4100
3E00
0000
0000
0000
0000
ENDCHAR
STARTCHAR Ohungarumlaut
ENCODING 336
SWIDTH 540 0
DWIDTH 9 0
BBX 9 18 0 -4
BITMAP
0900
1200
2400
0000
3E00
4100
4100
4100
4100
4100
4100
4100
4100
3E00
0000
0000
0000
0000
ENDCHAR
STARTCHAR ohungarumlaut
ENCODING 337
SWIDTH 540 0
DWIDTH 9 0
BBX 9 18 0 -4
BITMAP
0000
0000
0000
0900
1200
2400
0000
3E00
4100
4100
4100
4100
4100
3E00
0000
0000
0000
0000
ENDCHAR
STARTCHAR OE
ENCODING 338
SWIDTH 540 0
DWIDTH 9 0
BBX 9 18 0 -4
BITMAP
0000
0000
0000
0000
3F00
4800
4800
4800
4E00
4800
4800
4800
4800
3F00
0000
0000
0000
0000
ENDCHAR
STARTCHAR oe
ENCODING 339
SWIDTH 540 0
DWIDTH 9 0
BBX 9 18 0 -4
BITMAP
0000
0000
0000
0000
0000
0000
0000
3600
4900
4900
4F00
4800
4900
3600
0000
0000
0000
0000
ENDCHAR
STARTCHAR Racute
ENCODING 340
SWIDTH 540 0
DWIDTH 9 0
BBX 9 18 0 -4
BITMAP
0400
0800
1000
0000
7C00
4200
4100
4100
4200
7C00
4800
4400
4200
4100
0000
0000
0000
0000
ENDCHAR
STARTCHAR racute
ENCODING 341
SWIDTH 540 0
DWIDTH 9 0
BBX 9 18 0 -4
BITMAP
0000
0000
0000
0400
0800
1000
0000
4E00
3100
2100
2000
2000
2000
2000
0000
0000
0000
0000
ENDCHAR
STARTCHAR Rcommaaccent
ENCODING 342
SWIDTH 540 0
DWIDTH 9 0
BBX 9 18 0 -4
BITMAP
0000
0000
0000
0000
7C00
4200
4100
4100
4200
7C00
4800
4400
4200
4100
0800
2400
1800
0000
ENDCHAR
STARTCHAR rcommaaccent
ENCODING 343
SWIDTH 540 0
DWIDTH 9 0
BBX 9 18 0 -4
BITMAP
0000
0000
0000
0000
0000
0000
0000
4E00
3100
2100
2000
2000
2000
2000
0800
2400
1800
0000
ENDCHAR
STARTCHAR Rcaron
ENCODING 344
SWIDTH 540 0
DWIDTH 9 0
BBX 9 18 0 -4
BITMAP
4400
2800
1000
0000
7C00
4200
4100
4100
4200
7C00
4800
4400
4200
4100
0000
0000
0000
0000
ENDCHAR
STARTCHAR rcaron
ENCODING 345
SWIDTH 540 0
DWIDTH 9 0
BBX 9 18 0 -4
BITMAP
0000
0000
0000
4400
2800
1000
0000
4E00
3100
2100
2000
2000
2000
2000
0000
0000
0000
0000
ENDCHAR
STARTCHAR Sacute
ENCODING 346
SWIDTH 540 0
DWIDTH 9 0
BBX 9 18 0 -4
BITMAP
0400
0800
1000
0000
3E00
4100
4000
4000
3E00
0100
0100
0100
4100
3E00
0000
0000
0000
0000
ENDCHAR
STARTCHAR sacute
ENCODING 347
SWIDTH 540 0
DWIDTH 9 0
BBX 9 18 0 -4
BITMAP
0000
0000
0000
0400
0800
1000
0000
3E00
4100
4000
3E00
0100
4100
3E00
0000
0000
0000
0000
ENDCHAR
STARTCHAR Scircumflex
ENCODING 348
SWIDTH 540 0
DWIDTH 9 0
BBX 9 18 0 -4
BITMAP
0800
1400
2200
0000
3E00
4100
4000
4000
3E00
0100
0100
0100
4100
3E00
0000
0000
0000
0000
ENDCHAR
STARTCHAR scircumflex
ENCODING 349
SWIDTH 540 0
DWIDTH 9 0
BBX 9 18 0 -4
BITMAP
0000
0000
0000
0800
1400
2200
0000
3E00
4100
4000
3E00
0100
4100
3E00
0000
0000
0000
0000
ENDCHAR
STARTCHAR Scedilla
ENCODING 350
SWIDTH 540 0
DWIDTH 9 0
BBX 9 18 0 -4
BITMAP
0000
0000
0000
0000
3E00
4100
4000
4000
3E00
0100
0100
0100
4100
3E00
0800
2400
1800
0000
ENDCHAR
STARTCHAR scedilla
ENCODING 351
SWIDTH 540 0
DWIDTH 9 0
BBX 9 18 0 -4
BITMAP
0000
0000
0000
0000
0000
0000
0000
3E00
4100
4000
3E00
0100
4100
3E00
0800
2400
1800
0000
ENDCHAR
STARTCHAR Scaron
ENCODING 352
SWIDTH 540 0
DWIDTH 9 0
BBX 9 18 0 -4
BITMAP
2200
1400
0800
0000
3E00
4100
4000
4000
3E00
0100
0100
0100
4100
3E00
0000
0000
0000
0000
ENDCHAR
STARTCHAR scaron
ENCODING 353
SWIDTH 540 0
DWIDTH 9 0
BBX 9 18 0 -4
BITMAP
0000
0000
0000
2200
1400
0800
0000
3E00
4100
4000
3E00
0100
4100
3E00
0000
0000
0000
0000
ENDCHAR
STARTCHAR Tcommaaccent
ENCODING 354
SWIDTH 540 0
DWIDTH 9 0
BBX 9 18 0 -4
BITMAP
0000
0000
0000
0000
7F00
0800
0800
0800
0800
0800
0800
0800
0800
0800
0400
1200
0C00
0000
ENDCHAR
STARTCHAR tcommaaccent
ENCODING 355
SWIDTH 540 0
DWIDTH 9 0
BBX 9 18 0 -4
BITMAP
0000
0000
0000
0000
0000
1000
1000
7E00
1000
1000
1000
1000
1100
0E00
0400
1200
0C00
0000
ENDCHAR
STARTCHAR Tcaron
ENCODING 356
SWIDTH 540 0
DWIDTH 9 0
BBX 9 18 0 -4
BITMAP
2200
1400
0800
0000
7F00
0800
0800
0800
0800
0800
0800
0800
0800
0800
0000
0000
0000
0000
ENDCHAR
STARTCHAR tcaron
ENCODING 357
SWIDTH 540 0
DWIDTH 9 0
BBX 9 18 0 -4
BITMAP
0000
4400
2800
1000
0000
1000
1000
7E00
1000
1000
1000
1000
1100
0E00
0000
0000
0000
0000
ENDCHAR
STARTCHAR Tbar
ENCODING 358
SWIDTH 540 0
DWIDTH 9 0
BBX 9 18 0 -4
BITMAP
0000
0000
0000
0000
7F00
0800
0800
3E00
0800
0800
0800
0800
0800
0800
0000
0000
0000
0000
ENDCHAR
STARTCHAR tbar
ENCODING 359
SWIDTH 540 0
DWIDTH 9 0
BBX 9 18 0 -4
BITMAP
0000
0000
0000
0000
0000
1000
1000
7E00
1000
7E00
1000
1000
1100
0E00
0000
0000
0000
0000
ENDCHAR
STARTCHAR Utilde
ENCODING 360
SWIDTH 540 0
DWIDTH 9 0
BBX 9 18 0 -4
BITMAP
0000
1A00
2C00
0000
4100
4100
4100
4100
4100
4100
4100
4100
2200
1C00
0000
0000
0000
0000
ENDCHAR
STARTCHAR utilde
ENCODING 361
SWIDTH 540 0
DWIDTH 9 0
BBX 9 18 0 -4
BITMAP
0000
0000
0000
0000
1A00
2C00
0000
4100
4100
4100
4100
4100
4300
3D00
0000
0000
0000
0000
ENDCHAR
STARTCHAR Umacron
ENCODING 362
SWIDTH 540 0
DWIDTH 9 0
BBX 9 18 0 -4
BITMAP
0000
0000
3E00
0000
4100
4100
4100
4100
4100
4100
4100
4100
2200
1C00
0000
0000
0000
0000
ENDCHAR
STARTCHAR umacron
ENCODING 363
SWIDTH 540 0
DWIDTH 9 0
BBX 9 18 0 -4
BITMAP
0000
0000
0000
0000
0000
3E00
0000
4100
4100
4100
4100
4100
4300
3D00
0000
0000
0000
0000
ENDCHAR
STARTCHAR Ubreve
ENCODING 364
SWIDTH 540 0
DWIDTH 9 0
BBX 9 18 0 -4
BITMAP
0000
2200
1C00
0000
4100
4100
4100
4100
4100
4100
4100
4100
2200
1C00
0000
0000
0000
0000
ENDCHAR
STARTCHAR ubreve
ENCODING 365
SWIDTH 540 0
DWIDTH 9 0
BBX 9 18 0 -4
BITMAP
0000
0000
0000
0000
2200
1C00
0000
4100
4100
4100
4100
4100
4300
3D00
0000
0000
0000
0000
ENDCHAR
STARTCHAR Uring
ENCODING 366
SWIDTH 540 0
DWIDTH 9 0
BBX 9 18 0 -4
BITMAP
0800
1400
1400
0800
4100
4100
4100
4100
4100
4100
4100
4100
2200
1C00
0000
0000
0000
0000
ENDCHAR
STARTCHAR uring
ENCODING 367
SWIDTH 540 0
DWIDTH 9 0
BBX 9 18 0 -4
BITMAP
0000
0000
0000
0800
1400
1400
0800
4100
4100
4100
4100
4100
4300
3D00
0000
0000
0000
0000
ENDCHAR
STARTCHAR Uhungarumlaut
ENCODING 368
SWIDTH 540 0
DWIDTH 9 0
BBX 9 18 0 -4
BITMAP
0900
1200
2400
0000
4100
4100
4100
4100
4100
4100
4100
4100
2200
1C00
0000
0000
0000
0000
ENDCHAR
STARTCHAR uhungarumlaut
ENCODING 369
SWIDTH 540 0
DWIDTH 9 0
BBX 9 18 0 -4
BITMAP
0000
0000
0000
0900
1200
2400
0000
4100
4100
4100
4100
4100
4300
3D00
0000
0000
0000
0000
ENDCHAR
STARTCHAR Uogonek
ENCODING 370
SWIDTH 540 0
DWIDTH 9 0
BBX 9 18 0 -4
BITMAP
0000
0000
0000
0000
4100
4100
4100
4100
4100
4100
4100
4100
2200
1C00
0800
1000
0E00
0000
ENDCHAR
STARTCHAR uogonek
ENCODING 371
SWIDTH 540 0
DWIDTH 9 0
BBX 9 18 0 -4
BITMAP
0000
0000
0000
0000
0000
0000
0000
4100
4100
4100
4100
4100
4300
3D00
1000
2000
1C00
0000
ENDCHAR
STARTCHAR Wcircumflex
ENCODING 372
SWIDTH 540 0
DWIDTH 9 0
BBX 9 18 0 -4
BITMAP
0800
1400
2200
0000
4100
4100
4100
4100
4900
4900
4900
4900
5500
2200
0000
0000
0000
0000
ENDCHAR
STARTCHAR wcircumflex
ENCODING 373
SWIDTH 540 0
DWIDTH 9 0
BBX 9 18 0 -4
BITMAP
0000
0000
0000
0800
1400
2200
0000
4100
4100
4900
4900
4900
5500
2200
0000
0000
0000
0000
ENDCHAR
STARTCHAR Ycircumflex
ENCODING 374
SWIDTH 540 0
DWIDTH 9 0
BBX 9 18 0 -4
BITMAP
0800
1400
2200
0000
4100
4100
2200
1400
0800
0800
0800
0800
0800
0800
0000
0000
0000
0000
ENDCHAR
STARTCHAR ycircumflex
ENCODING 375
SWIDTH 540 0
DWIDTH 9 0
BBX 9 18 0 -4
BITMAP
0000
0000
0000
0400
0A00
1100
0000
2100
2100
1200
1200
1200
0C00
0C00
0800
4800
3000
0000
ENDCHAR
STARTCHAR Ydieresis
ENCODING 376
SWIDTH 540 0
DWIDTH 9 0
BBX 9 18 0 -4
BITMAP
0000
1400
1400
0000
4100
4100
2200
1400
0800
0800
0800
0800
0800
0800
0000
0000
0000
0000
ENDCHAR
STARTCHAR Zacute
ENCODING 377
SWIDTH 540 0
DWIDTH 9 0
BBX 9 18 0 -4
BITMAP
0400
0800
1000
0000
7F00
0100
0200
0400
0800
1000
2000
4000
4000
7F00
0000
0000
0000
0000
ENDCHAR
STARTCHAR zacute
ENCODING 378
SWIDTH 540 0
DWIDTH 9 0
BBX 9 18 0 -4
BITMAP
0000
0000
0000
0400
0800
1000
0000
7F00
0200
0400
0800
1000
2000
7F00
0000
0000
0000
0000
ENDCHAR
STARTCHAR Zdotaccent
ENCODING 379
SWIDTH 540 0
DWIDTH 9 0
BBX 9 18 0 -4
BITMAP
0000
0800
0800
0000
7F00
0100
0200
0400
0800
1000
2000
4000
4000
7F00
0000
0000
0000
0000
ENDCHAR
STARTCHAR zdotaccent
ENCODING 380
SWIDTH 540 0
DWIDTH 9 0
BBX 9 18 0 -4
BITMAP
0000
0000
0000
0000
0800
0800
0000
7F00
0200
0400
0800
1000
2000
7F00
0000
0000
0000
0000
ENDCHAR
STARTCHAR Zcaron
ENCODING 381
SWIDTH 540 0
DWIDTH 9 0
BBX 9 18 0 -4
BITMAP
2200
1400
0800
0000
7F00
0100
0200
0400
0800
1000
2000
4000
4000
7F00
0000
0000
0000
0000
ENDCHAR
STARTCHAR zcaron
ENCODING 382
SWIDTH 540 0
DWIDTH 9 0
BBX 9 18 0 -4
BITMAP
0000
0000
0000
2200
1400
0800
0000
7F00
0200
0400
0800
1000
2000
7F00
0000
0000
0000
0000
ENDCHAR
STARTCHAR longs
ENCODING 383
SWIDTH 540 0
DWIDTH 9 0
BBX 9 18 0 -4
BITMAP
0000
0000
0000
0000
0C00
1200
1000
1000
1000
3000
1000
1000
1000
1000
0000
0000
0000
0000
ENDCHAR
STARTCHAR uni0180
ENCODING 384
SWIDTH 540 0
DWIDTH 9 0
BBX 9 18 0 -4
BITMAP
0000
0000
0000
0000
4000
F800
4000
5E00
6100
4100
4100
4100
6100
5E00
0000
0000
0000
0000
ENDCHAR
STARTCHAR uni0181
ENCODING 385
SWIDTH 540 0
DWIDTH 9 0
BBX 9 18 0 -4
BITMAP
0000
0000
0000
0000
7C00
A200
A100
2200
3C00
2200
2100
2100
2200
3C00
0000
0000
0000
0000
ENDCHAR
STARTCHAR uni0182
ENCODING 386
SWIDTH 540 0
DWIDTH 9 0
BBX 9 18 0 -4
BITMAP
0000
0000
0000
0000
7E00
4000
4000
4000
7C00
4200
4100
4100
4200
7C00
0000
0000
0000
0000
ENDCHAR
STARTCHAR uni0183
ENCODING 387
SWIDTH 540 0
DWIDTH 9 0
BBX 9 18 0 -4
BITMAP
0000
0000
0000
0000
7C00
4000
4000
5C00
6200
4200
4200
4200
6200
5C00
0000
0000
0000
0000
ENDCHAR
STARTCHAR uni0184
ENCODING 388
SWIDTH 540 0
DWIDTH 9 0
BBX 9 18 0 -4
BITMAP
0000
0000
0000
0000
4000
C000
C000
C000
7C00
4200
4100
4100
4200
7C00
0000
0000
0000
0000
ENDCHAR
STARTCHAR uni0185
ENCODING 389
SWIDTH 540 0
DWIDTH 9 0
BBX 9 18 0 -4
BITMAP
0000
0000
0000
0000
2000
6000
E000
6E00
3100
2100
2100
2100
3100
2E00
0000
0000
0000
0000
ENDCHAR
STARTCHAR uni0186
ENCODING 390
SWIDTH 540 0
DWIDTH 9 0
BBX 9 18 0 -4
BITMAP
0000
0000
0000
0000
3C00
4200
0100
0100
0100
0100
0100
0100
4200
3C00
0000
0000
0000
0000
ENDCHAR
STARTCHAR uni0187
ENCODING 391
SWIDTH 540 0
DWIDTH 9 0
BBX 9 18 0 -4
BITMAP
0000
0000
0000
0180
1E00
2200
4000
4000
4000
4000
4000
4000
2200
1C00
0000
0000
0000
0000
ENDCHAR
STARTCHAR uni0188
ENCODING 392
SWIDTH 540 0
DWIDTH 9 0
BBX 9 18 0 -4
BITMAP
0000
0000
0000
0000
0000
0000
0180
3E00
4200
4000
4000
4000
4200
3C00
0000
0000
0000
0000
ENDCHAR
STARTCHAR uni0189
ENCODING 393
SWIDTH 540 0
DWIDTH 9 0
BBX 9 18 0 -4
BITMAP
0000
0000
0000
0000
7C00
4200
4100
4100
F100
4100
4100
4100
4200
7C00
0000
0000
0000
0000
ENDCHAR
STARTCHAR uni018A
ENCODING 394
SWIDTH 540 0
DWIDTH 9 0
BBX 9 18 0 -4
BITMAP
0000
0000
0000
0000
7C00
A200
A100
2100
2100
2100
2100
2100
2200
3C00
0000
0000
0000
0000
ENDCHAR
STARTCHAR uni018B
ENCODING 395
SWIDTH 540 0
DWIDTH 9 0
BBX 9 18 0 -4
BITMAP
0000
0000
0000
0000
3F00
0100
0100
0100
1F00
2100
4100
4100
2100
1F00
0000
0000
0000
0000
ENDCHAR
STARTCHAR uni018C
ENCODING 396
SWIDTH 540 0
DWIDTH 9 0
BBX 9 18 0 -4
BITMAP
0000
0000
0000
0000
3E00
0200
0200
3A00
4600
4200
4200
4200
4600
3A00
0000
0000
0000
0000
ENDCHAR
STARTCHAR uni018D
ENCODING 397
SWIDTH 540 0
DWIDTH 9 0
BBX 9 18 0 -4
BITMAP
0000
0000
0000
0000
0000
0000
0000
1C00
2200
4100
4100
4100
2200
1C00
0400
2200
1C00
0000
ENDCHAR
STARTCHAR uni018E
ENCODING 398
SWIDTH 540 0
DWIDTH 9 0
BBX 9 18 0 -4
BITMAP
0000
0000
0000
0000
7F00
0100
0100
0100
1F00
0100
0100
0100
0100
7F00
0000
0000
0000
0000
ENDCHAR
STARTCHAR uni018F
ENCODING 399
SWIDTH 540 0
DWIDTH 9 0
BBX 9 18 0 -4
BITMAP
0000
0000
0000
0000
1C00
2200
4100
0100
0100
7F00
4100
4100
2200
1C00
0000
0000
0000
0000
ENDCHAR
STARTCHAR uni0190
ENCODING 400
SWIDTH 540 0
DWIDTH 9 0
BBX 9 18 0 -4
BITMAP
0000
0000
0000
0000
3E00
4100
4000
4000
3C00
4000
4000
4000
4100
3E00
0000
0000
0000
0000
ENDCHAR
STARTCHAR uni0191
ENCODING 401
SWIDTH 540 0
DWIDTH 9 0
BBX 9 18 0 -4
BITMAP
0000
0000
0000
0000
3F00
2000
2000
2000
3C00
2000
2000
2000
2000
A000
A000
4000
0000
0000
ENDCHAR
STARTCHAR florin
ENCODING 402
SWIDTH 540 0
DWIDTH 9 0
BBX 9 18 0 -4
BITMAP
0000
0000
0000
0000
0600
0900
0800
0800
0800
3E00
0800
0800
0800
0800
4800
3000
0000
0000
ENDCHAR
STARTCHAR uni0193
ENCODING 403
SWIDTH 540 0
DWIDTH 9 0
BBX 9 18 0 -4
BITMAP
0000
0000
0080
0100
1E00
2200
4000
4000
4000
4700
4100
4100
2200
1C00
0000
0000
0000
0000
ENDCHAR
STARTCHAR uni0194
ENCODING 404
SWIDTH 540 0
DWIDTH 9 0
BBX 9 18 0 -4
BITMAP
0000
0000
0000
0000
4100
4100
2200
2200
1400
1400
0800
1400
1400
0800
0000
0000
0000
0000
ENDCHAR
STARTCHAR uni0195
ENCODING 405
SWIDTH 540 0
DWIDTH 9 0
BBX 9 18 0 -4
BITMAP
0000
0000
0000
0000
4000
4000
4000
5100
6900
4900
4900
4900
4900
4600
0000
0000
0000
0000
ENDCHAR
STARTCHAR uni0196
ENCODING 406
SWIDTH 540 0
DWIDTH 9 0
BBX 9 18 0 -4
BITMAP
0000
0000
0000
0000
3800
0800
0800
0800
0800
0800
0800
0800
0800
0600
0000
0000
0000
0000
ENDCHAR
STARTCHAR uni0197
ENCODING 407
SWIDTH 540 0
DWIDTH 9 0
BBX 9 18 0 -4
BITMAP
0000
0000
0000
0000
3E00
0800
0800
0800
3E00
0800
0800
0800
0800
3E00
0000
0000
0000
0000
ENDCHAR
STARTCHAR uni0198
ENCODING 408
SWIDTH 540 0
DWIDTH 9 0
BBX 9 18 0 -4
BITMAP
0000
0000
0000
0000
4300
4480
4800
5000
6000
5000
4800
4400
4200
4100
0000
0000
0000
0000
ENDCHAR
STARTCHAR uni0199
ENCODING 409
SWIDTH 540 0
DWIDTH 9 0
BBX 9 18 0 -4
BITMAP
0000
0000
0000
3000
4800
4000
4000
4200
4400
4800
5800
6400
4200
4100
0000
0000
0000
0000
ENDCHAR
STARTCHAR uni019A
ENCODING 410
SWIDTH 540 0
DWIDTH 9 0
BBX 9 18 0 -4
BITMAP
0000
0000
0000
0000
3800
0800
0800
0800
3E00
0800
0800
0800
0800
3E00
0000
0000
0000
0000
ENDCHAR
STARTCHAR uni019B
ENCODING 411
SWIDTH 540 0
DWIDTH 9 0
BBX 9 18 0 -4
BITMAP
0000
0000
0000
0000
2400
1800
1000
2800
4800
1400
1400
2200
2200
2200
0000
0000
0000
0000
ENDCHAR
STARTCHAR uni019C
ENCODING 412
SWIDTH 540 0
DWIDTH 9 0
BBX 9 18 0 -4
BITMAP
0000
0000
0000
0000
4900
4900
4900
4900
4900
4900
4900
4900
4900
3700
0000
0000
0000
0000
ENDCHAR
STARTCHAR uni019D
ENCODING 413
SWIDTH 540 0
DWIDTH 9 0
BBX 9 18 0 -4
BITMAP
0000
0000
0000
0000
2100
2100
2100
3100
2900
2500
2300
2100
2100
2100
A000
4000
0000
0000
ENDCHAR
STARTCHAR uni019E
ENCODING 414
SWIDTH 540 0
DWIDTH 9 0
BBX 9 18 0 -4
BITMAP
0000
0000
0000
0000
0000
0000
0000
5E00
6100
4100
4100
4100
4100
4100
0100
0100
0100
0000
ENDCHAR
STARTCHAR uni019F
ENCODING 415
SWIDTH 540 0
DWIDTH 9 0
BBX 9 18 0 -4
BITMAP
0000
0000
0000
0000
3E00
4100
4100
4100
7F00
4100
4100
4100
4100
3E00
0000
0000
0000
0000
ENDCHAR
STARTCHAR Ohorn
ENCODING 416
SWIDTH 540 0
DWIDTH 9 0
BBX 9 18 0 -4
BITMAP
0000
0000
0080
0100
3E00
4100
4100
4100
4100
4100
4100
4100
4100
3E00
0000
0000
0000
0000
ENDCHAR
STARTCHAR ohorn
ENCODING 417
SWIDTH 540 0
DWIDTH 9 0
BBX 9 18 0 -4
BITMAP
0000
0000
0000
0000
0000
0100
0200
3E00
4100
4100
4100
4100
4100
3E00
0000
0000
0000
0000
ENDCHAR
STARTCHAR uni01A2
ENCODING 418
SWIDTH 540 0
DWIDTH 9 0
BBX 9 18 0 -4
BITMAP
0000
0000
0000
0000
3600
4900
4900
4900
4900
4900
4900
4900
4900
3100
0000
0000
0000
0000
ENDCHAR
STARTCHAR uni01A3
ENCODING 419
SWIDTH 540 0
DWIDTH 9 0
BBX 9 18 0 -4
BITMAP
0000
0000
0000
0000
0000
0000
0000
3600
4900
4900
4900
4900
4900
3100
0100
0100
0000
0000
ENDCHAR
STARTCHAR uni01A4
ENCODING 420
SWIDTH 540 0
DWIDTH 9 0
BBX 9 18 0 -4
BITMAP
0000
0000
0000
0000
7C00
A200
A100
2100
2200
3C00
2000
2000
2000
2000
0000
0000
0000
0000
ENDCHAR
STARTCHAR uni01A5
ENCODING 421
SWIDTH 540 0
DWIDTH 9 0
BBX 9 18 0 -4
BITMAP
0000
0000
0000
0000
0000
3000
4000
5C00
6200
4100
4100
4100
6200
5C00
4000
4000
4000
0000
ENDCHAR
STARTCHAR uni01A6
ENCODING 422
SWIDTH 540 0
DWIDTH 9 0
BBX 9 18 0 -4
BITMAP
0000
0000
0000
0000
4000
4000
7C00
4200
4100
4100
4200
7C00
4800
4400
0400
0300
0000
0000
ENDCHAR
STARTCHAR uni01A7
ENCODING 423
SWIDTH 540 0
DWIDTH 9 0
BBX 9 18 0 -4
BITMAP
0000
0000
0000
0000
3E00
4100
0100
0100
3E00
4000
4000
4000
4100
3E00
0000
0000
0000
0000
ENDCHAR
STARTCHAR uni01A8
ENCODING 424
SWIDTH 540 0
DWIDTH 9 0
BBX 9 18 0 -4
BITMAP
0000
0000
0000
0000
0000
0000
0000
3E00
4100
0100
3E00
4000
4100
3E00
0000
0000
0000
0000
ENDCHAR
STARTCHAR uni01A9
ENCODING 425
SWIDTH 540 0
DWIDTH 9 0
BBX 9 18 0 -4
BITMAP
0000
0000
0000
0000
7F00
2000
1000
0800
0400
0400
0800
1000
2000
7F00
0000
0000
0000
0000
ENDCHAR
STARTCHAR uni01AA
ENCODING 426
SWIDTH 540 0
DWIDTH 9 0
BBX 9 18 0 -4
BITMAP
0000
0000
0000
0000
3000
4800
4800
3C00
0800
0800
0800
0800
0800
0800
0900
0600
0000
0000
ENDCHAR
STARTCHAR uni01AB
ENCODING 427
SWIDTH 540 0
DWIDTH 9 0
BBX 9 18 0 -4
BITMAP
0000
0000
0000
0000
0000
1000
1000
7E00
1000
1000
1000
1000
1100
0F00
0100
0900
0600
0000
ENDCHAR
STARTCHAR uni01AC
ENCODING 428
SWIDTH 540 0
DWIDTH 9 0
BBX 9 18 0 -4
BITMAP
0000
0000
0000
0000
3F00
4800
4800
0800
0800
0800
0800
0800
0800
0800
0000
0000
0000
0000
ENDCHAR
STARTCHAR uni01AD
ENCODING 429
SWIDTH 540 0
DWIDTH 9 0
BBX 9 18 0 -4
BITMAP
0000
0000
0000
0E00
1100
1000
1000
7E00
1000
1000
1000
1000
1100
0E00
0000
0000
0000
0000
ENDCHAR
STARTCHAR uni01AE
ENCODING 430
SWIDTH 540 0
DWIDTH 9 0
BBX 9 18 0 -4
BITMAP
0000
0000
0000
0000
7F00
0800
0800
0800
0800
0800
0800
0800
0800
0800
0800
0600
0000
0000
ENDCHAR
STARTCHAR Uhorn
ENCODING 431
SWIDTH 540 0
DWIDTH 9 0
BBX 9 18 0 -4
BITMAP
0000
0300
0300
0100
4200
4200
4200
4200
4200
4200
4200
4200
2400
1800
0000
0000
0000
0000
ENDCHAR
STARTCHAR uhorn
ENCODING 432
SWIDTH 540 0
DWIDTH 9 0
BBX 9 18 0 -4
BITMAP
0000
0000
0000
0000
0300
0300
0100
4200
4200
4200
4200
4200
2600
1A00
0000
0000
0000
0000
ENDCHAR
STARTCHAR uni01B1
ENCODING 433
SWIDTH 540 0
DWIDTH 9 0
BBX 9 18 0 -4
BITMAP
0000
0000
0000
0000
2200
2200
4100
4100
4100
4100
4100
4100
2200
1C00
0000
0000
0000
0000
ENDCHAR
STARTCHAR uni01B2
ENCODING 434
SWIDTH 540 0
DWIDTH 9 0
BBX 9 18 0 -4
BITMAP
0000
0000
0000
0000
4200
4200
4100
4100
4100
4100
4100
4100
2200
1C00
0000
0000
0000
0000
ENDCHAR
STARTCHAR uni01B3
ENCODING 435
SWIDTH 540 0
DWIDTH 9 0
BBX 9 18 0 -4
BITMAP
0000
0000
0000
0000
6100
1100
1200
1400
0800
0800
0800
0800
0800
0800
0000
0000
0000
0000
ENDCHAR
STARTCHAR uni01B4
ENCODING 436
SWIDTH 540 0
DWIDTH 9 0
BBX 9 18 0 -4
BITMAP
0000
0000
0000
0000
0000
0000
0100
2280
2200
1400
1400
1400
0800
0800
0800
4800
3000
0000
ENDCHAR
STARTCHAR uni01B5
ENCODING 437
SWIDTH 540 0
DWIDTH 9 0
BBX 9 18 0 -4
BITMAP
0000
0000
0000
0000
7F00
0100
0200
0400
3E00
1000
2000
4000
4000
7F00
0000
0000
0000
0000
ENDCHAR
STARTCHAR uni01B6
ENCODING 438
SWIDTH 540 0
DWIDTH 9 0
BBX 9 18 0 -4
BITMAP
0000
0000
0000
0000
0000
0000
0000
7F00
0200
0400
3E00
1000
2000
7F00
0000
0000
0000
0000
ENDCHAR
STARTCHAR uni01B7
ENCODING 439
SWIDTH 540 0
DWIDTH 9 0
BBX 9 18 0 -4
BITMAP
0000
0000
0000
0000
7E00
0400
0800
1000
3800
0400
0200
0200
4400
3800
0000
0000
0000
0000
ENDCHAR
STARTCHAR uni01B8
ENCODING 440
SWIDTH 540 0
DWIDTH 9 0
BBX 9 18 0 -4
BITMAP
0000
0000
0000
0000
7E00
2000
1000
0800
1C00
2000
4000
4000
2200
1C00
0000
0000
0000
0000
ENDCHAR
STARTCHAR uni01B9
ENCODING 441
SWIDTH 540 0
DWIDTH 9 0
BBX 9 18 0 -4
BITMAP
0000
0000
0000
0000
0000
0000
0000
7E00
2000
1000
0800
1C00
2000
4000
4000
2200
1C00
0000
ENDCHAR
STARTCHAR uni01BA
ENCODING 442
SWIDTH 540 0
DWIDTH 9 0
BBX 9 18 0 -4
BITMAP
0000
0000
0000
0000
0000
0000
0000
7E00
0400
0800
1000
3800
0400
0900
3100
4200
3C00
0000
ENDCHAR
STARTCHAR uni01BB
ENCODING 443
SWIDTH 540 0
DWIDTH 9 0
BBX 9 18 0 -4
BITMAP
0000
0000
0000
0000
1C00
2200
4100
0100
0200
3F00
0800
1000
2000
7F00
0000
0000
0000
0000
ENDCHAR
STARTCHAR uni01BC
ENCODING 444
SWIDTH 540 0
DWIDTH 9 0
BBX 9 18 0 -4
BITMAP
0000
0000
0000
0000
7F00
4100
4000
7C00
0200
0100
0100
0100
0200
7C00
0000
0000
0000
0000
ENDCHAR
STARTCHAR uni01BD
ENCODING 445
SWIDTH 540 0
DWIDTH 9 0
BBX 9 18 0 -4
BITMAP
0000
0000
0000
0000
0000
0000
0000
3F00
2100
3C00
0200
0100
2200
1C00
0000
0000
0000
0000
ENDCHAR
STARTCHAR uni01BE
ENCODING 446
SWIDTH 540 0
DWIDTH 9 0
BBX 9 18 0 -4
BITMAP
0000
0000
0000
0000
0800
0800
3E00
0800
0C00
0200
0200
2200
2200
1C00
0000
0000
0000
0000
ENDCHAR
STARTCHAR uni01BF
ENCODING 447
SWIDTH 540 0
DWIDTH 9 0
BBX 9 18 0 -4
BITMAP
0000
0000
0000
0000
0000
0000
0000
5C00
6200
4100
4200
4400
4800
5000
6000
4000
4000
0000
ENDCHAR
STARTCHAR uni01C0
ENCODING 448
SWIDTH 540 0
DWIDTH 9 0
BBX 9 18 0 -4
BITMAP
0000
0000
0000
0000
0800
0800
0800
0800
0800
0800
0800
0800
0800
0800
0000
0000
0000
0000
ENDCHAR
STARTCHAR uni01C1
ENCODING 449
SWIDTH 540 0
DWIDTH 9 0
BBX 9 18 0 -4
BITMAP
0000
0000
0000
0000
1400
1400
1400
1400
1400
1400
1400
1400
1400
1400
0000
0000
0000
0000
ENDCHAR
STARTCHAR uni01C2
ENCODING 450
SWIDTH 540 0
DWIDTH 9 0
BBX 9 18 0 -4
BITMAP
0000
0000
0000
0000
0800
0800
0800
3E00
0800
0800
3E00
0800
0800
0800
0000
0000
0000
0000
ENDCHAR
STARTCHAR uni01C3
ENCODING 451
SWIDTH 540 0
DWIDTH 9 0
BBX 9 18 0 -4
BITMAP
0000
0000
0000
0000
0000
1C00
1C00
1C00
1C00
0800
0800
0000
1C00
0800
0000
0000
0000
0000
ENDCHAR
STARTCHAR uni01C4
ENCODING 452
SWIDTH 540 0
DWIDTH 9 0
BBX 9 18 0 -4
BITMAP
0000
0500
0200
0000
7700
5100
4900
4900
4A00
4A00
4C00
4C00
5400
6700
0000
0000
0000
0000
ENDCHAR
STARTCHAR uni01C5
ENCODING 453
SWIDTH 540 0
DWIDTH 9 0
BBX 9 18 0 -4
BITMAP
0000
0000
0000
0500
7200
5000
4800
4F00
4900
4900
4A00
4C00
5400
6700
0000
0000
0000
0000
ENDCHAR
STARTCHAR uni01C6
ENCODING 454
SWIDTH 540 0
DWIDTH 9 0
BBX 9 18 0 -4
BITMAP
0000
0000
0000
0D00
0A00
0800
0800
3F00
4900
4900
4A00
4C00
4C00
3F00
0000
0000
0000
0000
ENDCHAR
STARTCHAR uni01C7
ENCODING 455
SWIDTH 540 0
DWIDTH 9 0
BBX 9 18 0 -4
BITMAP
0000
0000
0000
0000
4380
4100
4100
4100
4100
4100
4100
4100
4500
7A00
0000
0000
0000
0000
ENDCHAR
STARTCHAR uni01C8
ENCODING 456
SWIDTH 540 0
DWIDTH 9 0
BBX 9 18 0 -4
BITMAP
0000
0000
0000
0000
4600
4000
4000
4E00
4200
4200
4200
4200
4200
7A00
0200
2200
1C00
0000
ENDCHAR
STARTCHAR uni01C9
ENCODING 457
SWIDTH 540 0
DWIDTH 9 0
BBX 9 18 0 -4
BITMAP
0000
0000
0000
0000
6600
2000
2000
2E00
2200
2200
2200
2200
2200
7200
0200
2200
1C00
0000
ENDCHAR
STARTCHAR uni01CA
ENCODING 458
SWIDTH 540 0
DWIDTH 9 0
BBX 9 18 0 -4
BITMAP
0000
0000
0000
0000
4B80
4900
4900
4900
6900
5900
4900
4900
4D00
4A00
0000
0000
0000
0000
ENDCHAR
STARTCHAR uni01CB
ENCODING 459
SWIDTH 540 0
DWIDTH 9 0
BBX 9 18 0 -4
BITMAP
0000
0000
0000
0000
4A00
4800
4800
4E00
6A00
5A00
4A00
4A00
4A00
4A00
0200
2200
1C00
0000
ENDCHAR
STARTCHAR uni01CC
ENCODING 460
SWIDTH 540 0
DWIDTH 9 0
BBX 9 18 0 -4
BITMAP
0000
0000
0000
0000
0600
0000
0000
5600
6A00
4A00
4A00
4A00
4A00
4A00
0200
2200
1C00
0000
ENDCHAR
STARTCHAR uni01CD
ENCODING 461
SWIDTH 540 0
DWIDTH 9 0
BBX 9 18 0 -4
BITMAP
2200
1400
0800
0000
0800
1400
1400
1400
2200
3E00
2200
4100
4100
4100
0000
0000
0000
0000
ENDCHAR
STARTCHAR uni01CE
ENCODING 462
SWIDTH 540 0
DWIDTH 9 0
BBX 9 18 0 -4
BITMAP
0000
0000
0000
2200
1400
0800
0000
3E00
0100
0100
3F00
4100
4300
3D00
0000
0000
0000
0000
ENDCHAR
STARTCHAR uni01CF
ENCODING 463
SWIDTH 540 0
DWIDTH 9 0
BBX 9 18 0 -4
BITMAP
2200
1400
0800
0000
3E00
0800
0800
0800
0800
0800
0800
0800
0800
3E00
0000
0000
0000
0000
ENDCHAR
STARTCHAR uni01D0
ENCODING 464
SWIDTH 540 0
DWIDTH 9 0
BBX 9 18 0 -4
BITMAP
0000
0000
0000
2200
1400
0800
0000
3800
0800
0800
0800
0800
0800
3E00
0000
0000
0000
0000
ENDCHAR
STARTCHAR uni01D1
ENCODING 465
SWIDTH 540 0
DWIDTH 9 0
BBX 9 18 0 -4
BITMAP
2200
1400
0800
0000
3E00
4100
4100
4100
4100
4100
4100
4100
4100
3E00
0000
0000
0000
0000
ENDCHAR
STARTCHAR uni01D2
ENCODING 466
SWIDTH 540 0
DWIDTH 9 0
BBX 9 18 0 -4
BITMAP
0000
0000
0000
2200
1400
0800
0000
3E00
4100
4100
4100
4100
4100
3E00
0000
0000
0000
0000
ENDCHAR
STARTCHAR uni01D3
ENCODING 467
SWIDTH 540 0
DWIDTH 9 0
BBX 9 18 0 -4
BITMAP
2200
1400
0800
0000
4100
4100
4100
4100
4100
4100
4100
4100
2200
1C00
0000
0000
0000
0000
ENDCHAR
STARTCHAR uni01D4
ENCODING 468
SWIDTH 540 0
DWIDTH 9 0
BBX 9 18 0 -4
BITMAP
0000
0000
0000
2200
1400
0800
0000
4100
4100
4100
4100
4100
4300
3D00
0000
0000
0000
0000
ENDCHAR
STARTCHAR uni01D5
ENCODING 469
SWIDTH 540 0
DWIDTH 9 0
BBX 9 18 0 -4
BITMAP
3E00
0000
1400
1400
4100
4100
4100
4100
4100
4100
4100
4100
2200
1C00
0000
0000
0000
0000
ENDCHAR
STARTCHAR uni01D6
ENCODING 470
SWIDTH 540 0
DWIDTH 9 0
BBX 9 18 0 -4
BITMAP
0000
0000
3E00
0000
1400
1400
0000
4100
4100
4100
4100
4100
4300
3D00
0000
0000
0000
0000
ENDCHAR
STARTCHAR uni01D7
ENCODING 471
SWIDTH 540 0
DWIDTH 9 0
BBX 9 18 0 -4
BITMAP
0400
0800
0000
1400
4100
4100
4100
4100
4100
4100
4100
4100
2200
1C00
0000
0000
0000
0000
ENDCHAR
STARTCHAR uni01D8
ENCODING 472
SWIDTH 540 0
DWIDTH 9 0
BBX 9 18 0 -4
BITMAP
0000
0400
0800
1000
0000
2400
0000
4100
4100
4100
4100
4100
4300
3D00
0000
0000
0000
0000
ENDCHAR
STARTCHAR uni01D9
ENCODING 473
SWIDTH 540 0
DWIDTH 9 0
BBX 9 18 0 -4
BITMAP
1400
0800
0000
1400
4100
4100
4100
4100
4100
4100
4100
4100
2200
1C00
0000
0000
0000
0000
ENDCHAR
STARTCHAR uni01DA
ENCODING 474
SWIDTH 540 0
DWIDTH 9 0
BBX 9 18 0 -4
BITMAP
0000
0000
2400
1800
0000
2400
0000
4100
4100
4100
4100
4100
4300
3D00
0000
0000
0000
0000
ENDCHAR
STARTCHAR uni01DB
ENCODING 475
SWIDTH 540 0
DWIDTH 9 0
BBX 9 18 0 -4
BITMAP
1000
0800
0000
1400
4100
4100
4100
4100
4100
4100
4100
4100
2200
1C00
0000
0000
0000
0000
ENDCHAR
STARTCHAR uni01DC
ENCODING 476
SWIDTH 540 0
DWIDTH 9 0
BBX 9 18 0 -4
BITMAP
0000
2000
1000
0800
0000
2400
0000
4100
4100
4100
4100
4100
4300
3D00
0000
0000
0000
0000
ENDCHAR
STARTCHAR uni01DD
ENCODING 477
SWIDTH 540 0
DWIDTH 9 0
BBX 9 18 0 -4
BITMAP
0000
0000
0000
0000
0000
0000
0000
3E00
4100
0100
7F00
4100
4100
3E00
0000
0000
0000
0000
ENDCHAR
STARTCHAR uni01DE
ENCODING 478
SWIDTH 540 0
DWIDTH 9 0
BBX 9 18 0 -4
BITMAP
3E00
0000
1400
0000
0800
1400
1400
1400
2200
3E00
2200
4100
4100
4100
0000
0000
0000
0000
ENDCHAR
STARTCHAR uni01DF
ENCODING 479
SWIDTH 540 0
DWIDTH 9 0
BBX 9 18 0 -4
BITMAP
0000
0000
0000
3E00
0000
1400
0000
3E00
0100
0100
3F00
4100
4300
3D00
0000
0000
0000
0000
ENDCHAR
STARTCHAR uni01E0
ENCODING 480
SWIDTH 540 0
DWIDTH 9 0
BBX 9 18 0 -4
BITMAP
3E00
0000
0800
0000
0800
1400
1400
1400
2200
3E00
2200
4100
4100
4100
0000
0000
0000
0000
ENDCHAR
STARTCHAR uni01E1
ENCODING 481
SWIDTH 540 0
DWIDTH 9 0
BBX 9 18 0 -4
BITMAP
0000
0000
0000
3E00
0000
0800
0000
3E00
0100
0100
3F00
4100
4300
3D00
0000
0000
0000
0000
ENDCHAR
STARTCHAR uni01E2
ENCODING 482
SWIDTH 540 0
DWIDTH 9 0
BBX 9 18 0 -4
BITMAP
0000
0000
1F00
0000
0F00
1400
1400
1400
2700
3C00
2400
2400
4400
4700
0000
0000
0000
0000
ENDCHAR
STARTCHAR uni01E3
ENCODING 483
SWIDTH 540 0
DWIDTH 9 0
BBX 9 18 0 -4
BITMAP
0000
0000
0000
0000
0000
3F00
0000
3600
0900
0900
3F00
4800
4900
3600
0000
0000
0000
0000
ENDCHAR
STARTCHAR uni01E4
ENCODING 484
SWIDTH 540 0
DWIDTH 9 0
BBX 9 18 0 -4
BITMAP
0000
0000
0000
0000
1C00
2200
4100
4000
4000
4700
4100
4780
2200
1C00
0000
0000
0000
0000
ENDCHAR
STARTCHAR uni01E5
ENCODING 485
SWIDTH 540 0
DWIDTH 9 0
BBX 9 18 0 -4
BITMAP
0000
0000
0000
0000
0000
0000
0000
3D00
4200
4200
4200
3C00
4000
3E00
4100
FF80
4100
3E00
ENDCHAR
STARTCHAR Gcaron
ENCODING 486
SWIDTH 540 0
DWIDTH 9 0
BBX 9 18 0 -4
BITMAP
2200
1400
0800
0000
1C00
2200
4100
4000
4000
4700
4100
4100
2200
1C00
0000
0000
0000
0000
ENDCHAR
STARTCHAR gcaron
ENCODING 487
SWIDTH 540 0
DWIDTH 9 0
BBX 9 18 0 -4
BITMAP
0000
0000
0000
2200
1400
0800
0000
3D00
4200
4200
4200
3C00
4000
3E00
4100
4100
3E00
0000
ENDCHAR
STARTCHAR uni01E8
ENCODING 488
SWIDTH 540 0
DWIDTH 9 0
BBX 9 18 0 -4
BITMAP
2200
1400
0800
0000
4100
4200
4400
4800
5000
6800
4400
4200
4100
4100
0000
0000
0000
0000
ENDCHAR
STARTCHAR uni01E9
ENCODING 489
SWIDTH 540 0
DWIDTH 9 0
BBX 9 18 0 -4
BITMAP
0000
2200
1400
0800
4000
4000
4000
4200
4400
4800
5800
6400
4200
4100
0000
0000
0000
0000
ENDCHAR
STARTCHAR uni01EA
ENCODING 490
SWIDTH 540 0
DWIDTH 9 0
BBX 9 18 0 -4
BITMAP
0000
0000
0000
0000
3E00
4100
4100
4100
4100
4100
4100
4100
4100
3E00
0800
1000
0C00
0000
ENDCHAR
STARTCHAR uni01EB
ENCODING 491
SWIDTH 540 0
DWIDTH 9 0
BBX 9 18 0 -4
BITMAP
0000
0000
0000
0000
0000
0000
0000
3E00
4100
4100
4100
4100
4100
3E00
0800
1000
0C00
0000
ENDCHAR
STARTCHAR uni01EC
ENCODING 492
SWIDTH 540 0
DWIDTH 9 0
BBX 9 18 0 -4
BITMAP
0000
0000
3E00
0000
3E00
4100
4100
4100
4100
4100
4100
4100
4100
3E00
0800
1000
0C00
0000
ENDCHAR
STARTCHAR uni01ED
ENCODING 493
SWIDTH 540 0
DWIDTH 9 0
BBX 9 18 0 -4
BITMAP
0000
0000
0000
0000
0000
3E00
0000
3E00
4100
4100
4100
4100
4100
3E00
0800
1000
0C00
0000
ENDCHAR
STARTCHAR uni01EE
ENCODING 494
SWIDTH 540 0
DWIDTH 9 0
BBX 9 18 0 -4
BITMAP
2200
1400
0800
0000
7E00
0400
0800
1000
3800
0400
0200
0200
4400
3800
0000
0000
0000
0000
ENDCHAR
STARTCHAR uni01EF
ENCODING 495
SWIDTH 540 0
DWIDTH 9 0
BBX 9 18 0 -4
BITMAP
0000
0000
0000
4400
2800
1000
0000
7E00
0400
0800
1000
3800
0400
0200
0200
4400
3800
0000
ENDCHAR
STARTCHAR uni01F0
ENCODING 496
SWIDTH 540 0
DWIDTH 9 0
BBX 9 18 0 -4
BITMAP
0000
0000
0000
0900
0600
0000
0000
0E00
0200
0200
0200
0200
0200
0200
2200
2200
1C00
0000
ENDCHAR
STARTCHAR uni01F1
ENCODING 497
SWIDTH 540 0
DWIDTH 9 0
BBX 9 18 0 -4
BITMAP
0000
0000
0000
0000
7700
5100
4900
4900
4A00
4A00
4C00
4C00
5400
6700
0000
0000
0000
0000
ENDCHAR
STARTCHAR uni01F2
ENCODING 498
SWIDTH 540 0
DWIDTH 9 0
BBX 9 18 0 -4
BITMAP
0000
0000
0000
0000
7000
5000
4800
4F00
4900
4900
4A00
4C00
5400
6700
0000
0000
0000
0000
ENDCHAR
STARTCHAR uni01F3
ENCODING 499
SWIDTH 540 0
DWIDTH 9 0
BBX 9 18 0 -4
BITMAP
0000
0000
0000
0800
0800
0800
0800
3F00
4900
4900
4A00
4C00
4C00
3F00
0000
0000
0000
0000
ENDCHAR
STARTCHAR uni01F4
ENCODING 500
SWIDTH 540 0
DWIDTH 9 0
BBX 9 18 0 -4
BITMAP
0400
0800
1000
0000
1C00
2200
4100
4000
4000
4700
4100
4100
2200
1C00
0000
0000
0000
0000
ENDCHAR
STARTCHAR uni01F5
ENCODING 501
SWIDTH 540 0
DWIDTH 9 0
BBX 9 18 0 -4
BITMAP
0000
0000
0000
0400
0800
1000
0000
3D00
4200
4200
4200
3C00
4000
3E00
4100
4100
3E00
0000
ENDCHAR
STARTCHAR uni01F6
ENCODING 502
SWIDTH 540 0
DWIDTH 9 0
BBX 9 18 0 -4
BITMAP
0000
0000
0000
0000
4800
4800
4800
4800
7900
4900
4900
4900
4900
4600
0000
0000
0000
0000
ENDCHAR
STARTCHAR uni01F7
ENCODING 503
SWIDTH 540 0
DWIDTH 9 0
BBX 9 18 0 -4
BITMAP
0000
0000
0000
0000
5C00
6200
4200
4400
4800
5000
6000
4000
4000
4000
0000
0000
0000
0000
ENDCHAR
STARTCHAR uni01F8
ENCODING 504
SWIDTH 540 0
DWIDTH 9 0
BBX 9 18 0 -4
BITMAP
1000
0800
0400
0000
4100
4100
6100
5100
4900
4500
4300
4100
4100
4100
0000
0000
0000
0000
ENDCHAR
STARTCHAR uni01F9
ENCODING 505
SWIDTH 540 0
DWIDTH 9 0
BBX 9 18 0 -4
BITMAP
0000
0000
0000
1000
0800
0400
0000
5E00
6100
4100
4100
4100
4100
4100
0000
0000
0000
0000
ENDCHAR
STARTCHAR Aringacute
ENCODING 506
SWIDTH 540 0
DWIDTH 9 0
BBX 9 18 0 -4
BITMAP
0400
0800
1000
0800
1400
0800
1400
1400
2200
2200
3E00
4100
4100
4100
0000
0000
0000
0000
ENDCHAR
STARTCHAR aringacute
ENCODING 507
SWIDTH 540 0
DWIDTH 9 0
BBX 9 18 0 -4
BITMAP
0400
0800
1000
0000
1C00
2200
1C00
3E00
0100
0100
3F00
4100
4300
3D00
0000
0000
0000
0000
ENDCHAR
STARTCHAR AEacute
ENCODING 508
SWIDTH 540 0
DWIDTH 9 0
BBX 9 18 0 -4
BITMAP
0200
0400
0800
0000
0F00
1400
1400
1400
2700
3C00
2400
4400
4400
4700
0000
0000
0000
0000
ENDCHAR
STARTCHAR aeacute
ENCODING 509
SWIDTH 540 0
DWIDTH 9 0
BBX 9 18 0 -4
BITMAP
0000
0000
0000
0200
0400
0800
0000
3600
0900
0900
3F00
4800
4900
3600
0000
0000
0000
0000
ENDCHAR
STARTCHAR Oslashacute
ENCODING 510
SWIDTH 540 0
DWIDTH 9 0
BBX 9 18 0 -4
BITMAP
0400
0800
1000
0100
3E00
4300
4500
4500
4900
4900
5100
5100
6100
3E00
4000
0000
0000
0000
ENDCHAR
STARTCHAR oslashacute
ENCODING 511
SWIDTH 540 0
DWIDTH 9 0
BBX 9 18 0 -4
BITMAP
0000
0000
0000
0400
0800
1000
0100
3E00
4500
4500
4900
5100
5100
3E00
4000
0000
0000
0000
ENDCHAR
STARTCHAR uni0200
ENCODING 512
SWIDTH 540 0
DWIDTH 9 0
BBX 9 18 0 -4
BITMAP
4400
2200
1100
0000
0800
1400
1400
1400
2200
3E00
2200
4100
4100
4100
0000
0000
0000
0000
ENDCHAR
STARTCHAR uni0201
ENCODING 513
SWIDTH 540 0
DWIDTH 9 0
BBX 9 18 0 -4
BITMAP
0000
0000
0000
4400
2200
1100
0000
3E00
0100
0100
3F00
4100
4300
3D00
0000
0000
0000
0000
ENDCHAR
STARTCHAR uni0202
ENCODING 514
SWIDTH 540 0
DWIDTH 9 0
BBX 9 18 0 -4
BITMAP
0000
1C00
2200
0000
0800
1400
1400
1400
2200
3E00
2200
4100
4100
4100
0000
0000
0000
0000
ENDCHAR
STARTCHAR uni0203
ENCODING 515
SWIDTH 540 0
DWIDTH 9 0
BBX 9 18 0 -4
BITMAP
0000
0000
0000
0000
1C00
2200
0000
3E00
0100
0100
3F00
4100
4300
3D00
0000
0000
0000
0000
ENDCHAR
STARTCHAR uni0204
ENCODING 516
SWIDTH 540 0
DWIDTH 9 0
BBX 9 18 0 -4
BITMAP
4400
2200
1100
0000
7F00
4000
4000
4000
7C00
4000
4000
4000
4000
7F00
0000
0000
0000
0000
ENDCHAR
STARTCHAR uni0205
ENCODING 517
SWIDTH 540 0
DWIDTH 9 0
BBX 9 18 0 -4
BITMAP
0000
0000
0000
4400
2200
1100
0000
3E00
4100
4100
7F00
4000
4100
3E00
0000
0000
0000
0000
ENDCHAR
STARTCHAR uni0206
ENCODING 518
SWIDTH 540 0
DWIDTH 9 0
BBX 9 18 0 -4
BITMAP
0000
1C00
2200
0000
7F00
4000
4000
4000
7C00
4000
4000
4000
4000
7F00
0000
0000
0000
0000
ENDCHAR
STARTCHAR uni0207
ENCODING 519
SWIDTH 540 0
DWIDTH 9 0
BBX 9 18 0 -4
BITMAP
0000
0000
0000
0000
1C00
2200
0000
3E00
4100
4100
7F00
4000
4100
3E00
0000
0000
0000
0000
ENDCHAR
STARTCHAR uni0208
ENCODING 520
SWIDTH 540 0
DWIDTH 9 0
BBX 9 18 0 -4
BITMAP
4800
2400
1200
0000
3E00
0800
0800
0800
0800
0800
0800
0800
0800
3E00
0000
0000
0000
0000
ENDCHAR
STARTCHAR uni0209
ENCODING 521
SWIDTH 540 0
DWIDTH 9 0
BBX 9 18 0 -4
BITMAP
0000
0000
0000
4800
2400
1200
0000
3800
0800
0800
0800
0800
0800
3E00
0000
0000
0000
0000
ENDCHAR
STARTCHAR uni020A
ENCODING 522
SWIDTH 540 0
DWIDTH 9 0
BBX 9 18 0 -4
BITMAP
0000
1C00
2200
0000
3E00
0800
0800
0800
0800
0800
0800
0800
0800
3E00
0000
0000
0000
0000
ENDCHAR
STARTCHAR uni020B
ENCODING 523
SWIDTH 540 0
DWIDTH 9 0
BBX 9 18 0 -4
BITMAP
0000
0000
0000
0000
1C00
2200
0000
3800
0800
0800
0800
0800
0800
3E00
0000
0000
0000
0000
ENDCHAR
STARTCHAR uni020C
ENCODING 524
SWIDTH 540 0
DWIDTH 9 0
BBX 9 18 0 -4
BITMAP
4800
2400
1200
0000
3E00
4100
4100
4100
4100
4100
4100
4100
4100
3E00
0000
0000
0000
0000
ENDCHAR
STARTCHAR uni020D
ENCODING 525
SWIDTH 540 0
DWIDTH 9 0
BBX 9 18 0 -4
BITMAP
0000
0000
0000
4800
2400
1200
0000
3E00
4100
4100
4100
4100
4100
3E00
0000
0000
0000
0000
ENDCHAR
STARTCHAR uni020E
ENCODING 526
SWIDTH 540 0
DWIDTH 9 0
BBX 9 18 0 -4
BITMAP
0000
1C00
2200
0000
3E00
4100
4100
4100
4100
4100
4100
4100
4100
3E00
0000
0000
0000
0000
ENDCHAR
STARTCHAR uni020F
ENCODING 527
SWIDTH 540 0
DWIDTH 9 0
BBX 9 18 0 -4
BITMAP
0000
0000
0000
0000
1C00
2200
0000
3E00
4100
4100
4100
4100
4100
3E00
0000
0000
0000
0000
ENDCHAR
STARTCHAR uni0210
ENCODING 528
SWIDTH 540 0
DWIDTH 9 0
BBX 9 18 0 -4
BITMAP
4800
2400
1200
0000
7C00
4200
4100
4100
4200
7C00
4800
4400
4200
4100
0000
0000
0000
0000
ENDCHAR
STARTCHAR uni0211
ENCODING 529
SWIDTH 540 0
DWIDTH 9 0
BBX 9 18 0 -4
BITMAP
0000
0000
0000
4800
2400
1200
0000
4E00
3100
2100
2000
2000
2000
2000
0000
0000
0000
0000
ENDCHAR
STARTCHAR uni0212
ENCODING 530
SWIDTH 540 0
DWIDTH 9 0
BBX 9 18 0 -4
BITMAP
0000
1C00
2200
0000
7C00
4200
4100
4100
4200
7C00
4800
4400
4200
4100
0000
0000
0000
0000
ENDCHAR
STARTCHAR uni0213
ENCODING 531
SWIDTH 540 0
DWIDTH 9 0
BBX 9 18 0 -4
BITMAP
0000
0000
0000
0000
1C00
2200
0000
4E00
3100
2100
2000
2000
2000
2000
0000
0000
0000
0000
ENDCHAR
STARTCHAR uni0214
ENCODING 532
SWIDTH 540 0
DWIDTH 9 0
BBX 9 18 0 -4
BITMAP
4400
2200
1100
0000
4100
4100
4100
4100
4100
4100
4100
4100
2200
1C00
0000
0000
0000
0000
ENDCHAR
STARTCHAR uni0215
ENCODING 533
SWIDTH 540 0
DWIDTH 9 0
BBX 9 18 0 -4
BITMAP
0000
0000
0000
4800
2400
1200
0000
4100
4100
4100
4100
4100
4300
3D00
0000
0000
0000
0000
ENDCHAR
STARTCHAR uni0216
ENCODING 534
SWIDTH 540 0
DWIDTH 9 0
BBX 9 18 0 -4
BITMAP
0000
1C00
2200
0000
4100
4100
4100
4100
4100
4100
4100
4100
2200
1C00
0000
0000
0000
0000
ENDCHAR
STARTCHAR uni0217
ENCODING 535
SWIDTH 540 0
DWIDTH 9 0
BBX 9 18 0 -4
BITMAP
0000
0000
0000
0000
1C00
2200
0000
4100
4100
4100
4100
4100
4300
3D00
0000
0000
0000
0000
ENDCHAR
STARTCHAR Scommaaccent
ENCODING 536
SWIDTH 540 0
DWIDTH 9 0
BBX 9 18 0 -4
BITMAP
0000
0000
0000
0000
3E00
4100
4100
4000
3E00
0100
0100
4100
4100
3E00
0C00
0400
0800
0000
ENDCHAR
STARTCHAR scommaaccent
ENCODING 537
SWIDTH 540 0
DWIDTH 9 0
BBX 9 18 0 -4
BITMAP
0000
0000
0000
0000
0000
0000
0000
3E00
4100
4000
3E00
0100
4100
3E00
0C00
0400
0800
0000
ENDCHAR
STARTCHAR Tcommaaccent
ENCODING 538
SWIDTH 540 0
DWIDTH 9 0
BBX 9 18 0 -4
BITMAP
0000
0000
0000
0000
7F00
0800
0800
0800
0800
0800
0800
0800
0800
0800
0C00
0400
0800
0000
ENDCHAR
STARTCHAR tcommaaccent
ENCODING 539
SWIDTH 540 0
DWIDTH 9 0
BBX 9 18 0 -4
BITMAP
0000
0000
0000
0000
0000
1000
1000
7E00
1000
1000
1000
1000
1100
0E00
0C00
0400
0800
0000
ENDCHAR
STARTCHAR uni021C
ENCODING 540
SWIDTH 540 0
DWIDTH 9 0
BBX 9 18 0 -4
BITMAP
0000
0000
0000
0000
3800
4400
0200
0200
0400
0A00
1200
0200
0400
7800
0000
0000
0000
0000
ENDCHAR
STARTCHAR uni021D
ENCODING 541
SWIDTH 540 0
DWIDTH 9 0
BBX 9 18 0 -4
BITMAP
0000
0000
0000
0000
0000
0000
0000
3800
4400
0200
0200
0400
0A00
1200
0200
0400
7800
0000
ENDCHAR
STARTCHAR uni021E
ENCODING 542
SWIDTH 540 0
DWIDTH 9 0
BBX 9 18 0 -4
BITMAP
0000
2200
1400
0800
4100
4100
4100
4100
7F00
4100
4100
4100
4100
4100
0000
0000
0000
0000
ENDCHAR
STARTCHAR uni021F
ENCODING 543
SWIDTH 540 0
DWIDTH 9 0
BBX 9 18 0 -4
BITMAP
0000
2200
1400
0800
4000
4000
4000
5E00
6100
4100
4100
4100
4100
4100
0000
0000
0000
0000
ENDCHAR
STARTCHAR uni0220
ENCODING 544
SWIDTH 540 0
DWIDTH 9 0
BBX 9 18 0 -4
BITMAP
0000
0000
0000
0000
5E00
6100
4100
4100
4100
4100
4100
4100
4100
4100
0100
0100
0100
0000
ENDCHAR
STARTCHAR uni0221
ENCODING 545
SWIDTH 540 0
DWIDTH 9 0
BBX 9 18 0 -4
BITMAP
0000
0000
0000
0000
0200
0200
0200
3A00
4600
4200
4200
4200
4200
4700
3B00
0200
0400
0000
ENDCHAR
STARTCHAR uni0222
ENCODING 546
SWIDTH 540 0
DWIDTH 9 0
BBX 9 18 0 -4
BITMAP
0000
0000
0000
0000
2200
4100
4100
4100
3E00
4100
4100
4100
4100
3E00
0000
0000
0000
0000
ENDCHAR
STARTCHAR uni0223
ENCODING 547
SWIDTH 540 0
DWIDTH 9 0
BBX 9 18 0 -4
BITMAP
0000
0000
0000
0000
0000
0000
2200
4100
4100
3E00
4100
4100
4100
3E00
0000
0000
0000
0000
ENDCHAR
STARTCHAR uni0224
ENCODING 548
SWIDTH 540 0
DWIDTH 9 0
BBX 9 18 0 -4
BITMAP
0000
0000
0000
0000
7F00
0100
0200
0400
0800
1000
2000
4000
4000
7F00
0100
0100
0600
0000
ENDCHAR
STARTCHAR uni0225
ENCODING 549
SWIDTH 540 0
DWIDTH 9 0
BBX 9 18 0 -4
BITMAP
0000
0000
0000
0000
0000
0000
0000
7F00
0200
0400
0800
1000
2000
7F00
0100
0100
0600
0000
ENDCHAR
STARTCHAR uni0226
ENCODING 550
SWIDTH 540 0
DWIDTH 9 0
BBX 9 18 0 -4
BITMAP
0000
0800
0800
0000
0800
1400
1400
1400
2200
3E00
2200
4100
4100
4100
0000
0000
0000
0000
ENDCHAR
STARTCHAR uni0227
ENCODING 551
SWIDTH 540 0
DWIDTH 9 0
BBX 9 18 0 -4
BITMAP
0000
0000
0000
0000
0800
0800
0000
3E00
0100
0100
3F00
4100
4300
3D00
0000
0000
0000
0000
ENDCHAR
STARTCHAR uni0228
ENCODING 552
SWIDTH 540 0
DWIDTH 9 0
BBX 9 18 0 -4
BITMAP
0000
0000
0000
0000
7F00
4000
4000
4000
7C00
4000
4000
4000
4000
7F00
0100
0100
0600
0000
ENDCHAR
STARTCHAR uni0229
ENCODING 553
SWIDTH 540 0
DWIDTH 9 0
BBX 9 18 0 -4
BITMAP
0000
0000
0000
0000
0000
0000
0000
3E00
4100
4100
7F00
4000
4100
3E00
0200
0200
0C00
0000
ENDCHAR
STARTCHAR uni022A
ENCODING 554
SWIDTH 540 0
DWIDTH 9 0
BBX 9 18 0 -4
BITMAP
3E00
0000
1400
0000
3E00
4100
4100
4100
4100
4100
4100
4100
4100
3E00
0000
0000
0000
0000
ENDCHAR
STARTCHAR uni022B
ENCODING 555
SWIDTH 540 0
DWIDTH 9 0
BBX 9 18 0 -4
BITMAP
0000
0000
0000
3E00
0000
1400
0000
3E00
4100
4100
4100
4100
4100
3E00
0000
0000
0000
0000
ENDCHAR
STARTCHAR uni022C
ENCODING 556
SWIDTH 540 0
DWIDTH 9 0
BBX 9 18 0 -4
BITMAP
3E00
0000
1A00
2C00
0000
3E00
4100
4100
4100
4100
4100
4100
4100
3E00
0000
0000
0000
0000
ENDCHAR
STARTCHAR uni022D
ENCODING 557
SWIDTH 540 0
DWIDTH 9 0
BBX 9 18 0 -4
BITMAP
0000
0000
3E00
0000
1A00
2C00
0000
3E00
4100
4100
4100
4100
4100
3E00
0000
0000
0000
0000
ENDCHAR
STARTCHAR uni022E
ENCODING 558
SWIDTH 540 0
DWIDTH 9 0
BBX 9 18 0 -4
BITMAP
0000
0800
0800
0000
3E00
4100
4100
4100
4100
4100
4100
4100
4100
3E00
0000
0000
0000
0000
ENDCHAR
STARTCHAR uni022F
ENCODING 559
SWIDTH 540 0
DWIDTH 9 0
BBX 9 18 0 -4
BITMAP
0000
0000
0000
0000
0800
0800
0000
3E00
4100
4100
4100
4100
4100
3E00
0000
0000
0000
0000
ENDCHAR
STARTCHAR uni0230
ENCODING 560
SWIDTH 540 0
DWIDTH 9 0
BBX 9 18 0 -4
BITMAP
3E00
0000
0800
0000
3E00
4100
4100
4100
4100
4100
4100
4100
4100
3E00
0000
0000
0000
0000
ENDCHAR
STARTCHAR uni0231
ENCODING 561
SWIDTH 540 0
DWIDTH 9 0
BBX 9 18 0 -4
BITMAP
0000
0000
3E00
0000
0800
0800
0000
3E00
4100
4100
4100
4100
4100
3E00
0000
0000
0000
0000
ENDCHAR
STARTCHAR uni0232
ENCODING 562
SWIDTH 540 0
DWIDTH 9 0
BBX 9 18 0 -4
BITMAP
0000
0000
3E00
0000
4100
4100
2200
1400
0800
0800
0800
0800
0800
0800
0000
0000
0000
0000
ENDCHAR
STARTCHAR uni0233
ENCODING 563
SWIDTH 540 0
DWIDTH 9 0
BBX 9 18 0 -4
BITMAP
0000
0000
0000
0000
0000
1F00
0000
2100
2100
1200
1200
1200
0C00
0C00
0800
4800
3000
0000
ENDCHAR
STARTCHAR uni0234
ENCODING 564
SWIDTH 540 0
DWIDTH 9 0
BBX 9 18 0 -4
BITMAP
0000
0000
0000
0000
0000
1800
0800
0800
0800
0800
0800
0800
0800
0C00
0C00
1000
2000
0000
ENDCHAR
STARTCHAR uni0235
ENCODING 565
SWIDTH 540 0
DWIDTH 9 0
BBX 9 18 0 -4
BITMAP
0000
0000
0000
0000
0000
0000
0000
5C00
6200
4200
4200
4200
4200
4300
4300
0200
0400
0000
ENDCHAR
STARTCHAR uni0236
ENCODING 566
SWIDTH 540 0
DWIDTH 9 0
BBX 9 18 0 -4
BITMAP
0000
0000
0000
0000
0000
1000
1000
7C00
1000
1000
1000
1000
1000
1600
0E00
0800
1000
0000
ENDCHAR
STARTCHAR uni0237
ENCODING 567
SWIDTH 540 0
DWIDTH 9 0
BBX 9 18 0 -4
BITMAP
0000
0000
0000
0000
0000
0000
0000
0C00
0400
0400
0400
0400
0400
0400
0400
4800
3000
0000
ENDCHAR
STARTCHAR uni0238
ENCODING 568
SWIDTH 540 0
DWIDTH 9 0
BBX 9 18 0 -4
BITMAP
0000
0000
0000
0000
1000
1000
1000
5400
BA00
9200
9200
9200
9200
BA00
5400
0000
0000
0000
ENDCHAR
STARTCHAR uni0239
ENCODING 569
SWIDTH 540 0
DWIDTH 9 0
BBX 9 18 0 -4
BITMAP
0000
0000
0000
0000
0000
0000
0000
5400
BA00
9200
9200
9200
9200
BA00
5400
1000
1000
0000
ENDCHAR
STARTCHAR uni023A
ENCODING 570
SWIDTH 540 0
DWIDTH 9 0
BBX 9 18 0 -4
BITMAP
0000
0000
0000
0000
0200
1A00
2400
2C00
4A00
5200
7E00
6200
4200
4200
C200
0000
0000
0000
ENDCHAR
STARTCHAR uni023B
ENCODING 571
SWIDTH 540 0
DWIDTH 9 0
BBX 9 18 0 -4
BITMAP
0000
0000
0000
0000
0200
3C00
4600
4A00
4800
5000
5000
6000
6200
4200
7C00
8000
0000
0000
ENDCHAR
STARTCHAR uni023C
ENCODING 572
SWIDTH 540 0
DWIDTH 9 0
BBX 9 18 0 -4
BITMAP
0000
0000
0000
0000
0000
0200
0400
3C00
4A00
5000
5000
6000
6000
4200
7C00
8000
0000
0000
ENDCHAR
STARTCHAR uni023D
ENCODING 573
SWIDTH 540 0
DWIDTH 9 0
BBX 9 18 0 -4
BITMAP
0000
0000
0000
0000
0000
2000
2000
2000
2000
7800
2000
2000
2000
2000
3E00
0000
0000
0000
ENDCHAR
STARTCHAR uni023E
ENCODING 574
SWIDTH 540 0
DWIDTH 9 0
BBX 9 18 0 -4
BITMAP
0000
0000
0000
0100
0200
7F00
0C00
0C00
0800
0800
1800
1800
2800
2800
4800
0000
0000
0000
ENDCHAR
STARTCHAR uni023F
ENCODING 575
SWIDTH 540 0
DWIDTH 9 0
BBX 9 18 0 -4
BITMAP
0000
0000
0000
0000
0000
0000
0000
3C00
4200
4000
3000
0C00
0200
4200
3C00
0900
0600
0000
ENDCHAR
STARTCHAR uni0240
ENCODING 576
SWIDTH 540 0
DWIDTH 9 0
BBX 9 18 0 -4
BITMAP
0000
0000
0000
0000
0000
0000
0000
7E00
0200
0400
0800
1000
2000
4000
6000
1000
0E00
0000
ENDCHAR
STARTCHAR uni0241
ENCODING 577
SWIDTH 540 0
DWIDTH 9 0
BBX 9 18 0 -4
BITMAP
0000
0000
0000
0000
0000
3C00
4200
4200
0200
0400
0800
0800
0800
0800
0800
0000
0000
0000
ENDCHAR
STARTCHAR uni0242
ENCODING 578
SWIDTH 540 0
DWIDTH 9 0
BBX 9 18 0 -4
BITMAP
0000
0000
0000
0000
0000
0000
0000
3C00
4200
4200
0200
0400
0800
0800
0800
0000
0000
0000
ENDCHAR
STARTCHAR uni0243
ENCODING 579
SWIDTH 540 0
DWIDTH 9 0
BBX 9 18 0 -4
BITMAP
0000
0000
0000
0000
0000
3C00
2200
2200
2200
3C00
2200
7A00
2200
2200
3C00
0000
0000
0000
ENDCHAR
STARTCHAR uni0244
ENCODING 580
SWIDTH 540 0
DWIDTH 9 0
BBX 9 18 0 -4
BITMAP
0000
0000
0000
0000
0000
4400
4400
4400
4400
4400
FE00
4400
4400
4400
3800
0000
0000
0000
ENDCHAR
STARTCHAR uni0245
ENCODING 581
SWIDTH 540 0
DWIDTH 9 0
BBX 9 18 0 -4
BITMAP
0000
0000
0000
0000
0000
1800
1800
1800
2400
2400
2400
2400
4200
4200
4200
0000
0000
0000
ENDCHAR
STARTCHAR uni0246
ENCODING 582
SWIDTH 540 0
DWIDTH 9 0
BBX 9 18 0 -4
BITMAP
0000
0000
0000
0400
0400
7E00
4800
4800
5000
7C00
5000
5000
6000
6000
7E00
4000
4000
0000
ENDCHAR
STARTCHAR uni0247
ENCODING 583
SWIDTH 540 0
DWIDTH 9 0
BBX 9 18 0 -4
BITMAP
0000
0000
0000
0000
0000
0000
0200
3C00
4600
4A00
7E00
5000
6000
4200
7C00
8000
0000
0000
ENDCHAR
STARTCHAR uni0248
ENCODING 584
SWIDTH 540 0
DWIDTH 9 0
BBX 9 18 0 -4
BITMAP
0000
0000
0000
0000
0000
1F00
0400
0400
0400
0400
1F00
0400
4400
4400
3800
0000
0000
0000
ENDCHAR
STARTCHAR uni0249
ENCODING 585
SWIDTH 540 0
DWIDTH 9 0
BBX 9 18 0 -4
BITMAP
0000
0000
0000
0000
0400
0400
0000
0C00
0400
0400
1F00
0400
0400
0400
0400
4800
3000
0000
ENDCHAR
STARTCHAR uni024A
ENCODING 586
SWIDTH 540 0
DWIDTH 9 0
BBX 9 18 0 -4
BITMAP
0000
0000
0000
0000
0000
3800
4400
4400
4400
4400
4400
4400
4400
4C00
3400
0400
0300
0000
ENDCHAR
STARTCHAR uni024B
ENCODING 587
SWIDTH 540 0
DWIDTH 9 0
BBX 9 18 0 -4
BITMAP
0000
0000
0000
0000
0000
0000
0000
3400
4C00
4400
4400
4400
4400
4C00
3400
0400
0300
0000
ENDCHAR
STARTCHAR uni024C
ENCODING 588
SWIDTH 540 0
DWIDTH 9 0
BBX 9 18 0 -4
BITMAP
0000
0000
0000
0000
0000
3C00
2200
2200
2200
7C00
2800
2400
2400
2200
2200
0000
0000
0000
ENDCHAR
STARTCHAR uni024D
ENCODING 589
SWIDTH 540 0
DWIDTH 9 0
BBX 9 18 0 -4
BITMAP
0000
0000
0000
0000
0000
0000
0000
2C00
3200
2200
7000
2000
2000
2000
2000
0000
0000
0000
ENDCHAR
STARTCHAR uni024E
ENCODING 590
SWIDTH 540 0
DWIDTH 9 0
BBX 9 18 0 -4
BITMAP
0000
0000
0000
0000
0000
4100
4100
2200
7F00
1400
0800
0800
0800
0800
0800
0000
0000
0000
ENDCHAR
STARTCHAR uni024F
ENCODING 591
SWIDTH 540 0
DWIDTH 9 0
BBX 9 18 0 -4
BITMAP
0000
0000
0000
0000
0000
0000
0000
2200
2200
2200
7F00
2200
1200
0E00
0200
0200
1C00
0000
ENDCHAR
STARTCHAR uni0250
ENCODING 592
SWIDTH 540 0
DWIDTH 9 0
BBX 9 18 0 -4
BITMAP
0000
0000
0000
0000
0000
0000
0000
5E00
6100
4100
7E00
4000
4000
3E00
0000
0000
0000
0000
ENDCHAR
STARTCHAR uni0251
ENCODING 593
SWIDTH 540 0
DWIDTH 9 0
BBX 9 18 0 -4
BITMAP
0000
0000
0000
0000
0000
0000
0000
3D00
4300
4100
4100
4100
4300
3D00
0000
0000
0000
0000
ENDCHAR
STARTCHAR uni0252
ENCODING 594
SWIDTH 540 0
DWIDTH 9 0
BBX 9 18 0 -4
BITMAP
0000
0000
0000
0000
0000
0000
0000
5E00
6100
4100
4100
4100
6100
5E00
0000
0000
0000
0000
ENDCHAR
STARTCHAR uni0253
ENCODING 595
SWIDTH 540 0
DWIDTH 9 0
BBX 9 18 0 -4
BITMAP
0000
0000
0000
3C00
4200
4000
4000
5C00
6200
4100
4100
4100
6200
5C00
0000
0000
0000
0000
ENDCHAR
STARTCHAR uni0254
ENCODING 596
SWIDTH 540 0
DWIDTH 9 0
BBX 9 18 0 -4
BITMAP
0000
0000
0000
0000
0000
0000
0000
3E00
4100
0100
0100
0100
4100
3E00
0000
0000
0000
0000
ENDCHAR
STARTCHAR uni0255
ENCODING 597
SWIDTH 540 0
DWIDTH 9 0
BBX 9 18 0 -4
BITMAP
0000
0000
0000
0000
0000
0000
0000
3E00
4100
4000
4000
4600
4900
3E00
1000
0000
0000
0000
ENDCHAR
STARTCHAR uni0256
ENCODING 598
SWIDTH 540 0
DWIDTH 9 0
BBX 9 18 0 -4
BITMAP
0000
0000
0000
0000
0200
0200
0200
3A00
4600
4200
4200
4200
4600
3A00
0180
0000
0000
0000
ENDCHAR
STARTCHAR uni0257
ENCODING 599
SWIDTH 540 0
DWIDTH 9 0
BBX 9 18 0 -4
BITMAP
0000
0000
0000
0000
0180
0200
0200
3A00
4600
4200
4200
4200
4600
3A00
0000
0000
0000
0000
ENDCHAR
STARTCHAR uni0258
ENCODING 600
SWIDTH 540 0
DWIDTH 9 0
BBX 9 18 0 -4
BITMAP
0000
0000
0000
0000
0000
0000
0000
3E00
4100
4100
7F00
0100
4100
3E00
0000
0000
0000
0000
ENDCHAR
STARTCHAR uni0259
ENCODING 601
SWIDTH 540 0
DWIDTH 9 0
BBX 9 18 0 -4
BITMAP
0000
0000
0000
0000
0000
0000
0000
3E00
4100
0100
7F00
4100
4100
3E00
0000
0000
0000
0000
ENDCHAR
STARTCHAR uni025A
ENCODING 602
SWIDTH 540 0
DWIDTH 9 0
BBX 9 18 0 -4
BITMAP
0000
0000
0000
0000
0000
0000
0000
3C00
4300
0280
7E00
4200
4200
3C00
0000
0000
0000
0000
ENDCHAR
STARTCHAR uni025B
ENCODING 603
SWIDTH 540 0
DWIDTH 9 0
BBX 9 18 0 -4
BITMAP
0000
0000
0000
0000
0000
0000
0000
3E00
4100
4000
3C00
4000
4100
3E00
0000
0000
0000
0000
ENDCHAR
STARTCHAR uni025C
ENCODING 604
SWIDTH 540 0
DWIDTH 9 0
BBX 9 18 0 -4
BITMAP
0000
0000
0000
0000
0000
0000
0000
3E00
4100
0100
1E00
0100
4100
3E00
0000
0000
0000
0000
ENDCHAR
STARTCHAR uni025D
ENCODING 605
SWIDTH 540 0
DWIDTH 9 0
BBX 9 18 0 -4
BITMAP
0000
0000
0000
0000
0000
0000
0000
3C00
4300
0280
1C00
0200
4200
3C00
0000
0000
0000
0000
ENDCHAR
STARTCHAR uni025E
ENCODING 606
SWIDTH 540 0
DWIDTH 9 0
BBX 9 18 0 -4
BITMAP
0000
0000
0000
0000
0000
0000
0000
3E00
4100
4100
5E00
4100
4100
3E00
0000
0000
0000
0000
ENDCHAR
STARTCHAR uni025F
ENCODING 607
SWIDTH 540 0
DWIDTH 9 0
BBX 9 18 0 -4
BITMAP
0000
0000
0000
0000
0000
0000
0000
0400
0400
0400
0400
1F00
0400
0400
4400
4400
3800
0000
ENDCHAR
STARTCHAR uni0260
ENCODING 608
SWIDTH 540 0
DWIDTH 9 0
BBX 9 18 0 -4
BITMAP
0000
0000
0000
0000
0100
0200
0200
3E00
4200
4200
4200
4200
4600
3A00
0200
4200
3C00
0000
ENDCHAR
STARTCHAR uni0261
ENCODING 609
SWIDTH 540 0
DWIDTH 9 0
BBX 9 18 0 -4
BITMAP
0000
0000
0000
0000
0000
0000
0000
3C00
4200
4200
4200
4200
4600
3A00
0200
4200
3C00
0000
ENDCHAR
STARTCHAR uni0262
ENCODING 610
SWIDTH 540 0
DWIDTH 9 0
BBX 9 18 0 -4
BITMAP
0000
0000
0000
0000
0000
0000
0000
3E00
4100
4000
4700
4100
4100
3E00
0000
0000
0000
0000
ENDCHAR
STARTCHAR uni0263
ENCODING 611
SWIDTH 540 0
DWIDTH 9 0
BBX 9 18 0 -4
BITMAP
0000
0000
0000
0000
0000
0000
0000
4100
4100
2200
1400
1400
0800
0800
1400
0800
0000
0000
ENDCHAR
STARTCHAR uni0264
ENCODING 612
SWIDTH 540 0
DWIDTH 9 0
BBX 9 18 0 -4
BITMAP
0000
0000
0000
0000
0000
0000
0000
2200
5500
1400
0800
1400
1400
0800
0000
0000
0000
0000
ENDCHAR
STARTCHAR uni0265
ENCODING 613
SWIDTH 540 0
DWIDTH 9 0
BBX 9 18 0 -4
BITMAP
0000
0000
0000
0000
0000
0000
0000
4100
4100
4100
4100
4100
2300
1D00
0100
0100
0100
0000
ENDCHAR
STARTCHAR uni0266
ENCODING 614
SWIDTH 540 0
DWIDTH 9 0
BBX 9 18 0 -4
BITMAP
0000
0000
0000
3C00
4200
4000
4000
5C00
6200
4100
4100
4100
4100
4100
0000
0000
0000
0000
ENDCHAR
STARTCHAR uni0267
ENCODING 615
SWIDTH 540 0
DWIDTH 9 0
BBX 9 18 0 -4
BITMAP
0000
0000
0000
3C00
4200
4000
4000
5C00
6200
4100
4100
4100
4100
4100
0100
1100
0E00
0000
ENDCHAR
STARTCHAR uni0268
ENCODING 616
SWIDTH 540 0
DWIDTH 9 0
BBX 9 18 0 -4
BITMAP
0000
0000
0000
0000
1800
0000
0000
3800
0800
0800
1C00
0800
0800
3E00
0000
0000
0000
0000
ENDCHAR
STARTCHAR uni0269
ENCODING 617
SWIDTH 540 0
DWIDTH 9 0
BBX 9 18 0 -4
BITMAP
0000
0000
0000
0000
0000
0000
0000
1800
0800
0800
0800
0800
0A00
0400
0000
0000
0000
0000
ENDCHAR
STARTCHAR uni026A
ENCODING 618
SWIDTH 540 0
DWIDTH 9 0
BBX 9 18 0 -4
BITMAP
0000
0000
0000
0000
0000
0000
0000
3E00
0800
0800
0800
0800
0800
3E00
0000
0000
0000
0000
ENDCHAR
STARTCHAR uni026B
ENCODING 619
SWIDTH 540 0
DWIDTH 9 0
BBX 9 18 0 -4
BITMAP
0000
0000
0000
0000
3800
0800
0800
0800
1A00
2C00
0800
0800
0800
3E00
0000
0000
0000
0000
ENDCHAR
STARTCHAR uni026C
ENCODING 620
SWIDTH 540 0
DWIDTH 9 0
BBX 9 18 0 -4
BITMAP
0000
0000
0000
0000
3800
0800
0800
1800
2800
1E00
0800
0800
0800
3E00
0000
0000
0000
0000
ENDCHAR
STARTCHAR uni026D
ENCODING 621
SWIDTH 540 0
DWIDTH 9 0
BBX 9 18 0 -4
BITMAP
0000
0000
0000
0000
3800
0800
0800
0800
0800
0800
0800
0800
0800
0800
0900
0600
0000
0000
ENDCHAR
STARTCHAR uni026E
ENCODING 622
SWIDTH 540 0
DWIDTH 9 0
BBX 9 18 0 -4
BITMAP
0000
0000
0000
0000
6000
2000
2000
2F00
2100
2200
2600
2100
2100
7100
0E00
0000
0000
0000
ENDCHAR
STARTCHAR uni026F
ENCODING 623
SWIDTH 540 0
DWIDTH 9 0
BBX 9 18 0 -4
BITMAP
0000
0000
0000
0000
0000
0000
0000
4100
4900
4900
4900
4900
4900
3700
0000
0000
0000
0000
ENDCHAR
STARTCHAR uni0270
ENCODING 624
SWIDTH 540 0
DWIDTH 9 0
BBX 9 18 0 -4
BITMAP
0000
0000
0000
0000
0000
0000
0000
4100
4900
4900
4900
4900
4900
3700
0100
0100
0000
0000
ENDCHAR
STARTCHAR uni0271
ENCODING 625
SWIDTH 540 0
DWIDTH 9 0
BBX 9 18 0 -4
BITMAP
0000
0000
0000
0000
0000
0000
0000
7600
4900
4900
4900
4900
4900
4100
0100
1100
0E00
0000
ENDCHAR
STARTCHAR uni0272
ENCODING 626
SWIDTH 540 0
DWIDTH 9 0
BBX 9 18 0 -4
BITMAP
0000
0000
0000
0000
0000
0000
0000
2E00
3100
2100
2100
2100
2100
2100
2000
2000
C000
0000
ENDCHAR
STARTCHAR uni0273
ENCODING 627
SWIDTH 540 0
DWIDTH 9 0
BBX 9 18 0 -4
BITMAP
0000
0000
0000
0000
0000
0000
0000
5C00
6200
4200
4200
4200
4200
4200
0200
0200
0180
0000
ENDCHAR
STARTCHAR uni0274
ENCODING 628
SWIDTH 540 0
DWIDTH 9 0
BBX 9 18 0 -4
BITMAP
0000
0000
0000
0000
0000
0000
0000
4100
6100
5100
4900
4500
4300
4100
0000
0000
0000
0000
ENDCHAR
STARTCHAR uni0275
ENCODING 629
SWIDTH 540 0
DWIDTH 9 0
BBX 9 18 0 -4
BITMAP
0000
0000
0000
0000
0000
0000
0000
3E00
4100
4100
7F00
4100
4100
3E00
0000
0000
0000
0000
ENDCHAR
STARTCHAR uni0276
ENCODING 630
SWIDTH 540 0
DWIDTH 9 0
BBX 9 18 0 -4
BITMAP
0000
0000
0000
0000
0000
0000
0000
3F00
4800
4800
4E00
4800
4800
3F00
0000
0000
0000
0000
ENDCHAR
STARTCHAR uni0277
ENCODING 631
SWIDTH 540 0
DWIDTH 9 0
BBX 9 18 0 -4
BITMAP
0000
0000
0000
0000
0000
0000
3E00
4100
4900
4900
4900
4900
4900
3600
0000
0000
0000
0000
ENDCHAR
STARTCHAR uni0278
ENCODING 632
SWIDTH 540 0
DWIDTH 9 0
BBX 9 18 0 -4
BITMAP
0000
0000
0000
0000
0800
0800
0800
3E00
4900
4900
4900
4900
3E00
0800
0800
0800
0000
0000
ENDCHAR
STARTCHAR uni0279
ENCODING 633
SWIDTH 540 0
DWIDTH 9 0
BBX 9 18 0 -4
BITMAP
0000
0000
0000
0000
0000
0000
0000
0200
0200
0200
0200
4200
4600
3900
0000
0000
0000
0000
ENDCHAR
STARTCHAR uni027A
ENCODING 634
SWIDTH 540 0
DWIDTH 9 0
BBX 9 18 0 -4
BITMAP
0000
0000
0000
0000
0200
0200
0200
0200
0200
0200
0200
4200
4600
3900
0000
0000
0000
0000
ENDCHAR
STARTCHAR uni027B
ENCODING 635
SWIDTH 540 0
DWIDTH 9 0
BBX 9 18 0 -4
BITMAP
0000
0000
0000
0000
0000
0000
0000
0200
0200
0200
0200
4200
4600
3A00
0200
0180
0000
0000
ENDCHAR
STARTCHAR uni027C
ENCODING 636
SWIDTH 540 0
DWIDTH 9 0
BBX 9 18 0 -4
BITMAP
0000
0000
0000
0000
0000
0000
0000
4E00
3100
2100
2000
2000
2000
2000
2000
2000
2000
0000
ENDCHAR
STARTCHAR uni027D
ENCODING 637
SWIDTH 540 0
DWIDTH 9 0
BBX 9 18 0 -4
BITMAP
0000
0000
0000
0000
0000
0000
0000
4E00
3100
2100
2000
2000
2000
2000
2400
1800
0000
0000
ENDCHAR
STARTCHAR uni027E
ENCODING 638
SWIDTH 540 0
DWIDTH 9 0
BBX 9 18 0 -4
BITMAP
0000
0000
0000
0000
0000
0000
0000
0E00
1100
2100
2000
2000
2000
2000
0000
0000
0000
0000
ENDCHAR
STARTCHAR uni027F
ENCODING 639
SWIDTH 540 0
DWIDTH 9 0
BBX 9 18 0 -4
BITMAP
0000
0000
0000
0000
0000
0000
0000
1C00
2200
2100
0100
0100
0100
0100
0000
0000
0000
0000
ENDCHAR
STARTCHAR uni0280
ENCODING 640
SWIDTH 540 0
DWIDTH 9 0
BBX 9 18 0 -4
BITMAP
0000
0000
0000
0000
0000
0000
0000
7E00
4100
4100
7E00
4100
4100
4100
0000
0000
0000
0000
ENDCHAR
STARTCHAR uni0281
ENCODING 641
SWIDTH 540 0
DWIDTH 9 0
BBX 9 18 0 -4
BITMAP
0000
0000
0000
0000
0000
0000
0000
4100
4100
4100
7E00
4100
4100
7E00
0000
0000
0000
0000
ENDCHAR
STARTCHAR uni0282
ENCODING 642
SWIDTH 540 0
DWIDTH 9 0
BBX 9 18 0 -4
BITMAP
0000
0000
0000
0000
0000
0000
0000
3E00
4100
4000
3E00
0100
4100
7E00
4000
3800
0000
0000
ENDCHAR
STARTCHAR uni0283
ENCODING 643
SWIDTH 540 0
DWIDTH 9 0
BBX 9 18 0 -4
BITMAP
0000
0000
0000
0000
0600
0900
0800
0800
0800
0800
0800
0800
0800
0800
4800
3000
0000
0000
ENDCHAR
STARTCHAR uni0284
ENCODING 644
SWIDTH 540 0
DWIDTH 9 0
BBX 9 18 0 -4
BITMAP
0000
0000
0000
0000
0600
0900
0800
0800
0800
0800
0800
3E00
0800
0800
4800
3000
0000
0000
ENDCHAR
STARTCHAR uni0285
ENCODING 645
SWIDTH 540 0
DWIDTH 9 0
BBX 9 18 0 -4
BITMAP
0000
0000
0000
0000
0000
0000
0000
3000
4800
0800
0800
0800
0800
0800
0900
0600
0000
0000
ENDCHAR
STARTCHAR uni0286
ENCODING 646
SWIDTH 540 0
DWIDTH 9 0
BBX 9 18 0 -4
BITMAP
0000
0000
0000
0000
0600
0900
0800
0800
0800
0800
0800
0800
0800
3800
4C00
3200
0000
0000
ENDCHAR
STARTCHAR uni0287
ENCODING 647
SWIDTH 540 0
DWIDTH 9 0
BBX 9 18 0 -4
BITMAP
0000
0000
0000
0000
0000
0000
0000
3800
4400
0400
0400
0400
0400
3F00
0400
0400
0000
0000
ENDCHAR
STARTCHAR uni0288
ENCODING 648
SWIDTH 540 0
DWIDTH 9 0
BBX 9 18 0 -4
BITMAP
0000
0000
0000
0000
0000
1000
1000
7E00
1000
1000
1000
1000
1000
1000
1200
0C00
0000
0000
ENDCHAR
STARTCHAR uni0289
ENCODING 649
SWIDTH 540 0
DWIDTH 9 0
BBX 9 18 0 -4
BITMAP
0000
0000
0000
0000
0000
0000
0000
2200
2200
2200
7F00
2200
2200
1D00
0000
0000
0000
0000
ENDCHAR
STARTCHAR uni028A
ENCODING 650
SWIDTH 540 0
DWIDTH 9 0
BBX 9 18 0 -4
BITMAP
0000
0000
0000
0000
0000
0000
0000
7700
2200
4100
4100
4100
2200
1C00
0000
0000
0000
0000
ENDCHAR
STARTCHAR uni028B
ENCODING 651
SWIDTH 540 0
DWIDTH 9 0
BBX 9 18 0 -4
BITMAP
0000
0000
0000
0000
0000
0000
0000
2400
2200
2100
2100
2100
2200
1C00
0000
0000
0000
0000
ENDCHAR
STARTCHAR uni028C
ENCODING 652
SWIDTH 540 0
DWIDTH 9 0
BBX 9 18 0 -4
BITMAP
0000
0000
0000
0000
0000
0000
0000
0800
1400
1400
2200
2200
4100
4100
0000
0000
0000
0000
ENDCHAR
STARTCHAR uni028D
ENCODING 653
SWIDTH 540 0
DWIDTH 9 0
BBX 9 18 0 -4
BITMAP
0000
0000
0000
0000
0000
0000
0000
2200
5500
4900
4900
4900
4100
4100
0000
0000
0000
0000
ENDCHAR
STARTCHAR uni028E
ENCODING 654
SWIDTH 540 0
DWIDTH 9 0
BBX 9 18 0 -4
BITMAP
0000
0000
0000
0000
0600
0900
0800
1800
1800
2400
2400
2400
4200
4200
0000
0000
0000
0000
ENDCHAR
STARTCHAR uni028F
ENCODING 655
SWIDTH 540 0
DWIDTH 9 0
BBX 9 18 0 -4
BITMAP
0000
0000
0000
0000
0000
0000
0000
4100
2200
1400
0800
0800
0800
0800
0000
0000
0000
0000
ENDCHAR
STARTCHAR uni0290
ENCODING 656
SWIDTH 540 0
DWIDTH 9 0
BBX 9 18 0 -4
BITMAP
0000
0000
0000
0000
0000
0000
0000
7F00
0200
0400
0800
1000
2000
7E00
0400
0300
0000
0000
ENDCHAR
STARTCHAR uni0291
ENCODING 657
SWIDTH 540 0
DWIDTH 9 0
BBX 9 18 0 -4
BITMAP
0000
0000
0000
0000
0000
0000
0000
7F00
0200
0400
0800
1200
2500
7E00
0800
1000
0000
0000
ENDCHAR
STARTCHAR uni0292
ENCODING 658
SWIDTH 540 0
DWIDTH 9 0
BBX 9 18 0 -4
BITMAP
0000
0000
0000
0000
0000
0000
0000
7E00
0400
0800
1000
3800
0400
0200
0200
4400
3800
0000
ENDCHAR
STARTCHAR uni0293
ENCODING 659
SWIDTH 540 0
DWIDTH 9 0
BBX 9 18 0 -4
BITMAP
0000
0000
0000
0000
0000
0000
0000
3F00
0200
0400
0800
1C00
0200
1100
2D00
2200
1D00
0000
ENDCHAR
STARTCHAR uni0294
ENCODING 660
SWIDTH 540 0
DWIDTH 9 0
BBX 9 18 0 -4
BITMAP
0000
0000
0000
0000
1C00
2200
2200
0200
0200
0C00
0800
0800
0800
0800
0000
0000
0000
0000
ENDCHAR
STARTCHAR uni0295
ENCODING 661
SWIDTH 540 0
DWIDTH 9 0
BBX 9 18 0 -4
BITMAP
0000
0000
0000
0000
1C00
2200
2200
2000
2000
1800
0800
0800
0800
0800
0000
0000
0000
0000
ENDCHAR
STARTCHAR uni0296
ENCODING 662
SWIDTH 540 0
DWIDTH 9 0
BBX 9 18 0 -4
BITMAP
0000
0000
0000
0000
0800
0800
0800
0800
0C00
0200
0200
2200
2200
1C00
0000
0000
0000
0000
ENDCHAR
STARTCHAR uni0297
ENCODING 663
SWIDTH 540 0
DWIDTH 9 0
BBX 9 18 0 -4
BITMAP
0000
0000
0000
0000
0000
3C00
4200
4000
4000
4000
4000
4000
4000
4000
4200
3C00
0000
0000
ENDCHAR
STARTCHAR uni0298
ENCODING 664
SWIDTH 540 0
DWIDTH 9 0
BBX 9 18 0 -4
BITMAP
0000
0000
0000
0000
0000
0000
0000
3E00
4100
4100
4900
4100
4100
3E00
0000
0000
0000
0000
ENDCHAR
STARTCHAR uni0299
ENCODING 665
SWIDTH 540 0
DWIDTH 9 0
BBX 9 18 0 -4
BITMAP
0000
0000
0000
0000
0000
0000
0000
3E00
2100
2100
3E00
2100
2100
3E00
0000
0000
0000
0000
ENDCHAR
STARTCHAR uni029A
ENCODING 666
SWIDTH 540 0
DWIDTH 9 0
BBX 9 18 0 -4
BITMAP
0000
0000
0000
0000
0000
0000
0000
3C00
4200
4100
3900
4100
4200
3C00
0000
0000
0000
0000
ENDCHAR
STARTCHAR uni029B
ENCODING 667
SWIDTH 540 0
DWIDTH 9 0
BBX 9 18 0 -4
BITMAP
0000
0000
0000
0000
0000
0100
0200
3E00
4100
4000
4700
4100
4100
3E00
0000
0000
0000
0000
ENDCHAR
STARTCHAR uni029C
ENCODING 668
SWIDTH 540 0
DWIDTH 9 0
BBX 9 18 0 -4
BITMAP
0000
0000
0000
0000
0000
0000
0000
4100
4100
4100
7F00
4100
4100
4100
0000
0000
0000
0000
ENDCHAR
STARTCHAR uni029D
ENCODING 669
SWIDTH 540 0
DWIDTH 9 0
BBX 9 18 0 -4
BITMAP
0000
0000
0000
0000
0C00
0000
0000
1C00
0400
0400
0400
0400
0400
3C00
4600
4500
3800
0000
ENDCHAR
STARTCHAR uni029E
ENCODING 670
SWIDTH 540 0
DWIDTH 9 0
BBX 9 18 0 -4
BITMAP
0000
0000
0000
0000
0000
0000
0000
4100
3100
0D00
0300
0D00
3100
4100
0100
0100
0100
0000
ENDCHAR
STARTCHAR uni029F
ENCODING 671
SWIDTH 540 0
DWIDTH 9 0
BBX 9 18 0 -4
BITMAP
0000
0000
0000
0000
0000
0000
0000
4000
4000
4000
4000
4000
4000
7E00
0000
0000
0000
0000
ENDCHAR
STARTCHAR uni02A0
ENCODING 672
SWIDTH 540 0
DWIDTH 9 0
BBX 9 18 0 -4
BITMAP
0000
0000
0000
0000
0180
0200
0200
3A00
4600
4200
4200
4200
4600
3A00
0200
0200
0200
0000
ENDCHAR
STARTCHAR uni02A1
ENCODING 673
SWIDTH 540 0
DWIDTH 9 0
BBX 9 18 0 -4
BITMAP
0000
0000
0000
0000
1C00
2200
2200
0200
0200
0C00
0800
3E00
0800
0800
0000
0000
0000
0000
ENDCHAR
STARTCHAR uni02A2
ENCODING 674
SWIDTH 540 0
DWIDTH 9 0
BBX 9 18 0 -4
BITMAP
0000
0000
0000
0000
1C00
2200
2200
2000
2000
1800
0800
3E00
0800
0800
0000
0000
0000
0000
ENDCHAR
STARTCHAR uni02A3
ENCODING 675
SWIDTH 540 0
DWIDTH 9 0
BBX 9 18 0 -4
BITMAP
0000
0000
0000
0000
0800
0800
0800
2F80
5880
4900
4A00
4C00
5C00
2F80
0000
0000
0000
0000
ENDCHAR
STARTCHAR uni02A4
ENCODING 676
SWIDTH 540 0
DWIDTH 9 0
BBX 9 18 0 -4
BITMAP
0000
0000
0000
0000
1000
1000
1000
5F00
B100
9200
9600
9100
B100
5100
0900
0600
0000
0000
ENDCHAR
STARTCHAR uni02A5
ENCODING 677
SWIDTH 540 0
DWIDTH 9 0
BBX 9 18 0 -4
BITMAP
0000
0000
0000
0000
1000
1000
1000
5F00
B100
9200
9400
9400
BB00
5E00
0800
1000
0000
0000
ENDCHAR
STARTCHAR uni02A6
ENCODING 678
SWIDTH 540 0
DWIDTH 9 0
BBX 9 18 0 -4
BITMAP
0000
0000
0000
0000
0000
2000
2000
7700
2800
2800
2600
2100
2100
1E00
0000
0000
0000
0000
ENDCHAR
STARTCHAR uni02A7
ENCODING 679
SWIDTH 540 0
DWIDTH 9 0
BBX 9 18 0 -4
BITMAP
0000
0000
0000
0000
0200
2500
2400
7400
2400
2400
2400
2400
2400
1400
0400
1800
0000
0000
ENDCHAR
STARTCHAR uni02A8
ENCODING 680
SWIDTH 540 0
DWIDTH 9 0
BBX 9 18 0 -4
BITMAP
0000
0000
0000
0000
0000
2000
2000
7700
2800
2800
2800
2A00
2D00
1600
0400
0000
0000
0000
ENDCHAR
STARTCHAR uni02A9
ENCODING 681
SWIDTH 540 0
DWIDTH 9 0
BBX 9 18 0 -4
BITMAP
0000
0000
0000
0000
1C00
2200
2000
2A00
2D00
7900
2900
2900
2900
2900
0100
0600
0000
0000
ENDCHAR
STARTCHAR uni02AA
ENCODING 682
SWIDTH 540 0
DWIDTH 9 0
BBX 9 18 0 -4
BITMAP
0000
0000
0000
0000
6000
2000
2000
2E00
3100
3000
2E00
2100
3100
3E00
0000
0000
0000
0000
ENDCHAR
STARTCHAR uni02AB
ENCODING 683
SWIDTH 540 0
DWIDTH 9 0
BBX 9 18 0 -4
BITMAP
0000
0000
0000
0000
6000
2000
2000
3F00
2100
2200
2400
2800
3000
3F00
0000
0000
0000
0000
ENDCHAR
STARTCHAR uni02AC
ENCODING 684
SWIDTH 540 0
DWIDTH 9 0
BBX 9 18 0 -4
BITMAP
0000
0000
0000
0000
0000
2A00
2A00
1400
1400
0000
2A00
2A00
1400
1400
0000
0000
0000
0000
ENDCHAR
STARTCHAR uni02AD
ENCODING 685
SWIDTH 540 0
DWIDTH 9 0
BBX 9 18 0 -4
BITMAP
0000
0000
0000
0000
0000
3E00
2200
2200
0000
3E00
2200
2200
0000
0000
0000
0000
0000
0000
ENDCHAR
STARTCHAR uni02AE
ENCODING 686
SWIDTH 540 0
DWIDTH 9 0
BBX 9 18 0 -4
BITMAP
0000
0000
0000
0000
0000
0000
0000
6400
2400
2400
2400
2400
2400
2C00
1400
0400
0400
0000
ENDCHAR
STARTCHAR uni02AF
ENCODING 687
SWIDTH 540 0
DWIDTH 9 0
BBX 9 18 0 -4
BITMAP
0000
0000
0000
0000
0000
0000
0000
6400
2400
2400
2400
2400
2400
2C00
1400
0400
0300
0000
ENDCHAR
STARTCHAR uni02B0
ENCODING 688
SWIDTH 540 0
DWIDTH 9 0
BBX 9 18 0 -4
BITMAP
0000
0000
0000
4000
4000
7000
4800
4800
4800
0000
0000
0000
0000
0000
0000
0000
0000
0000
ENDCHAR
STARTCHAR uni02B1
ENCODING 689
SWIDTH 540 0
DWIDTH 9 0
BBX 9 18 0 -4
BITMAP
0000
0000
0000
3000
4000
7000
4800
4800
4800
0000
0000
0000
0000
0000
0000
0000
0000
0000
ENDCHAR
STARTCHAR uni02B2
ENCODING 690
SWIDTH 540 0
DWIDTH 9 0
BBX 9 18 0 -4
BITMAP
0000
0000
0000
0000
1000
0000
1000
1000
1000
5000
2000
0000
0000
0000
0000
0000
0000
0000
ENDCHAR
STARTCHAR uni02B3
ENCODING 691
SWIDTH 540 0
DWIDTH 9 0
BBX 9 18 0 -4
BITMAP
0000
0000
0000
0000
0000
5000
6800
4000
4000
4000
0000
0000
0000
0000
0000
0000
0000
0000
ENDCHAR
STARTCHAR uni02B4
ENCODING 692
SWIDTH 540 0
DWIDTH 9 0
BBX 9 18 0 -4
BITMAP
0000
0000
0000
0000
0000
0800
0800
0800
5800
2800
0000
0000
0000
0000
0000
0000
0000
0000
ENDCHAR
STARTCHAR uni02B5
ENCODING 693
SWIDTH 540 0
DWIDTH 9 0
BBX 9 18 0 -4
BITMAP
0000
0000
0000
0000
0000
0800
0800
0800
5800
2800
0A00
0400
0000
0000
0000
0000
0000
0000
ENDCHAR
STARTCHAR uni02B6
ENCODING 694
SWIDTH 540 0
DWIDTH 9 0
BBX 9 18 0 -4
BITMAP
0000
0000
0000
0000
4800
5000
7000
4800
4800
7000
0000
0000
0000
0000
0000
0000
0000
0000
ENDCHAR
STARTCHAR uni02B7
ENCODING 695
SWIDTH 540 0
DWIDTH 9 0
BBX 9 18 0 -4
BITMAP
0000
0000
0000
0000
0000
5400
5400
5400
2800
2800
0000
0000
0000
0000
0000
0000
0000
0000
ENDCHAR
STARTCHAR uni02B8
ENCODING 696
SWIDTH 540 0
DWIDTH 9 0
BBX 9 18 0 -4
BITMAP
0000
0000
0000
0000
0000
4800
4800
4800
3800
0800
7000
0000
0000
0000
0000
0000
0000
0000
ENDCHAR
STARTCHAR uni02B9
ENCODING 697
SWIDTH 540 0
DWIDTH 9 0
BBX 9 18 0 -4
BITMAP
0000
0000
0000
0800
0800
1000
1000
0000
0000
0000
0000
0000
0000
0000
0000
0000
0000
0000
ENDCHAR
STARTCHAR uni02BA
ENCODING 698
SWIDTH 540 0
DWIDTH 9 0
BBX 9 18 0 -4
BITMAP
0000
0000
0000
1200
1200
2400
2400
0000
0000
0000
0000
0000
0000
0000
0000
0000
0000
0000
ENDCHAR
STARTCHAR uni02BB
ENCODING 699
SWIDTH 540 0
DWIDTH 9 0
BBX 9 18 0 -4
BITMAP
0000
0000
0000
0000
0400
0800
0C00
0C00
0000
0000
0000
0000
0000
0000
0000
0000
0000
0000
ENDCHAR
STARTCHAR afii57929
ENCODING 700
SWIDTH 540 0
DWIDTH 9 0
BBX 9 18 0 -4
BITMAP
0000
0000
0000
0000
0C00
0C00
0400
0800
0000
0000
0000
0000
0000
0000
0000
0000
0000
0000
ENDCHAR
STARTCHAR afii64937
ENCODING 701
SWIDTH 540 0
DWIDTH 9 0
BBX 9 18 0 -4
BITMAP
0000
0000
0000
0000
0C00
0C00
0800
0400
0000
0000
0000
0000
0000
0000
0000
0000
0000
0000
ENDCHAR
STARTCHAR uni02BE
ENCODING 702
SWIDTH 540 0
DWIDTH 9 0
BBX 9 18 0 -4
BITMAP
0000
0000
0000
0000
1800
0400
0400
0400
1800
0000
0000
0000
0000
0000
0000
0000
0000
0000
ENDCHAR
STARTCHAR uni02BF
ENCODING 703
SWIDTH 540 0
DWIDTH 9 0
BBX 9 18 0 -4
BITMAP
0000
0000
0000
0000
1800
2000
2000
2000
1800
0000
0000
0000
0000
0000
0000
0000
0000
0000
ENDCHAR
STARTCHAR uni02C0
ENCODING 704
SWIDTH 540 0
DWIDTH 9 0
BBX 9 18 0 -4
BITMAP
0000
0000
0000
0000
1000
2800
0800
1000
1000
0000
0000
0000
0000
0000
0000
0000
0000
0000
ENDCHAR
STARTCHAR uni02C1
ENCODING 705
SWIDTH 540 0
DWIDTH 9 0
BBX 9 18 0 -4
BITMAP
0000
0000
0000
0000
1000
2800
2000
1000
1000
0000
0000
0000
0000
0000
0000
0000
0000
0000
ENDCHAR
STARTCHAR uni02C2
ENCODING 706
SWIDTH 540 0
DWIDTH 9 0
BBX 9 18 0 -4
BITMAP
0000
0000
0000
0000
0400
0800
1000
0800
0400
0000
0000
0000
0000
0000
0000
0000
0000
0000
ENDCHAR
STARTCHAR uni02C3
ENCODING 707
SWIDTH 540 0
DWIDTH 9 0
BBX 9 18 0 -4
BITMAP
0000
0000
0000
0000
1000
0800
0400
0800
1000
0000
0000
0000
0000
0000
0000
0000
0000
0000
ENDCHAR
STARTCHAR uni02C4
ENCODING 708
SWIDTH 540 0
DWIDTH 9 0
BBX 9 18 0 -4
BITMAP
0000
0000
0000
0000
0800
1400
1400
2200
2200
0000
0000
0000
0000
0000
0000
0000
0000
0000
ENDCHAR
STARTCHAR uni02C5
ENCODING 709
SWIDTH 540 0
DWIDTH 9 0
BBX 9 18 0 -4
BITMAP
0000
0000
0000
0000
2200
2200
1400
1400
0800
0000
0000
0000
0000
0000
0000
0000
0000
0000
ENDCHAR
STARTCHAR circumflex
ENCODING 710
SWIDTH 540 0
DWIDTH 9 0
BBX 9 18 0 -4
BITMAP
0000
0000
0000
0000
0800
1400
2200
0000
0000
0000
0000
0000
0000
0000
0000
0000
0000
0000
ENDCHAR
STARTCHAR caron
ENCODING 711
SWIDTH 540 0
DWIDTH 9 0
BBX 9 18 0 -4
BITMAP
0000
0000
0000
0000
2200
1400
0800
0000
0000
0000
0000
0000
0000
0000
0000
0000
0000
0000
ENDCHAR
STARTCHAR uni02C8
ENCODING 712
SWIDTH 540 0
DWIDTH 9 0
BBX 9 18 0 -4
BITMAP
0000
0000
0000
0000
0800
0800
0800
0000
0000
0000
0000
0000
0000
0000
0000
0000
0000
0000
ENDCHAR
STARTCHAR macron
ENCODING 713
SWIDTH 540 0
DWIDTH 9 0
BBX 9 18 0 -4
BITMAP
0000
0000
0000
0000
3E00
0000
0000
0000
0000
0000
0000
0000
0000
0000
0000
0000
0000
0000
ENDCHAR
STARTCHAR uni02CA
ENCODING 714
SWIDTH 540 0
DWIDTH 9 0
BBX 9 18 0 -4
BITMAP
0000
0000
0000
0400
0800
1000
0000
0000
0000
0000
0000
0000
0000
0000
0000
0000
0000
0000
ENDCHAR
STARTCHAR uni02CB
ENCODING 715
SWIDTH 540 0
DWIDTH 9 0
BBX 9 18 0 -4
BITMAP
0000
0000
0000
1000
0800
0400
0000
0000
0000
0000
0000
0000
0000
0000
0000
0000
0000
0000
ENDCHAR
STARTCHAR uni02CC
ENCODING 716
SWIDTH 540 0
DWIDTH 9 0
BBX 9 18 0 -4
BITMAP
0000
0000
0000
0000
0000
0000
0000
0000
0000
0000
0000
0000
0000
0800
0800
0800
0000
0000
ENDCHAR
STARTCHAR uni02CD
ENCODING 717
SWIDTH 540 0
DWIDTH 9 0
BBX 9 18 0 -4
BITMAP
0000
0000
0000
0000
0000
0000
0000
0000
0000
0000
0000
0000
0000
0000
0000
3E00
0000
0000
ENDCHAR
STARTCHAR uni02CE
ENCODING 718
SWIDTH 540 0
DWIDTH 9 0
BBX 9 18 0 -4
BITMAP
0000
0000
0000
0000
0000
0000
0000
0000
0000
0000
0000
0000
0000
0000
1000
0800
0400
0000
ENDCHAR
STARTCHAR uni02CF
ENCODING 719
SWIDTH 540 0
DWIDTH 9 0
BBX 9 18 0 -4
BITMAP
0000
0000
0000
0000
0000
0000
0000
0000
0000
0000
0000
0000
0000
0000
0400
0800
1000
0000
ENDCHAR
STARTCHAR uni02D0
ENCODING 720
SWIDTH 540 0
DWIDTH 9 0
BBX 9 18 0 -4
BITMAP
0000
0000
0000
0000
0000
0000
0000
1C00
0800
0000
0000
0000
0800
1C00
0000
0000
0000
0000
ENDCHAR
STARTCHAR uni02D1
ENCODING 721
SWIDTH 540 0
DWIDTH 9 0
BBX 9 18 0 -4
BITMAP
0000
0000
0000
0000
0000
0000
0000
1C00
0800
0000
0000
0000
0000
0000
0000
0000
0000
0000
ENDCHAR
STARTCHAR uni02D2
ENCODING 722
SWIDTH 540 0
DWIDTH 9 0
BBX 9 18 0 -4
BITMAP
0000
0000
0000
0000
0000
0000
0000
0000
0000
1800
0400
0400
1800
0000
0000
0000
0000
0000
ENDCHAR
STARTCHAR uni02D3
ENCODING 723
SWIDTH 540 0
DWIDTH 9 0
BBX 9 18 0 -4
BITMAP
0000
0000
0000
0000
0000
0000
0000
0000
0000
0C00
1000
1000
0C00
0000
0000
0000
0000
0000
ENDCHAR
STARTCHAR uni02D4
ENCODING 724
SWIDTH 540 0
DWIDTH 9 0
BBX 9 18 0 -4
BITMAP
0000
0000
0000
0000
0000
0000
0000
0800
0800
3E00
0000
0000
0000
0000
0000
0000
0000
0000
ENDCHAR
STARTCHAR uni02D5
ENCODING 725
SWIDTH 540 0
DWIDTH 9 0
BBX 9 18 0 -4
BITMAP
0000
0000
0000
0000
0000
0000
0000
0000
0000
3E00
0800
0800
0000
0000
0000
0000
0000
0000
ENDCHAR
STARTCHAR uni02D6
ENCODING 726
SWIDTH 540 0
DWIDTH 9 0
BBX 9 18 0 -4
BITMAP
0000
0000
0000
0000
0000
0000
0000
0800
0800
3E00
0800
0800
0000
0000
0000
0000
0000
0000
ENDCHAR
STARTCHAR uni02D7
ENCODING 727
SWIDTH 540 0
DWIDTH 9 0
BBX 9 18 0 -4
BITMAP
0000
0000
0000
0000
0000
0000
0000
0000
2100
3F00
2100
0000
0000
0000
0000
0000
0000
0000
ENDCHAR
STARTCHAR breve
ENCODING 728
SWIDTH 540 0
DWIDTH 9 0
BBX 9 18 0 -4
BITMAP
0000
0000
0000
2200
1C00
0000
0000
0000
0000
0000
0000
0000
0000
0000
0000
0000
0000
0000
ENDCHAR
STARTCHAR dotaccent
ENCODING 729
SWIDTH 540 0
DWIDTH 9 0
BBX 9 18 0 -4
BITMAP
0000
0000
0000
0800
0800
0000
0000
0000
0000
0000
0000
0000
0000
0000
0000
0000
0000
0000
ENDCHAR
STARTCHAR ring
ENCODING 730
SWIDTH 540 0
DWIDTH 9 0
BBX 9 18 0 -4
BITMAP
0000
0000
0000
1800
2400
1800
0000
0000
0000
0000
0000
0000
0000
0000
0000
0000
0000
0000
ENDCHAR
STARTCHAR ogonek
ENCODING 731
SWIDTH 540 0
DWIDTH 9 0
BBX 9 18 0 -4
BITMAP
0000
0000
0000
0000
0000
0000
0000
0000
0000
0000
0000
0000
0000
0000
1000
2000
1C00
0000
ENDCHAR
STARTCHAR tilde
ENCODING 732
SWIDTH 540 0
DWIDTH 9 0
BBX 9 18 0 -4
BITMAP
0000
0000
0000
3900
4E00
0000
0000
0000
0000
0000
0000
0000
0000
0000
0000
0000
0000
0000
ENDCHAR
STARTCHAR hungarumlaut
ENCODING 733
SWIDTH 540 0
DWIDTH 9 0
BBX 9 18 0 -4
BITMAP
0000
0000
0000
1100
2200
4400
0000
0000
0000
0000
0000
0000
0000
0000
0000
0000
0000
0000
ENDCHAR
STARTCHAR uni02DE
ENCODING 734
SWIDTH 540 0
DWIDTH 9 0
BBX 9 18 0 -4
BITMAP
0000
0000
0000
0000
0000
0000
0000
1000
3200
5200
0C00
0000
0000
0000
0000
0000
0000
0000
ENDCHAR
STARTCHAR uni02DF
ENCODING 735
SWIDTH 540 0
DWIDTH 9 0
BBX 9 18 0 -4
BITMAP
0000
0000
0000
1400
0800
1400
0000
0000
0000
0000
0000
0000
0000
0000
0000
0000
0000
0000
ENDCHAR
STARTCHAR uni02E0
ENCODING 736
SWIDTH 540 0
DWIDTH 9 0
BBX 9 18 0 -4
BITMAP
0000
0000
0000
0000
0000
4800
4800
3000
3000
4800
3000
0000
0000
0000
0000
0000
0000
0000
ENDCHAR
STARTCHAR uni02E1
ENCODING 737
SWIDTH 540 0
DWIDTH 9 0
BBX 9 18 0 -4
BITMAP
0000
0000
0000
0000
3000
1000
1000
1000
1000
3800
0000
0000
0000
0000
0000
0000
0000
0000
ENDCHAR
STARTCHAR uni02E2
ENCODING 738
SWIDTH 540 0
DWIDTH 9 0
BBX 9 18 0 -4
BITMAP
0000
0000
0000
0000
0000
3800
4000
3000
0800
7000
0000
0000
0000
0000
0000
0000
0000
0000
ENDCHAR
STARTCHAR uni02E3
ENCODING 739
SWIDTH 540 0
DWIDTH 9 0
BBX 9 18 0 -4
BITMAP
0000
0000
0000
0000
0000
4800
4800
3000
4800
4800
0000
0000
0000
0000
0000
0000
0000
0000
ENDCHAR
STARTCHAR uni02E4
ENCODING 740
SWIDTH 540 0
DWIDTH 9 0
BBX 9 18 0 -4
BITMAP
0000
0000
0000
3800
4400
4000
3000
1000
1000
1000
0000
0000
0000
0000
0000
0000
0000
0000
ENDCHAR
STARTCHAR uni02E5
ENCODING 741
SWIDTH 540 0
DWIDTH 9 0
BBX 9 18 0 -4
BITMAP
0000
0000
0000
3C00
0400
0400
0400
0400
0400
0400
0400
0400
0400
0400
0400
0400
0000
0000
ENDCHAR
STARTCHAR uni02E6
ENCODING 742
SWIDTH 540 0
DWIDTH 9 0
BBX 9 18 0 -4
BITMAP
0000
0000
0000
0400
0400
0400
3C00
0400
0400
0400
0400
0400
0400
0400
0400
0400
0000
0000
ENDCHAR
STARTCHAR uni02E7
ENCODING 743
SWIDTH 540 0
DWIDTH 9 0
BBX 9 18 0 -4
BITMAP
0000
0000
0000
0400
0400
0400
0400
0400
0400
3C00
0400
0400
0400
0400
0400
0400
0000
0000
ENDCHAR
STARTCHAR uni02E8
ENCODING 744
SWIDTH 540 0
DWIDTH 9 0
BBX 9 18 0 -4
BITMAP
0000
0000
0000
0400
0400
0400
0400
0400
0400
0400
0400
0400
3C00
0400
0400
0400
0000
0000
ENDCHAR
STARTCHAR uni02E9
ENCODING 745
SWIDTH 540 0
DWIDTH 9 0
BBX 9 18 0 -4
BITMAP
0000
0000
0000
0400
0400
0400
0400
0400
0400
0400
0400
0400
0400
0400
0400
3C00
0000
0000
ENDCHAR
STARTCHAR uni02EA
ENCODING 746
SWIDTH 540 0
DWIDTH 9 0
BBX 9 18 0 -4
BITMAP
0000
0000
0000
0000
0000
0000
0000
0000
0000
0000
0000
0000
0000
3C00
0400
0400
0400
0000
ENDCHAR
STARTCHAR uni02EB
ENCODING 747
SWIDTH 540 0
DWIDTH 9 0
BBX 9 18 0 -4
BITMAP
0000
0000
0000
0000
0000
0000
0000
0000
0000
0000
1000
1000
1000
1E00
1000
1000
1000
0000
ENDCHAR
STARTCHAR uni02EC
ENCODING 748
SWIDTH 540 0
DWIDTH 9 0
BBX 9 18 0 -4
BITMAP
0000
0000
0000
0000
0000
0000
0000
0000
0000
0000
0000
0000
0000
0000
0000
2200
1400
0800
ENDCHAR
STARTCHAR uni02ED
ENCODING 749
SWIDTH 540 0
DWIDTH 9 0
BBX 9 18 0 -4
BITMAP
0000
0000
0000
0000
0000
0000
0000
0000
3E00
0000
3E00
0000
0000
0000
0000
0000
0000
0000
ENDCHAR
STARTCHAR uni02EE
ENCODING 750
SWIDTH 540 0
DWIDTH 9 0
BBX 9 18 0 -4
BITMAP
0000
0000
0000
0000
3600
3600
1200
2400
0000
0000
0000
0000
0000
0000
0000
0000
0000
0000
ENDCHAR
STARTCHAR uni02EF
ENCODING 751
SWIDTH 540 0
DWIDTH 9 0
BBX 9 18 0 -4
BITMAP
0000
0000
0000
0000
0000
0000
0000
0000
0000
0000
0000
0000
0000
4400
2800
1000
0000
0000
ENDCHAR
STARTCHAR uni02F0
ENCODING 752
SWIDTH 540 0
DWIDTH 9 0
BBX 9 18 0 -4
BITMAP
0000
0000
0000
0000
0000
0000
0000
0000
0000
0000
0000
0000
0000
1000
2800
4400
0000
0000
ENDCHAR
STARTCHAR uni02F1
ENCODING 753
SWIDTH 540 0
DWIDTH 9 0
BBX 9 18 0 -4
BITMAP
0000
0000
0000
0000
0000
0000
0000
0000
0000
0000
0000
0400
0800
1000
0800
0400
0000
0000
ENDCHAR
STARTCHAR uni02F2
ENCODING 754
SWIDTH 540 0
DWIDTH 9 0
BBX 9 18 0 -4
BITMAP
0000
0000
0000
0000
0000
0000
0000
0000
0000
0000
0000
1000
0800
0400
0800
1000
0000
0000
ENDCHAR
STARTCHAR uni02F3
ENCODING 755
SWIDTH 540 0
DWIDTH 9 0
BBX 9 18 0 -4
BITMAP
0000
0000
0000
0000
0000
0000
0000
0000
0000
0000
0000
0000
0000
1800
2400
1800
0000
0000
ENDCHAR
STARTCHAR uni02F4
ENCODING 756
SWIDTH 540 0
DWIDTH 9 0
BBX 9 18 0 -4
BITMAP
0000
0000
0000
2000
1000
0800
0000
0000
0000
0000
0000
0000
0000
0000
0000
0000
0000
0000
ENDCHAR
STARTCHAR uni02F5
ENCODING 757
SWIDTH 540 0
DWIDTH 9 0
BBX 9 18 0 -4
BITMAP
0000
0000
0000
4800
2400
1200
0000
0000
0000
0000
0000
0000
0000
0000
0000
0000
0000
0000
ENDCHAR
STARTCHAR uni02F6
ENCODING 758
SWIDTH 540 0
DWIDTH 9 0
BBX 9 18 0 -4
BITMAP
0000
0000
0000
1200
2400
4800
0000
0000
0000
0000
0000
0000
0000
0000
0000
0000
0000
0000
ENDCHAR
STARTCHAR uni02F7
ENCODING 759
SWIDTH 540 0
DWIDTH 9 0
BBX 9 18 0 -4
BITMAP
0000
0000
0000
0000
0000
0000
0000
0000
0000
0000
0000
0000
0000
0000
0000
3200
4C00
0000
ENDCHAR
STARTCHAR uni02F8
ENCODING 760
SWIDTH 540 0
DWIDTH 9 0
BBX 9 18 0 -4
BITMAP
0000
0000
0000
0000
1800
1800
0000
0000
0000
1800
1800
0000
0000
0000
0000
0000
0000
0000
ENDCHAR
STARTCHAR uni02F9
ENCODING 761
SWIDTH 540 0
DWIDTH 9 0
BBX 9 18 0 -4
BITMAP
0000
0000
0000
0000
3800
2000
2000
2000
0000
0000
0000
0000
0000
0000
0000
0000
0000
0000
ENDCHAR
STARTCHAR uni02FA
ENCODING 762
SWIDTH 540 0
DWIDTH 9 0
BBX 9 18 0 -4
BITMAP
0000
0000
0000
0000
3800
0800
0800
0800
0000
0000
0000
0000
0000
0000
0000
0000
0000
0000
ENDCHAR
STARTCHAR uni02FB
ENCODING 763
SWIDTH 540 0
DWIDTH 9 0
BBX 9 18 0 -4
BITMAP
0000
0000
0000
0000
0000
0000
0000
0000
0000
0000
0000
2000
2000
2000
3800
0000
0000
0000
ENDCHAR
STARTCHAR uni02FC
ENCODING 764
SWIDTH 540 0
DWIDTH 9 0
BBX 9 18 0 -4
BITMAP
0000
0000
0000
0000
0000
0000
0000
0000
0000
0000
0000
0800
0800
0800
3800
0000
0000
0000
ENDCHAR
STARTCHAR uni02FD
ENCODING 765
SWIDTH 540 0
DWIDTH 9 0
BBX 9 18 0 -4
BITMAP
0000
0000
0000
0000
0000
0000
0000
0000
0000
0000
0000
0000
0000
0000
4200
4200
7E00
0000
ENDCHAR
STARTCHAR uni02FE
ENCODING 766
SWIDTH 540 0
DWIDTH 9 0
BBX 9 18 0 -4
BITMAP
0000
0000
0000
0000
0000
0000
0000
0000
0000
0000
0000
0000
0000
0000
4000
4000
7E00
0000
ENDCHAR
STARTCHAR uni02FF
ENCODING 767
SWIDTH 540 0
DWIDTH 9 0
BBX 9 18 0 -4
BITMAP
0000
0000
0000
0000
0000
0000
0000
1000
2000
7E00
2000
1000
0000
0000
0000
0000
0000
0000
ENDCHAR
STARTCHAR gravecomb
ENCODING 768
SWIDTH 540 0
DWIDTH 9 0
BBX 9 18 0 -4
BITMAP
1000
0800
0400
0000
0000
0000
0000
0000
0000
0000
0000
0000
0000
0000
0000
0000
0000
0000
ENDCHAR
STARTCHAR acutecomb
ENCODING 769
SWIDTH 540 0
DWIDTH 9 0
BBX 9 18 0 -4
BITMAP
0400
0800
1000
0000
0000
0000
0000
0000
0000
0000
0000
0000
0000
0000
0000
0000
0000
0000
ENDCHAR
STARTCHAR uni0302
ENCODING 770
SWIDTH 540 0
DWIDTH 9 0
BBX 9 18 0 -4
BITMAP
0800
1400
2200
0000
0000
0000
0000
0000
0000
0000
0000
0000
0000
0000
0000
0000
0000
0000
ENDCHAR
STARTCHAR tildecomb
ENCODING 771
SWIDTH 540 0
DWIDTH 9 0
BBX 9 18 0 -4
BITMAP
0000
3900
4E00
0000
0000
0000
0000
0000
0000
0000
0000
0000
0000
0000
0000
0000
0000
0000
ENDCHAR
STARTCHAR uni0304
ENCODING 772
SWIDTH 540 0
DWIDTH 9 0
BBX 9 18 0 -4
BITMAP
0000
0000
7F00
0000
0000
0000
0000
0000
0000
0000
0000
0000
0000
0000
0000
0000
0000
0000
ENDCHAR
STARTCHAR uni0305
ENCODING 773
SWIDTH 540 0
DWIDTH 9 0
BBX 9 18 0 -4
BITMAP
0000
0000
FF80
0000
0000
0000
0000
0000
0000
0000
0000
0000
0000
0000
0000
0000
0000
0000
ENDCHAR
STARTCHAR uni0306
ENCODING 774
SWIDTH 540 0
DWIDTH 9 0
BBX 9 18 0 -4
BITMAP
0000
2200
1C00
0000
0000
0000
0000
0000
0000
0000
0000
0000
0000
0000
0000
0000
0000
0000
ENDCHAR
STARTCHAR uni0307
ENCODING 775
SWIDTH 540 0
DWIDTH 9 0
BBX 9 18 0 -4
BITMAP
0000
0800
0800
0000
0000
0000
0000
0000
0000
0000
0000
0000
0000
0000
0000
0000
0000
0000
ENDCHAR
STARTCHAR uni0308
ENCODING 776
SWIDTH 540 0
DWIDTH 9 0
BBX 9 18 0 -4
BITMAP
0000
1400
1400
0000
0000
0000
0000
0000
0000
0000
0000
0000
0000
0000
0000
0000
0000
0000
ENDCHAR
STARTCHAR hookabovecomb
ENCODING 777
SWIDTH 540 0
DWIDTH 9 0
BBX 9 18 0 -4
BITMAP
1800
2400
0800
0800
0000
0000
0000
0000
0000
0000
0000
0000
0000
0000
0000
0000
0000
0000
ENDCHAR
STARTCHAR uni030A
ENCODING 778
SWIDTH 540 0
DWIDTH 9 0
BBX 9 18 0 -4
BITMAP
0C00
1200
0C00
0000
0000
0000
0000
0000
0000
0000
0000
0000
0000
0000
0000
0000
0000
0000
ENDCHAR
STARTCHAR uni030B
ENCODING 779
SWIDTH 540 0
DWIDTH 9 0
BBX 9 18 0 -4
BITMAP
0900
1200
2400
0000
0000
0000
0000
0000
0000
0000
0000
0000
0000
0000
0000
0000
0000
0000
ENDCHAR
STARTCHAR uni030C
ENCODING 780
SWIDTH 540 0
DWIDTH 9 0
BBX 9 18 0 -4
BITMAP
2200
1400
0800
0000
0000
0000
0000
0000
0000
0000
0000
0000
0000
0000
0000
0000
0000
0000
ENDCHAR
STARTCHAR uni030D
ENCODING 781
SWIDTH 540 0
DWIDTH 9 0
BBX 9 18 0 -4
BITMAP
0800
0800
0800
0800
0000
0000
0000
0000
0000
0000
0000
0000
0000
0000
0000
0000
0000
0000
ENDCHAR
STARTCHAR uni030E
ENCODING 782
SWIDTH 540 0
DWIDTH 9 0
BBX 9 18 0 -4
BITMAP
2200
2200
2200
2200
0000
0000
0000
0000
0000
0000
0000
0000
0000
0000
0000
0000
0000
0000
ENDCHAR
STARTCHAR uni030F
ENCODING 783
SWIDTH 540 0
DWIDTH 9 0
BBX 9 18 0 -4
BITMAP
4400
2200
1100
0000
0000
0000
0000
0000
0000
0000
0000
0000
0000
0000
0000
0000
0000
0000
ENDCHAR
STARTCHAR uni0310
ENCODING 784
SWIDTH 540 0
DWIDTH 9 0
BBX 9 18 0 -4
BITMAP
0800
2200
1C00
0000
0000
0000
0000
0000
0000
0000
0000
0000
0000
0000
0000
0000
0000
0000
ENDCHAR
STARTCHAR uni0311
ENCODING 785
SWIDTH 540 0
DWIDTH 9 0
BBX 9 18 0 -4
BITMAP
0000
1C00
2200
0000
0000
0000
0000
0000
0000
0000
0000
0000
0000
0000
0000
0000
0000
0000
ENDCHAR
STARTCHAR uni0312
ENCODING 786
SWIDTH 540 0
DWIDTH 9 0
BBX 9 18 0 -4
BITMAP
0800
1000
1800
1800
0000
0000
0000
0000
0000
0000
0000
0000
0000
0000
0000
0000
0000
0000
ENDCHAR
STARTCHAR uni0313
ENCODING 787
SWIDTH 540 0
DWIDTH 9 0
BBX 9 18 0 -4
BITMAP
1800
1800
0800
1000
0000
0000
0000
0000
0000
0000
0000
0000
0000
0000
0000
0000
0000
0000
ENDCHAR
STARTCHAR uni0314
ENCODING 788
SWIDTH 540 0
DWIDTH 9 0
BBX 9 18 0 -4
BITMAP
1800
1800
1000
0800
0000
0000
0000
0000
0000
0000
0000
0000
0000
0000
0000
0000
0000
0000
ENDCHAR
STARTCHAR uni0315
ENCODING 789
SWIDTH 540 0
DWIDTH 9 0
BBX 9 18 0 -4
BITMAP
0300
0300
0100
0200
0000
0000
0000
0000
0000
0000
0000
0000
0000
0000
0000
0000
0000
0000
ENDCHAR
STARTCHAR uni0316
ENCODING 790
SWIDTH 540 0
DWIDTH 9 0
BBX 9 18 0 -4
BITMAP
0000
0000
0000
0000
0000
0000
0000
0000
0000
0000
0000
0000
0000
0000
0000
1000
0800
0400
ENDCHAR
STARTCHAR uni0317
ENCODING 791
SWIDTH 540 0
DWIDTH 9 0
BBX 9 18 0 -4
BITMAP
0000
0000
0000
0000
0000
0000
0000
0000
0000
0000
0000
0000
0000
0000
0000
0400
0800
1000
ENDCHAR
STARTCHAR uni0318
ENCODING 792
SWIDTH 540 0
DWIDTH 9 0
BBX 9 18 0 -4
BITMAP
0000
0000
0000
0000
0000
0000
0000
0000
0000
0000
0000
0000
0000
0000
0000
0400
3C00
0400
ENDCHAR
STARTCHAR uni0319
ENCODING 793
SWIDTH 540 0
DWIDTH 9 0
BBX 9 18 0 -4
BITMAP
0000
0000
0000
0000
0000
0000
0000
0000
0000
0000
0000
0000
0000
0000
0000
1000
1E00
1000
ENDCHAR
STARTCHAR uni031A
ENCODING 794
SWIDTH 540 0
DWIDTH 9 0
BBX 9 18 0 -4
BITMAP
0000
0380
0080
0080
0000
0000
0000
0000
0000
0000
0000
0000
0000
0000
0000
0000
0000
0000
ENDCHAR
STARTCHAR uni031B
ENCODING 795
SWIDTH 540 0
DWIDTH 9 0
BBX 9 18 0 -4
BITMAP
0000
0000
0000
0000
0080
0080
0100
0000
0000
0000
0000
0000
0000
0000
0000
0000
0000
0000
ENDCHAR
STARTCHAR uni031C
ENCODING 796
SWIDTH 540 0
DWIDTH 9 0
BBX 9 18 0 -4
BITMAP
0000
0000
0000
0000
0000
0000
0000
0000
0000
0000
0000
0000
0000
0000
0000
0800
1000
0800
ENDCHAR
STARTCHAR uni031D
ENCODING 797
SWIDTH 540 0
DWIDTH 9 0
BBX 9 18 0 -4
BITMAP
0000
0000
0000
0000
0000
0000
0000
0000
0000
0000
0000
0000
0000
0000
0000
0800
0800
1C00
ENDCHAR
STARTCHAR uni031E
ENCODING 798
SWIDTH 540 0
DWIDTH 9 0
BBX 9 18 0 -4
BITMAP
0000
0000
0000
0000
0000
0000
0000
0000
0000
0000
0000
0000
0000
0000
0000
1C00
0800
0800
ENDCHAR
STARTCHAR uni031F
ENCODING 799
SWIDTH 540 0
DWIDTH 9 0
BBX 9 18 0 -4
BITMAP
0000
0000
0000
0000
0000
0000
0000
0000
0000
0000
0000
0000
0000
0000
0000
0800
1C00
0800
ENDCHAR
STARTCHAR uni0320
ENCODING 800
SWIDTH 540 0
DWIDTH 9 0
BBX 9 18 0 -4
BITMAP
0000
0000
0000
0000
0000
0000
0000
0000
0000
0000
0000
0000
0000
0000
0000
7F00
0000
0000
ENDCHAR
STARTCHAR uni0321
ENCODING 801
SWIDTH 540 0
DWIDTH 9 0
BBX 9 18 0 -4
BITMAP
0000
0000
0000
0000
0000
0000
0000
0000
0000
0000
0000
0000
0000
0000
0100
0100
0900
0600
ENDCHAR
STARTCHAR uni0322
ENCODING 802
SWIDTH 540 0
DWIDTH 9 0
BBX 9 18 0 -4
BITMAP
0000
0000
0000
0000
0000
0000
0000
0000
0000
0000
0000
0000
0000
0000
0200
0280
0280
0100
ENDCHAR
STARTCHAR dotbelowcomb
ENCODING 803
SWIDTH 540 0
DWIDTH 9 0
BBX 9 18 0 -4
BITMAP
0000
0000
0000
0000
0000
0000
0000
0000
0000
0000
0000
0000
0000
0000
0000
0800
0800
0000
ENDCHAR
STARTCHAR uni0324
ENCODING 804
SWIDTH 540 0
DWIDTH 9 0
BBX 9 18 0 -4
BITMAP
0000
0000
0000
0000
0000
0000
0000
0000
0000
0000
0000
0000
0000
0000
0000
2200
2200
0000
ENDCHAR
STARTCHAR uni0325
ENCODING 805
SWIDTH 540 0
DWIDTH 9 0
BBX 9 18 0 -4
BITMAP
0000
0000
0000
0000
0000
0000
0000
0000
0000
0000
0000
0000
0000
0000
0000
0C00
1200
0C00
ENDCHAR
STARTCHAR uni0326
ENCODING 806
SWIDTH 540 0
DWIDTH 9 0
BBX 9 18 0 -4
BITMAP
0000
0000
0000
0000
0000
0000
0000
0000
0000
0000
0000
0000
0000
0000
0000
0C00
0400
0800
ENDCHAR
STARTCHAR uni0327
ENCODING 807
SWIDTH 540 0
DWIDTH 9 0
BBX 9 18 0 -4
BITMAP
0000
0000
0000
0000
0000
0000
0000
0000
0000
0000
0000
0000
0000
0000
0800
2400
1800
0000
ENDCHAR
STARTCHAR uni0328
ENCODING 808
SWIDTH 540 0
DWIDTH 9 0
BBX 9 18 0 -4
BITMAP
0000
0000
0000
0000
0000
0000
0000
0000
0000
0000
0000
0000
0000
0000
0800
1000
0E00
0000
ENDCHAR
STARTCHAR uni0329
ENCODING 809
SWIDTH 540 0
DWIDTH 9 0
BBX 9 18 0 -4
BITMAP
0000
0000
0000
0000
0000
0000
0000
0000
0000
0000
0000
0000
0000
0000
0000
0800
0800
0800
ENDCHAR
STARTCHAR uni032A
ENCODING 810
SWIDTH 540 0
DWIDTH 9 0
BBX 9 18 0 -4
BITMAP
0000
0000
0000
0000
0000
0000
0000
0000
0000
0000
0000
0000
0000
0000
0000
3E00
2200
0000
ENDCHAR
STARTCHAR uni032B
ENCODING 811
SWIDTH 540 0
DWIDTH 9 0
BBX 9 18 0 -4
BITMAP
0000
0000
0000
0000
0000
0000
0000
0000
0000
0000
0000
0000
0000
0000
0000
2A00
2A00
1400
ENDCHAR
STARTCHAR uni032C
ENCODING 812
SWIDTH 540 0
DWIDTH 9 0
BBX 9 18 0 -4
BITMAP
0000
0000
0000
0000
0000
0000
0000
0000
0000
0000
0000
0000
0000
0000
0000
2200
1400
0800
ENDCHAR
STARTCHAR uni032D
ENCODING 813
SWIDTH 540 0
DWIDTH 9 0
BBX 9 18 0 -4
BITMAP
0000
0000
0000
0000
0000
0000
0000
0000
0000
0000
0000
0000
0000
0000
0000
0800
1400
2200
ENDCHAR
STARTCHAR uni032E
ENCODING 814
SWIDTH 540 0
DWIDTH 9 0
BBX 9 18 0 -4
BITMAP
0000
0000
0000
0000
0000
0000
0000
0000
0000
0000
0000
0000
0000
0000
0000
2200
1C00
0000
ENDCHAR
STARTCHAR uni032F
ENCODING 815
SWIDTH 540 0
DWIDTH 9 0
BBX 9 18 0 -4
BITMAP
0000
0000
0000
0000
0000
0000
0000
0000
0000
0000
0000
0000
0000
0000
0000
1C00
2200
0000
ENDCHAR
STARTCHAR uni0330
ENCODING 816
SWIDTH 540 0
DWIDTH 9 0
BBX 9 18 0 -4
BITMAP
0000
0000
0000
0000
0000
0000
0000
0000
0000
0000
0000
0000
0000
0000
0000
3900
4E00
0000
ENDCHAR
STARTCHAR uni0331
ENCODING 817
SWIDTH 540 0
DWIDTH 9 0
BBX 9 18 0 -4
BITMAP
0000
0000
0000
0000
0000
0000
0000
0000
0000
0000
0000
0000
0000
0000
0000
7F00
0000
0000
ENDCHAR
STARTCHAR uni0332
ENCODING 818
SWIDTH 540 0
DWIDTH 9 0
BBX 9 18 0 -4
BITMAP
0000
0000
0000
0000
0000
0000
0000
0000
0000
0000
0000
0000
0000
0000
0000
FF80
0000
0000
ENDCHAR
STARTCHAR uni0333
ENCODING 819
SWIDTH 540 0
DWIDTH 9 0
BBX 9 18 0 -4
BITMAP
0000
0000
0000
0000
0000
0000
0000
0000
0000
0000
0000
0000
0000
0000
0000
FF80
0000
FF80
ENDCHAR
STARTCHAR uni0334
ENCODING 820
SWIDTH 540 0
DWIDTH 9 0
BBX 9 18 0 -4
BITMAP
0000
0000
0000
0000
0000
0000
0000
0000
0000
1A00
2C00
0000
0000
0000
0000
0000
0000
0000
ENDCHAR
STARTCHAR uni0335
ENCODING 821
SWIDTH 540 0
DWIDTH 9 0
BBX 9 18 0 -4
BITMAP
0000
0000
0000
0000
0000
0000
0000
0000
0000
3E00
0000
0000
0000
0000
0000
0000
0000
0000
ENDCHAR
STARTCHAR uni0336
ENCODING 822
SWIDTH 540 0
DWIDTH 9 0
BBX 9 18 0 -4
BITMAP
0000
0000
0000
0000
0000
0000
0000
0000
0000
7F00
0000
0000
0000
0000
0000
0000
0000
0000
ENDCHAR
STARTCHAR uni0337
ENCODING 823
SWIDTH 540 0
DWIDTH 9 0
BBX 9 18 0 -4
BITMAP
0000
0000
0000
0000
0000
0000
0100
0200
0400
0800
1000
2000
4000
0000
0000
0000
0000
0000
ENDCHAR
STARTCHAR uni0338
ENCODING 824
SWIDTH 540 0
DWIDTH 9 0
BBX 9 18 0 -4
BITMAP
0000
0000
0000
0100
0100
0200
0200
0400
0400
0800
1000
1000
2000
2000
4000
4000
0000
0000
ENDCHAR
STARTCHAR uni0339
ENCODING 825
SWIDTH 540 0
DWIDTH 9 0
BBX 9 18 0 -4
BITMAP
0000
0000
0000
0000
0000
0000
0000
0000
0000
0000
0000
0000
0000
0000
0000
0800
0400
0800
ENDCHAR
STARTCHAR uni033A
ENCODING 826
SWIDTH 540 0
DWIDTH 9 0
BBX 9 18 0 -4
BITMAP
0000
0000
0000
0000
0000
0000
0000
0000
0000
0000
0000
0000
0000
0000
0000
2200
3E00
0000
ENDCHAR
STARTCHAR uni033B
ENCODING 827
SWIDTH 540 0
DWIDTH 9 0
BBX 9 18 0 -4
BITMAP
0000
0000
0000
0000
0000
0000
0000
0000
0000
0000
0000
0000
0000
0000
0000
1C00
1400
1C00
ENDCHAR
STARTCHAR uni033C
ENCODING 828
SWIDTH 540 0
DWIDTH 9 0
BBX 9 18 0 -4
BITMAP
0000
0000
0000
0000
0000
0000
0000
0000
0000
0000
0000
0000
0000
0000
0000
3600
4900
0000
ENDCHAR
STARTCHAR uni033D
ENCODING 829
SWIDTH 540 0
DWIDTH 9 0
BBX 9 18 0 -4
BITMAP
3600
0800
3600
0000
0000
0000
0000
0000
0000
0000
0000
0000
0000
0000
0000
0000
0000
0000
ENDCHAR
STARTCHAR uni033E
ENCODING 830
SWIDTH 540 0
DWIDTH 9 0
BBX 9 18 0 -4
BITMAP
0800
1000
0800
1000
0000
0000
0000
0000
0000
0000
0000
0000
0000
0000
0000
0000
0000
0000
ENDCHAR
STARTCHAR uni033F
ENCODING 831
SWIDTH 540 0
DWIDTH 9 0
BBX 9 18 0 -4
BITMAP
FF80
0000
FF80
0000
0000
0000
0000
0000
0000
0000
0000
0000
0000
0000
0000
0000
0000
0000
ENDCHAR
STARTCHAR uni0340
ENCODING 832
SWIDTH 540 0
DWIDTH 9 0
BBX 9 18 0 -4
BITMAP
0000
4000
2000
0000
0000
0000
0000
0000
0000
0000
0000
0000
0000
0000
0000
0000
0000
0000
ENDCHAR
STARTCHAR uni0341
ENCODING 833
SWIDTH 540 0
DWIDTH 9 0
BBX 9 18 0 -4
BITMAP
0000
0100
0200
0000
0000
0000
0000
0000
0000
0000
0000
0000
0000
0000
0000
0000
0000
0000
ENDCHAR
STARTCHAR uni0342
ENCODING 834
SWIDTH 540 0
DWIDTH 9 0
BBX 9 18 0 -4
BITMAP
0000
1A00
2C00
0000
0000
0000
0000
0000
0000
0000
0000
0000
0000
0000
0000
0000
0000
0000
ENDCHAR
STARTCHAR uni0343
ENCODING 835
SWIDTH 540 0
DWIDTH 9 0
BBX 9 18 0 -4
BITMAP
0C00
0400
0800
0000
0000
0000
0000
0000
0000
0000
0000
0000
0000
0000
0000
0000
0000
0000
ENDCHAR
STARTCHAR uni0344
ENCODING 836
SWIDTH 540 0
DWIDTH 9 0
BBX 9 18 0 -4
BITMAP
0400
4900
5100
0000
0000
0000
0000
0000
0000
0000
0000
0000
0000
0000
0000
0000
0000
0000
ENDCHAR
STARTCHAR uni0345
ENCODING 837
SWIDTH 540 0
DWIDTH 9 0
BBX 9 18 0 -4
BITMAP
0000
0000
0000
0000
0000
0000
0000
0000
0000
0000
0000
0000
0000
0000
0000
0800
0C00
0000
ENDCHAR
STARTCHAR uni0346
ENCODING 838
SWIDTH 540 0
DWIDTH 9 0
BBX 9 18 0 -4
BITMAP
0000
3E00
2200
0000
0000
0000
0000
0000
0000
0000
0000
0000
0000
0000
0000
0000
0000
0000
ENDCHAR
STARTCHAR uni0347
ENCODING 839
SWIDTH 540 0
DWIDTH 9 0
BBX 9 18 0 -4
BITMAP
0000
0000
0000
0000
0000
0000
0000
0000
0000
0000
0000
0000
0000
0000
0000
3E00
0000
3E00
ENDCHAR
STARTCHAR uni0348
ENCODING 840
SWIDTH 540 0
DWIDTH 9 0
BBX 9 18 0 -4
BITMAP
0000
0000
0000
0000
0000
0000
0000
0000
0000
0000
0000
0000
0000
0000
0000
1400
1400
1400
ENDCHAR
STARTCHAR uni0349
ENCODING 841
SWIDTH 540 0
DWIDTH 9 0
BBX 9 18 0 -4
BITMAP
0000
0000
0000
0000
0000
0000
0000
0000
0000
0000
0000
0000
0000
0000
0000
1C00
0400
0400
ENDCHAR
STARTCHAR uni034A
ENCODING 842
SWIDTH 540 0
DWIDTH 9 0
BBX 9 18 0 -4
BITMAP
0400
3900
4E00
1000
0000
0000
0000
0000
0000
0000
0000
0000
0000
0000
0000
0000
0000
0000
ENDCHAR
STARTCHAR uni034B
ENCODING 843
SWIDTH 540 0
DWIDTH 9 0
BBX 9 18 0 -4
BITMAP
0200
7880
8F00
2000
0000
0000
0000
0000
0000
0000
0000
0000
0000
0000
0000
0000
0000
0000
ENDCHAR
STARTCHAR uni034C
ENCODING 844
SWIDTH 540 0
DWIDTH 9 0
BBX 9 18 0 -4
BITMAP
3900
4E00
3900
4E00
0000
0000
0000
0000
0000
0000
0000
0000
0000
0000
0000
0000
0000
0000
ENDCHAR
STARTCHAR uni034D
ENCODING 845
SWIDTH 540 0
DWIDTH 9 0
BBX 9 18 0 -4
BITMAP
0000
0000
0000
0000
0000
0000
0000
0000
0000
0000
0000
0000
0000
0000
2200
7F00
2200
0000
ENDCHAR
STARTCHAR uni034E
ENCODING 846
SWIDTH 540 0
DWIDTH 9 0
BBX 9 18 0 -4
BITMAP
0000
0000
0000
0000
0000
0000
0000
0000
0000
0000
0000
0000
0000
0000
0800
1C00
0800
0800
ENDCHAR
STARTCHAR uni034F
ENCODING 847
SWIDTH 540 0
DWIDTH 9 0
BBX 9 18 0 -4
BITMAP
0000
0000
0000
0000
0000
0000
0000
0000
0000
0000
0000
0000
0000
0000
0000
0000
0000
0000
ENDCHAR
STARTCHAR uni0350
ENCODING 848
SWIDTH 540 0
DWIDTH 9 0
BBX 9 18 0 -4
BITMAP
0000
0400
0200
0400
0800
0000
0000
0000
0000
0000
0000
0000
0000
0000
0000
0000
0000
0000
ENDCHAR
STARTCHAR uni0351
ENCODING 849
SWIDTH 540 0
DWIDTH 9 0
BBX 9 18 0 -4
BITMAP
0000
1800
2000
2000
1800
0000
0000
0000
0000
0000
0000
0000
0000
0000
0000
0000
0000
0000
ENDCHAR
STARTCHAR uni0352
ENCODING 850
SWIDTH 540 0
DWIDTH 9 0
BBX 9 18 0 -4
BITMAP
0000
3C00
4200
5A00
1800
0000
0000
0000
0000
0000
0000
0000
0000
0000
0000
0000
0000
0000
ENDCHAR
STARTCHAR uni0353
ENCODING 851
SWIDTH 540 0
DWIDTH 9 0
BBX 9 18 0 -4
BITMAP
0000
0000
0000
0000
0000
0000
0000
0000
0000
0000
0000
0000
0000
0000
2400
1800
1800
0000
ENDCHAR
STARTCHAR uni0354
ENCODING 852
SWIDTH 540 0
DWIDTH 9 0
BBX 9 18 0 -4
BITMAP
0000
0000
0000
0000
0000
0000
0000
0000
0000
0000
0000
0000
0000
0400
0800
1000
0800
0000
ENDCHAR
STARTCHAR uni0355
ENCODING 853
SWIDTH 540 0
DWIDTH 9 0
BBX 9 18 0 -4
BITMAP
0000
0000
0000
0000
0000
0000
0000
0000
0000
0000
0000
0000
0000
1000
0800
0400
0800
0000
ENDCHAR
STARTCHAR uni0356
ENCODING 854
SWIDTH 540 0
DWIDTH 9 0
BBX 9 18 0 -4
BITMAP
0000
0000
0000
0000
0000
0000
0000
0000
0000
0000
0000
0000
0000
8400
4A00
2A00
5100
0000
ENDCHAR
STARTCHAR uni0357
ENCODING 855
SWIDTH 540 0
DWIDTH 9 0
BBX 9 18 0 -4
BITMAP
0000
1800
0400
0400
1800
0000
0000
0000
0000
0000
0000
0000
0000
0000
0000
0000
0000
0000
ENDCHAR
STARTCHAR uni0358
ENCODING 856
SWIDTH 540 0
DWIDTH 9 0
BBX 9 18 0 -4
BITMAP
0000
0000
0600
0600
0000
0000
0000
0000
0000
0000
0000
0000
0000
0000
0000
0000
0000
0000
ENDCHAR
STARTCHAR uni0359
ENCODING 857
SWIDTH 540 0
DWIDTH 9 0
BBX 9 18 0 -4
BITMAP
0000
0000
0000
0000
0000
0000
0000
0000
0000
0000
0000
0000
0000
5400
3800
7C00
3800
0000
ENDCHAR
STARTCHAR uni035A
ENCODING 858
SWIDTH 540 0
DWIDTH 9 0
BBX 9 18 0 -4
BITMAP
0000
0000
0000
0000
0000
0000
0000
0000
0000
0000
0000
0000
0000
3800
5400
5400
5400
0000
ENDCHAR
STARTCHAR uni035B
ENCODING 859
SWIDTH 540 0
DWIDTH 9 0
BBX 9 18 0 -4
BITMAP
0000
0800
1000
3E00
0400
0800
0000
0000
0000
0000
0000
0000
0000
0000
0000
0000
0000
0000
ENDCHAR
STARTCHAR uni035C
ENCODING 860
SWIDTH 540 0
DWIDTH 9 0
BBX 9 18 0 -4
BITMAP
0000
0000
0000
0000
0000
0000
0000
0000
0000
0000
0000
0000
0000
0000
4100
3E00
0000
0000
ENDCHAR
STARTCHAR uni035D
ENCODING 861
SWIDTH 540 0
DWIDTH 9 0
BBX 9 18 0 -4
BITMAP
0000
0000
0000
0000
0000
4100
3E00
0000
0000
0000
0000
0000
0000
0000
0000
0000
0000
0000
ENDCHAR
STARTCHAR uni035E
ENCODING 862
SWIDTH 540 0
DWIDTH 9 0
BBX 9 18 0 -4
BITMAP
0000
0000
0000
0000
0000
0000
7F00
0000
0000
0000
0000
0000
0000
0000
0000
0000
0000
0000
ENDCHAR
STARTCHAR uni035F
ENCODING 863
SWIDTH 540 0
DWIDTH 9 0
BBX 9 18 0 -4
BITMAP
0000
0000
0000
0000
0000
0000
0000
0000
0000
0000
0000
0000
0000
0000
0000
7F00
0000
0000
ENDCHAR
STARTCHAR uni0360
ENCODING 864
SWIDTH 540 0
DWIDTH 9 0
BBX 9 18 0 -4
BITMAP
0000
1C80
2700
0000
0000
0000
0000
0000
0000
0000
0000
0000
0000
0000
0000
0000
0000
0000
ENDCHAR
STARTCHAR uni0361
ENCODING 865
SWIDTH 540 0
DWIDTH 9 0
BBX 9 18 0 -4
BITMAP
0000
1F00
2080
0000
0000
0000
0000
0000
0000
0000
0000
0000
0000
0000
0000
0000
0000
0000
ENDCHAR
STARTCHAR uni0362
ENCODING 866
SWIDTH 540 0
DWIDTH 9 0
BBX 9 18 0 -4
BITMAP
0000
0000
0000
0000
0000
0000
0000
0000
0000
0000
0000
0000
0000
0200
0300
3F80
0300
0200
ENDCHAR
STARTCHAR uni0363
ENCODING 867
SWIDTH 540 0
DWIDTH 9 0
BBX 9 18 0 -4
BITMAP
1800
0400
1C00
2400
1C00
0000
0000
0000
0000
0000
0000
0000
0000
0000
0000
0000
0000
0000
ENDCHAR
STARTCHAR uni0364
ENCODING 868
SWIDTH 540 0
DWIDTH 9 0
BBX 9 18 0 -4
BITMAP
1800
2400
3C00
2000
1800
0000
0000
0000
0000
0000
0000
0000
0000
0000
0000
0000
0000
0000
ENDCHAR
STARTCHAR uni0365
ENCODING 869
SWIDTH 540 0
DWIDTH 9 0
BBX 9 18 0 -4
BITMAP
0800
0000
0800
0800
0000
0000
0000
0000
0000
0000
0000
0000
0000
0000
0000
0000
0000
0000
ENDCHAR
STARTCHAR uni0366
ENCODING 870
SWIDTH 540 0
DWIDTH 9 0
BBX 9 18 0 -4
BITMAP
1800
2400
2400
1800
0000
0000
0000
0000
0000
0000
0000
0000
0000
0000
0000
0000
0000
0000
ENDCHAR
STARTCHAR uni0367
ENCODING 871
SWIDTH 540 0
DWIDTH 9 0
BBX 9 18 0 -4
BITMAP
2400
2400
2400
1C00
0000
0000
0000
0000
0000
0000
0000
0000
0000
0000
0000
0000
0000
0000
ENDCHAR
STARTCHAR uni0368
ENCODING 872
SWIDTH 540 0
DWIDTH 9 0
BBX 9 18 0 -4
BITMAP
1C00
2000
2000
1C00
0000
0000
0000
0000
0000
0000
0000
0000
0000
0000
0000
0000
0000
0000
ENDCHAR
STARTCHAR uni0369
ENCODING 873
SWIDTH 540 0
DWIDTH 9 0
BBX 9 18 0 -4
BITMAP
0400
1C00
2400
1C00
0000
0000
0000
0000
0000
0000
0000
0000
0000
0000
0000
0000
0000
0000
ENDCHAR
STARTCHAR uni036A
ENCODING 874
SWIDTH 540 0
DWIDTH 9 0
BBX 9 18 0 -4
BITMAP
2000
3800
2400
2400
0000
0000
0000
0000
0000
0000
0000
0000
0000
0000
0000
0000
0000
0000
ENDCHAR
STARTCHAR uni036B
ENCODING 875
SWIDTH 540 0
DWIDTH 9 0
BBX 9 18 0 -4
BITMAP
3400
2A00
2A00
2A00
0000
0000
0000
0000
0000
0000
0000
0000
0000
0000
0000
0000
0000
0000
ENDCHAR
STARTCHAR uni036C
ENCODING 876
SWIDTH 540 0
DWIDTH 9 0
BBX 9 18 0 -4
BITMAP
1400
1800
1000
1000
0000
0000
0000
0000
0000
0000
0000
0000
0000
0000
0000
0000
0000
0000
ENDCHAR
STARTCHAR uni036D
ENCODING 877
SWIDTH 540 0
DWIDTH 9 0
BBX 9 18 0 -4
BITMAP
1000
3800
1000
0C00
0000
0000
0000
0000
0000
0000
0000
0000
0000
0000
0000
0000
0000
0000
ENDCHAR
STARTCHAR uni036E
ENCODING 878
SWIDTH 540 0
DWIDTH 9 0
BBX 9 18 0 -4
BITMAP
1400
1400
0800
0800
0000
0000
0000
0000
0000
0000
0000
0000
0000
0000
0000
0000
0000
0000
ENDCHAR
STARTCHAR uni036F
ENCODING 879
SWIDTH 540 0
DWIDTH 9 0
BBX 9 18 0 -4
BITMAP
1400
0800
0800
1400
0000
0000
0000
0000
0000
0000
0000
0000
0000
0000
0000
0000
0000
0000
ENDCHAR
STARTCHAR uni0370
ENCODING 880
SWIDTH 540 0
DWIDTH 9 0
BBX 9 18 0 -4
BITMAP
0000
0000
0000
0000
0000
4000
4000
4000
4000
7C00
4000
4000
4000
4000
4000
0000
0000
0000
ENDCHAR
STARTCHAR uni0371
ENCODING 881
SWIDTH 540 0
DWIDTH 9 0
BBX 9 18 0 -4
BITMAP
0000
0000
0000
0000
0000
0000
0000
2000
5000
5000
1E00
1000
1000
1000
1000
0000
0000
0000
ENDCHAR
STARTCHAR uni0372
ENCODING 882
SWIDTH 540 0
DWIDTH 9 0
BBX 9 18 0 -4
BITMAP
0000
0000
0000
0000
0000
FE00
9200
9200
9200
1000
1000
1000
1000
1000
1000
0000
0000
0000
ENDCHAR
STARTCHAR uni0373
ENCODING 883
SWIDTH 540 0
DWIDTH 9 0
BBX 9 18 0 -4
BITMAP
0000
0000
0000
0000
0000
7C00
5400
5400
5400
1000
1000
1000
1000
1000
1000
0000
0000
0000
ENDCHAR
STARTCHAR uni0374
ENCODING 884
SWIDTH 540 0
DWIDTH 9 0
BBX 9 18 0 -4
BITMAP
0000
0000
0000
0400
0800
1000
0000
0000
0000
0000
0000
0000
0000
0000
0000
0000
0000
0000
ENDCHAR
STARTCHAR uni0375
ENCODING 885
SWIDTH 540 0
DWIDTH 9 0
BBX 9 18 0 -4
BITMAP
0000
0000
0000
0000
0000
0000
0000
0000
0000
0000
0000
0000
0000
0000
0400
0800
1000
0000
ENDCHAR
STARTCHAR uni0376
ENCODING 886
SWIDTH 540 0
DWIDTH 9 0
BBX 9 18 0 -4
BITMAP
0000
0000
0000
0000
0000
4200
4600
4600
4A00
4A00
5200
5200
6200
6200
4200
0000
0000
0000
ENDCHAR
STARTCHAR uni0377
ENCODING 887
SWIDTH 540 0
DWIDTH 9 0
BBX 9 18 0 -4
BITMAP
0000
0000
0000
0000
0000
0000
0000
8800
9800
9800
A800
A800
CA00
CA00
8400
0000
0000
0000
ENDCHAR
STARTCHAR uni037A
ENCODING 890
SWIDTH 540 0
DWIDTH 9 0
BBX 9 18 0 -4
BITMAP
0000
0000
0000
0000
0000
0000
0000
0000
0000
0000
0000
0000
0000
0000
0000
0800
0C00
0000
ENDCHAR
STARTCHAR uni037B
ENCODING 891
SWIDTH 540 0
DWIDTH 9 0
BBX 9 18 0 -4
BITMAP
0000
0000
0000
0000
0000
0000
0000
3C00
4200
0200
0200
0200
0200
4200
3C00
0000
0000
0000
ENDCHAR
STARTCHAR uni037C
ENCODING 892
SWIDTH 540 0
DWIDTH 9 0
BBX 9 18 0 -4
BITMAP
0000
0000
0000
0000
0000
0000
0000
3C00
4200
4000
5800
5800
4000
4200
3C00
0000
0000
0000
ENDCHAR
STARTCHAR uni037D
ENCODING 893
SWIDTH 540 0
DWIDTH 9 0
BBX 9 18 0 -4
BITMAP
0000
0000
0000
0000
0000
0000
0000
3C00
4200
0200
1A00
1A00
0200
4200
3C00
0000
0000
0000
ENDCHAR
STARTCHAR uni037E
ENCODING 894
SWIDTH 540 0
DWIDTH 9 0
BBX 9 18 0 -4
BITMAP
0000
0000
0000
0000
0000
0000
0000
0C00
0C00
0000
0000
0000
0C00
0C00
0400
0400
0800
0000
ENDCHAR
STARTCHAR tonos
ENCODING 900
SWIDTH 540 0
DWIDTH 9 0
BBX 9 18 0 -4
BITMAP
0000
0000
0000
0400
0800
1000
0000
0000
0000
0000
0000
0000
0000
0000
0000
0000
0000
0000
ENDCHAR
STARTCHAR dieresistonos
ENCODING 901
SWIDTH 540 0
DWIDTH 9 0
BBX 9 18 0 -4
BITMAP
0000
0000
0000
0400
4900
5100
0000
0000
0000
0000
0000
0000
0000
0000
0000
0000
0000
0000
ENDCHAR
STARTCHAR Alphatonos
ENCODING 902
SWIDTH 540 0
DWIDTH 9 0
BBX 9 18 0 -4
BITMAP
0400
0800
1000
0000
0800
1400
1400
1400
2200
3E00
2200
2200
4100
4100
0000
0000
0000
0000
ENDCHAR
STARTCHAR anoteleia
ENCODING 903
SWIDTH 540 0
DWIDTH 9 0
BBX 9 18 0 -4
BITMAP
0000
0000
0000
0000
0000
0000
0000
1800
1800
0000
0000
0000
0000
0000
0000
0000
0000
0000
ENDCHAR
STARTCHAR Epsilontonos
ENCODING 904
SWIDTH 540 0
DWIDTH 9 0
BBX 9 18 0 -4
BITMAP
0400
0800
1000
0000
7F00
4000
4000
4000
7C00
4000
4000
4000
4000
7F00
0000
0000
0000
0000
ENDCHAR
STARTCHAR Etatonos
ENCODING 905
SWIDTH 540 0
DWIDTH 9 0
BBX 9 18 0 -4
BITMAP
0400
0800
1000
0000
4100
4100
4100
4100
7F00
4100
4100
4100
4100
4100
0000
0000
0000
0000
ENDCHAR
STARTCHAR Iotatonos
ENCODING 906
SWIDTH 540 0
DWIDTH 9 0
BBX 9 18 0 -4
BITMAP
0400
0800
1000
0000
3E00
0800
0800
0800
0800
0800
0800
0800
0800
3E00
0000
0000
0000
0000
ENDCHAR
STARTCHAR Omicrontonos
ENCODING 908
SWIDTH 540 0
DWIDTH 9 0
BBX 9 18 0 -4
BITMAP
0400
0800
1000
0000
3E00
4100
4100
4100
4100
4100
4100
4100
4100
3E00
0000
0000
0000
0000
ENDCHAR
STARTCHAR Upsilontonos
ENCODING 910
SWIDTH 540 0
DWIDTH 9 0
BBX 9 18 0 -4
BITMAP
0400
0800
1000
0000
4100
4100
2200
1400
0800
0800
0800
0800
0800
0800
0000
0000
0000
0000
ENDCHAR
STARTCHAR Omegatonos
ENCODING 911
SWIDTH 540 0
DWIDTH 9 0
BBX 9 18 0 -4
BITMAP
0400
0800
1000
0000
1C00
2200
4100
4100
4100
4100
4100
2200
1400
7700
0000
0000
0000
0000
ENDCHAR
STARTCHAR iotadieresistonos
ENCODING 912
SWIDTH 540 0
DWIDTH 9 0
BBX 9 18 0 -4
BITMAP
0000
0000
0000
0400
4900
5100
0000
1000
1000
1000
1000
1000
1200
0C00
0000
0000
0000
0000
ENDCHAR
STARTCHAR Alpha
ENCODING 913
SWIDTH 540 0
DWIDTH 9 0
BBX 9 18 0 -4
BITMAP
0000
0000
0000
0000
0800
1400
1400
1400
2200
3E00
2200
4100
4100
4100
0000
0000
0000
0000
ENDCHAR
STARTCHAR Beta
ENCODING 914
SWIDTH 540 0
DWIDTH 9 0
BBX 9 18 0 -4
BITMAP
0000
0000
0000
0000
7C00
4200
4100
4200
7C00
4200
4100
4100
4200
7C00
0000
0000
0000
0000
ENDCHAR
STARTCHAR Gamma
ENCODING 915
SWIDTH 540 0
DWIDTH 9 0
BBX 9 18 0 -4
BITMAP
0000
0000
0000
0000
7E00
4000
4000
4000
4000
4000
4000
4000
4000
4000
0000
0000
0000
0000
ENDCHAR
STARTCHAR Delta
ENCODING 916
SWIDTH 540 0
DWIDTH 9 0
BBX 9 18 0 -4
BITMAP
0000
0000
0000
0000
0800
0800
1400
1400
1400
2200
2200
2200
4100
7F00
0000
0000
0000
0000
ENDCHAR
STARTCHAR Epsilon
ENCODING 917
SWIDTH 540 0
DWIDTH 9 0
BBX 9 18 0 -4
BITMAP
0000
0000
0000
0000
7F00
4000
4000
4000
7C00
4000
4000
4000
4000
7F00
0000
0000
0000
0000
ENDCHAR
STARTCHAR Zeta
ENCODING 918
SWIDTH 540 0
DWIDTH 9 0
BBX 9 18 0 -4
BITMAP
0000
0000
0000
0000
7F00
0100
0200
0400
0800
1000
2000
4000
4000
7F00
0000
0000
0000
0000
ENDCHAR
STARTCHAR Eta
ENCODING 919
SWIDTH 540 0
DWIDTH 9 0
BBX 9 18 0 -4
BITMAP
0000
0000
0000
0000
4100
4100
4100
4100
7F00
4100
4100
4100
4100
4100
0000
0000
0000
0000
ENDCHAR
STARTCHAR Theta
ENCODING 920
SWIDTH 540 0
DWIDTH 9 0
BBX 9 18 0 -4
BITMAP
0000
0000
0000
0000
3E00
4100
4100
4100
7F00
4100
4100
4100
4100
3E00
0000
0000
0000
0000
ENDCHAR
STARTCHAR Iota
ENCODING 921
SWIDTH 540 0
DWIDTH 9 0
BBX 9 18 0 -4
BITMAP
0000
0000
0000
0000
3E00
0800
0800
0800
0800
0800
0800
0800
0800
3E00
0000
0000
0000
0000
ENDCHAR
STARTCHAR Kappa
ENCODING 922
SWIDTH 540 0
DWIDTH 9 0
BBX 9 18 0 -4
BITMAP
0000
0000
0000
0000
4100
4200
4400
4800
5000
6800
4400
4200
4100
4100
0000
0000
0000
0000
ENDCHAR
STARTCHAR Lambda
ENCODING 923
SWIDTH 540 0
DWIDTH 9 0
BBX 9 18 0 -4
BITMAP
0000
0000
0000
0000
0800
1400
1400
1400
2200
2200
2200
4100
4100
4100
0000
0000
0000
0000
ENDCHAR
STARTCHAR Mu
ENCODING 924
SWIDTH 540 0
DWIDTH 9 0
BBX 9 18 0 -4
BITMAP
0000
0000
0000
0000
4100
4100
6300
5500
4900
4100
4100
4100
4100
4100
0000
0000
0000
0000
ENDCHAR
STARTCHAR Nu
ENCODING 925
SWIDTH 540 0
DWIDTH 9 0
BBX 9 18 0 -4
BITMAP
0000
0000
0000
0000
4100
4100
6100
5100
4900
4500
4300
4100
4100
4100
0000
0000
0000
0000
ENDCHAR
STARTCHAR Xi
ENCODING 926
SWIDTH 540 0
DWIDTH 9 0
BBX 9 18 0 -4
BITMAP
0000
0000
0000
0000
7F00
0000
0000
0000
3E00
0000
0000
0000
0000
7F00
0000
0000
0000
0000
ENDCHAR
STARTCHAR Omicron
ENCODING 927
SWIDTH 540 0
DWIDTH 9 0
BBX 9 18 0 -4
BITMAP
0000
0000
0000
0000
3E00
4100
4100
4100
4100
4100
4100
4100
4100
3E00
0000
0000
0000
0000
ENDCHAR
STARTCHAR Pi
ENCODING 928
SWIDTH 540 0
DWIDTH 9 0
BBX 9 18 0 -4
BITMAP
0000
0000
0000
0000
7F00
2200
2200
2200
2200
2200
2200
2200
2200
2200
0000
0000
0000
0000
ENDCHAR
STARTCHAR Rho
ENCODING 929
SWIDTH 540 0
DWIDTH 9 0
BBX 9 18 0 -4
BITMAP
0000
0000
0000
0000
7C00
4200
4100
4100
4200
7C00
4000
4000
4000
4000
0000
0000
0000
0000
ENDCHAR
STARTCHAR Sigma
ENCODING 931
SWIDTH 540 0
DWIDTH 9 0
BBX 9 18 0 -4
BITMAP
0000
0000
0000
0000
7F00
2000
1000
0800
0400
0400
0800
1000
2000
7F00
0000
0000
0000
0000
ENDCHAR
STARTCHAR Tau
ENCODING 932
SWIDTH 540 0
DWIDTH 9 0
BBX 9 18 0 -4
BITMAP
0000
0000
0000
0000
7F00
0800
0800
0800
0800
0800
0800
0800
0800
0800
0000
0000
0000
0000
ENDCHAR
STARTCHAR Upsilon
ENCODING 933
SWIDTH 540 0
DWIDTH 9 0
BBX 9 18 0 -4
BITMAP
0000
0000
0000
0000
4100
4100
2200
1400
0800
0800
0800
0800
0800
0800
0000
0000
0000
0000
ENDCHAR
STARTCHAR Phi
ENCODING 934
SWIDTH 540 0
DWIDTH 9 0
BBX 9 18 0 -4
BITMAP
0000
0000
0000
0000
0800
3E00
4900
4900
4900
4900
4900
4900
3E00
0800
0000
0000
0000
0000
ENDCHAR
STARTCHAR Chi
ENCODING 935
SWIDTH 540 0
DWIDTH 9 0
BBX 9 18 0 -4
BITMAP
0000
0000
0000
0000
4100
4100
2200
1400
0800
0800
1400
2200
4100
4100
0000
0000
0000
0000
ENDCHAR
STARTCHAR Psi
ENCODING 936
SWIDTH 540 0
DWIDTH 9 0
BBX 9 18 0 -4
BITMAP
0000
0000
0000
0000
4900
4900
4900
4900
4900
4900
3E00
0800
0800
0800
0000
0000
0000
0000
ENDCHAR
STARTCHAR Omega
ENCODING 937
SWIDTH 540 0
DWIDTH 9 0
BBX 9 18 0 -4
BITMAP
0000
0000
0000
0000
1C00
2200
4100
4100
4100
4100
4100
2200
1400
7700
0000
0000
0000
0000
ENDCHAR
STARTCHAR Iotadieresis
ENCODING 938
SWIDTH 540 0
DWIDTH 9 0
BBX 9 18 0 -4
BITMAP
0000
1400
1400
0000
3E00
0800
0800
0800
0800
0800
0800
0800
0800
3E00
0000
0000
0000
0000
ENDCHAR
STARTCHAR Upsilondieresis
ENCODING 939
SWIDTH 540 0
DWIDTH 9 0
BBX 9 18 0 -4
BITMAP
0000
1400
1400
0000
4100
4100
2200
1400
0800
0800
0800
0800
0800
0800
0000
0000
0000
0000
ENDCHAR
STARTCHAR alphatonos
ENCODING 940
SWIDTH 540 0
DWIDTH 9 0
BBX 9 18 0 -4
BITMAP
0000
0000
0000
0400
0800
1000
0000
3D00
4300
4100
4100
4300
4500
3900
0000
0000
0000
0000
ENDCHAR
STARTCHAR epsilontonos
ENCODING 941
SWIDTH 540 0
DWIDTH 9 0
BBX 9 18 0 -4
BITMAP
0000
0000
0000
0400
0800
1000
0000
3E00
4100
4000
3C00
4000
4100
3E00
0000
0000
0000
0000
ENDCHAR
STARTCHAR etatonos
ENCODING 942
SWIDTH 540 0
DWIDTH 9 0
BBX 9 18 0 -4
BITMAP
0000
0000
0000
0400
0800
1000
0000
5E00
6100
4100
4100
4100
4100
4100
0100
0100
0100
0000
ENDCHAR
STARTCHAR iotatonos
ENCODING 943
SWIDTH 540 0
DWIDTH 9 0
BBX 9 18 0 -4
BITMAP
0000
0000
0000
0400
0800
1000
0000
1000
1000
1000
1000
1000
1200
0C00
0000
0000
0000
0000
ENDCHAR
STARTCHAR upsilondieresistonos
ENCODING 944
SWIDTH 540 0
DWIDTH 9 0
BBX 9 18 0 -4
BITMAP
0000
0000
0000
0400
4900
5100
0000
4100
4100
4100
4100
4100
4100
3E00
0000
0000
0000
0000
ENDCHAR
STARTCHAR alpha
ENCODING 945
SWIDTH 540 0
DWIDTH 9 0
BBX 9 18 0 -4
BITMAP
0000
0000
0000
0000
0000
0000
0000
3D00
4300
4100
4100
4300
4500
3900
0000
0000
0000
0000
ENDCHAR
STARTCHAR beta
ENCODING 946
SWIDTH 540 0
DWIDTH 9 0
BBX 9 18 0 -4
BITMAP
0000
0000
0000
0000
3800
4400
4400
4400
7E00
4100
4100
4100
6100
5E00
4000
4000
4000
0000
ENDCHAR
STARTCHAR gamma
ENCODING 947
SWIDTH 540 0
DWIDTH 9 0
BBX 9 18 0 -4
BITMAP
0000
0000
0000
0000
0000
0000
0000
4100
4100
2200
2200
1400
1400
0800
0800
0800
0800
0000
ENDCHAR
STARTCHAR delta
ENCODING 948
SWIDTH 540 0
DWIDTH 9 0
BBX 9 18 0 -4
BITMAP
0000
0000
0000
0000
3E00
4100
2000
3E00
4100
4100
4100
4100
4100
3E00
0000
0000
0000
0000
ENDCHAR
STARTCHAR epsilon
ENCODING 949
SWIDTH 540 0
DWIDTH 9 0
BBX 9 18 0 -4
BITMAP
0000
0000
0000
0000
0000
0000
0000
3E00
4100
4000
3C00
4000
4100
3E00
0000
0000
0000
0000
ENDCHAR
STARTCHAR zeta
ENCODING 950
SWIDTH 540 0
DWIDTH 9 0
BBX 9 18 0 -4
BITMAP
0000
0000
0000
0000
7F00
0800
1000
2000
4000
4000
4000
4000
4000
3E00
0100
0100
0600
0000
ENDCHAR
STARTCHAR eta
ENCODING 951
SWIDTH 540 0
DWIDTH 9 0
BBX 9 18 0 -4
BITMAP
0000
0000
0000
0000
0000
0000
0000
5E00
6100
4100
4100
4100
4100
4100
0100
0100
0100
0000
ENDCHAR
STARTCHAR theta
ENCODING 952
SWIDTH 540 0
DWIDTH 9 0
BBX 9 18 0 -4
BITMAP
0000
0000
0000
0000
3C00
4200
4200
4200
7E00
4200
4200
4200
4200
3C00
0000
0000
0000
0000
ENDCHAR
STARTCHAR iota
ENCODING 953
SWIDTH 540 0
DWIDTH 9 0
BBX 9 18 0 -4
BITMAP
0000
0000
0000
0000
0000
0000
0000
1000
1000
1000
1000
1000
1200
0C00
0000
0000
0000
0000
ENDCHAR
STARTCHAR kappa
ENCODING 954
SWIDTH 540 0
DWIDTH 9 0
BBX 9 18 0 -4
BITMAP
0000
0000
0000
0000
0000
0000
0000
4200
4400
4800
5000
6800
4400
4200
0000
0000
0000
0000
ENDCHAR
STARTCHAR lambda
ENCODING 955
SWIDTH 540 0
DWIDTH 9 0
BBX 9 18 0 -4
BITMAP
0000
0000
0000
0000
3C00
4200
0200
3A00
4600
4200
4200
4200
4200
4200
0000
0000
0000
0000
ENDCHAR
STARTCHAR mu
ENCODING 956
SWIDTH 540 0
DWIDTH 9 0
BBX 9 18 0 -4
BITMAP
0000
0000
0000
0000
0000
0000
0000
4100
4100
4100
4100
4100
6300
5D00
4000
4000
4000
0000
ENDCHAR
STARTCHAR nu
ENCODING 957
SWIDTH 540 0
DWIDTH 9 0
BBX 9 18 0 -4
BITMAP
0000
0000
0000
0000
0000
0000
0000
4100
4100
2200
2200
1400
1400
0800
0000
0000
0000
0000
ENDCHAR
STARTCHAR xi
ENCODING 958
SWIDTH 540 0
DWIDTH 9 0
BBX 9 18 0 -4
BITMAP
0000
0000
0000
0000
7F00
1000
2000
2000
1C00
2000
4000
4000
4000
3E00
0100
0100
0600
0000
ENDCHAR
STARTCHAR omicron
ENCODING 959
SWIDTH 540 0
DWIDTH 9 0
BBX 9 18 0 -4
BITMAP
0000
0000
0000
0000
0000
0000
0000
1C00
2200
4100
4100
4100
2200
1C00
0000
0000
0000
0000
ENDCHAR
STARTCHAR pi
ENCODING 960
SWIDTH 540 0
DWIDTH 9 0
BBX 9 18 0 -4
BITMAP
0000
0000
0000
0000
0000
0000
0000
7F00
2200
2200
2200
2200
2200
2200
0000
0000
0000
0000
ENDCHAR
STARTCHAR rho
ENCODING 961
SWIDTH 540 0
DWIDTH 9 0
BBX 9 18 0 -4
BITMAP
0000
0000
0000
0000
0000
0000
0000
3E00
4100
4100
4100
4100
6100
5E00
4000
4000
4000
0000
ENDCHAR
STARTCHAR sigma1
ENCODING 962
SWIDTH 540 0
DWIDTH 9 0
BBX 9 18 0 -4
BITMAP
0000
0000
0000
0000
0000
0000
0000
3E00
4100
4000
4000
4000
4000
3E00
0100
0100
0E00
0000
ENDCHAR
STARTCHAR sigma
ENCODING 963
SWIDTH 540 0
DWIDTH 9 0
BBX 9 18 0 -4
BITMAP
0000
0000
0000
0000
0000
0000
0000
3F00
4400
4200
4100
4100
4100
3E00
0000
0000
0000
0000
ENDCHAR
STARTCHAR tau
ENCODING 964
SWIDTH 540 0
DWIDTH 9 0
BBX 9 18 0 -4
BITMAP
0000
0000
0000
0000
0000
0000
0000
7F00
0800
0800
0800
0800
0900
0600
0000
0000
0000
0000
ENDCHAR
STARTCHAR upsilon
ENCODING 965
SWIDTH 540 0
DWIDTH 9 0
BBX 9 18 0 -4
BITMAP
0000
0000
0000
0000
0000
0000
0000
4100
4100
4100
4100
4100
4100
3E00
0000
0000
0000
0000
ENDCHAR
STARTCHAR phi
ENCODING 966
SWIDTH 540 0
DWIDTH 9 0
BBX 9 18 0 -4
BITMAP
0000
0000
0000
0000
0000
0000
0000
2600
4900
4900
4900
4900
4900
3E00
0800
0800
0800
0000
ENDCHAR
STARTCHAR chi
ENCODING 967
SWIDTH 540 0
DWIDTH 9 0
BBX 9 18 0 -4
BITMAP
0000
0000
0000
0000
0000
0000
0000
4100
4100
2200
1400
0800
0800
1400
2200
4100
4100
0000
ENDCHAR
STARTCHAR psi
ENCODING 968
SWIDTH 540 0
DWIDTH 9 0
BBX 9 18 0 -4
BITMAP
0000
0000
0000
0000
0000
0000
0000
4900
4900
4900
4900
4900
4900
3E00
0800
0800
0800
0000
ENDCHAR
STARTCHAR omega
ENCODING 969
SWIDTH 540 0
DWIDTH 9 0
BBX 9 18 0 -4
BITMAP
0000
0000
0000
0000
0000
0000
0000
4100
4900
4900
4900
4900
4900
3600
0000
0000
0000
0000
ENDCHAR
STARTCHAR iotadieresis
ENCODING 970
SWIDTH 540 0
DWIDTH 9 0
BBX 9 18 0 -4
BITMAP
0000
0000
0000
0000
2800
2800
0000
1000
1000
1000
1000
1000
1200
0C00
0000
0000
0000
0000
ENDCHAR
STARTCHAR upsilondieresis
ENCODING 971
SWIDTH 540 0
DWIDTH 9 0
BBX 9 18 0 -4
BITMAP
0000
0000
0000
0000
1400
1400
0000
4100
4100
4100
4100
4100
4100
3E00
0000
0000
0000
0000
ENDCHAR
STARTCHAR omicrontonos
ENCODING 972
SWIDTH 540 0
DWIDTH 9 0
BBX 9 18 0 -4
BITMAP
0000
0000
0000
0400
0800
1000
0000
1C00
2200
4100
4100
4100
2200
1C00
0000
0000
0000
0000
ENDCHAR
STARTCHAR upsilontonos
ENCODING 973
SWIDTH 540 0
DWIDTH 9 0
BBX 9 18 0 -4
BITMAP
0000
0000
0000
0400
0800
1000
0000
4100
4100
4100
4100
4100
4100
3E00
0000
0000
0000
0000
ENDCHAR
STARTCHAR omegatonos
ENCODING 974
SWIDTH 540 0
DWIDTH 9 0
BBX 9 18 0 -4
BITMAP
0000
0000
0000
0400
0800
1000
0000
4100
4900
4900
4900
4900
4900
3600
0000
0000
0000
0000
ENDCHAR
STARTCHAR uni03CF
ENCODING 975
SWIDTH 540 0
DWIDTH 9 0
BBX 9 18 0 -4
BITMAP
0000
0000
0000
0000
0000
4200
4400
4800
5000
6000
6000
5000
4800
4400
4200
0400
0800
0000
ENDCHAR
STARTCHAR uni03D0
ENCODING 976
SWIDTH 540 0
DWIDTH 9 0
BBX 9 18 0 -4
BITMAP
0000
0000
0000
0000
1C00
2200
4200
4400
5E00
6100
4100
4100
2200
1C00
0000
0000
0000
0000
ENDCHAR
STARTCHAR theta1
ENCODING 977
SWIDTH 540 0
DWIDTH 9 0
BBX 9 18 0 -4
BITMAP
0000
0000
0000
0000
1C00
2200
2200
1F00
0200
6200
2200
2200
2200
1C00
0000
0000
0000
0000
ENDCHAR
STARTCHAR Upsilon1
ENCODING 978
SWIDTH 540 0
DWIDTH 9 0
BBX 9 18 0 -4
BITMAP
0000
0000
0000
0000
2200
5500
1400
1400
0800
0800
0800
0800
0800
0800
0000
0000
0000
0000
ENDCHAR
STARTCHAR uni03D3
ENCODING 979
SWIDTH 540 0
DWIDTH 9 0
BBX 9 18 0 -4
BITMAP
0000
0000
0000
0000
4A00
5500
8400
0400
0400
0400
0400
0400
0400
0400
0000
0000
0000
0000
ENDCHAR
STARTCHAR uni03D4
ENCODING 980
SWIDTH 540 0
DWIDTH 9 0
BBX 9 18 0 -4
BITMAP
0000
2200
2200
0000
2200
5500
1400
1400
0800
0800
0800
0800
0800
0800
0000
0000
0000
0000
ENDCHAR
STARTCHAR phi1
ENCODING 981
SWIDTH 540 0
DWIDTH 9 0
BBX 9 18 0 -4
BITMAP
0000
0000
0000
0000
0800
0800
0800
3E00
4900
4900
4900
4900
4900
3E00
0800
0800
0800
0000
ENDCHAR
STARTCHAR omega1
ENCODING 982
SWIDTH 540 0
DWIDTH 9 0
BBX 9 18 0 -4
BITMAP
0000
0000
0000
0000
0000
0000
0000
7F00
2200
4900
4900
4900
4900
3600
0000
0000
0000
0000
ENDCHAR
STARTCHAR uni03D7
ENCODING 983
SWIDTH 540 0
DWIDTH 9 0
BBX 9 18 0 -4
BITMAP
0000
0000
0000
2000
1000
0800
0000
6100
1200
1400
1800
1400
2500
4300
0100
0200
3C00
0000
ENDCHAR
STARTCHAR uni03D8
ENCODING 984
SWIDTH 540 0
DWIDTH 9 0
BBX 9 18 0 -4
BITMAP
0000
0000
0000
0000
3E00
4100
4100
4100
4100
4100
4100
4100
4100
3E00
0800
0800
0800
0000
ENDCHAR
STARTCHAR uni03D9
ENCODING 985
SWIDTH 540 0
DWIDTH 9 0
BBX 9 18 0 -4
BITMAP
0000
0000
0000
0000
0000
0000
0000
3E00
4100
4100
4100
4100
4100
3E00
0800
0800
0800
0000
ENDCHAR
STARTCHAR uni03DA
ENCODING 986
SWIDTH 540 0
DWIDTH 9 0
BBX 9 18 0 -4
BITMAP
0000
0000
0000
0000
1E00
2100
4000
4000
4000
4000
4000
4000
3E00
0100
0100
0600
0000
0000
ENDCHAR
STARTCHAR uni03DB
ENCODING 987
SWIDTH 540 0
DWIDTH 9 0
BBX 9 18 0 -4
BITMAP
0000
0000
0000
0000
0000
0000
0100
3E00
4000
4000
4000
4000
4000
3E00
0100
0100
0600
0000
ENDCHAR
STARTCHAR uni03DC
ENCODING 988
SWIDTH 540 0
DWIDTH 9 0
BBX 9 18 0 -4
BITMAP
0000
0000
0000
0000
7F00
4000
4000
4000
7C00
4000
4000
4000
4000
4000
0000
0000
0000
0000
ENDCHAR
STARTCHAR uni03DD
ENCODING 989
SWIDTH 540 0
DWIDTH 9 0
BBX 9 18 0 -4
BITMAP
0000
0000
0000
0000
0000
0000
0000
3E00
2000
2000
2000
3C00
2000
2000
2000
2000
2000
0000
ENDCHAR
STARTCHAR uni03DE
ENCODING 990
SWIDTH 540 0
DWIDTH 9 0
BBX 9 18 0 -4
BITMAP
0000
0000
0000
0000
8000
4000
4200
4600
4A00
5200
6200
4200
0200
0100
0000
0000
0000
0000
ENDCHAR
STARTCHAR uni03DF
ENCODING 991
SWIDTH 540 0
DWIDTH 9 0
BBX 9 18 0 -4
BITMAP
0000
0000
0000
0000
1000
1000
2000
2000
2000
4000
7E00
0200
0400
0400
0400
0800
0800
0000
ENDCHAR
STARTCHAR uni03E0
ENCODING 992
SWIDTH 540 0
DWIDTH 9 0
BBX 9 18 0 -4
BITMAP
0000
0000
0000
0000
0800
1400
1400
1400
2200
2600
2600
4900
4900
4900
0000
0000
0000
0000
ENDCHAR
STARTCHAR uni03E1
ENCODING 993
SWIDTH 540 0
DWIDTH 9 0
BBX 9 18 0 -4
BITMAP
0000
0000
0000
0000
6000
1800
0400
0400
0A00
1200
2500
0900
1100
0100
0100
0100
0100
0000
ENDCHAR
STARTCHAR uni03E2
ENCODING 994
SWIDTH 540 0
DWIDTH 9 0
BBX 9 18 0 -4
BITMAP
0000
0000
0000
0000
4900
4900
4900
4900
4900
4900
4900
3700
0100
3E00
0000
0000
0000
0000
ENDCHAR
STARTCHAR uni03E3
ENCODING 995
SWIDTH 540 0
DWIDTH 9 0
BBX 9 18 0 -4
BITMAP
0000
0000
0000
0000
0000
0000
0000
4900
4900
4900
4900
4900
4900
3700
0100
3E00
0000
0000
ENDCHAR
STARTCHAR uni03E4
ENCODING 996
SWIDTH 540 0
DWIDTH 9 0
BBX 9 18 0 -4
BITMAP
0000
0000
0000
0000
3100
4900
4100
4100
4100
4100
3F00
0100
0100
0100
0000
0000
0000
0000
ENDCHAR
STARTCHAR uni03E5
ENCODING 997
SWIDTH 540 0
DWIDTH 9 0
BBX 9 18 0 -4
BITMAP
0000
0000
0000
0000
1400
2400
2400
2400
2400
1C00
0400
0400
0400
0400
0000
0000
0000
0000
ENDCHAR
STARTCHAR uni03E6
ENCODING 998
SWIDTH 540 0
DWIDTH 9 0
BBX 9 18 0 -4
BITMAP
0000
0000
0000
0000
7000
2000
2000
2000
3C00
2200
2100
2100
2100
7100
0200
1C00
0000
0000
ENDCHAR
STARTCHAR uni03E7
ENCODING 999
SWIDTH 540 0
DWIDTH 9 0
BBX 9 18 0 -4
BITMAP
0000
0000
0000
0000
0000
0000
1000
1000
3E00
5100
2100
0100
4100
3E00
0000
0000
0000
0000
ENDCHAR
STARTCHAR uni03E8
ENCODING 1000
SWIDTH 540 0
DWIDTH 9 0
BBX 9 18 0 -4
BITMAP
0000
0000
0000
0000
3E00
4100
4100
2100
0200
1C00
2000
4100
4100
3E00
0000
0000
0000
0000
ENDCHAR
STARTCHAR uni03E9
ENCODING 1001
SWIDTH 540 0
DWIDTH 9 0
BBX 9 18 0 -4
BITMAP
0000
0000
0000
0000
3C00
4200
4200
4200
2400
1800
3000
4000
4000
3E00
0000
0000
0000
0000
ENDCHAR
STARTCHAR uni03EA
ENCODING 1002
SWIDTH 540 0
DWIDTH 9 0
BBX 9 18 0 -4
BITMAP
0000
0000
0000
0000
6300
1400
0800
0800
1400
1400
2200
2200
4100
7F00
0000
0000
0000
0000
ENDCHAR
STARTCHAR uni03EB
ENCODING 1003
SWIDTH 540 0
DWIDTH 9 0
BBX 9 18 0 -4
BITMAP
0000
0000
0000
0000
0000
0000
6300
1400
0800
0800
1400
1400
2200
3E00
0000
0000
0000
0000
ENDCHAR
STARTCHAR uni03EC
ENCODING 1004
SWIDTH 540 0
DWIDTH 9 0
BBX 9 18 0 -4
BITMAP
0000
0000
0000
0000
3E00
4000
5E00
6100
4100
4100
4100
4100
2100
1E00
0000
0000
0000
0000
ENDCHAR
STARTCHAR uni03ED
ENCODING 1005
SWIDTH 540 0
DWIDTH 9 0
BBX 9 18 0 -4
BITMAP
0000
0000
0000
0000
0000
0000
0000
3F00
4000
5E00
4100
4100
4100
3E00
0000
0000
0000
0000
ENDCHAR
STARTCHAR uni03EE
ENCODING 1006
SWIDTH 540 0
DWIDTH 9 0
BBX 9 18 0 -4
BITMAP
0000
0000
0000
0000
1C00
0800
7F00
4900
0800
0800
0800
0800
0800
0800
0000
0000
0000
0000
ENDCHAR
STARTCHAR uni03EF
ENCODING 1007
SWIDTH 540 0
DWIDTH 9 0
BBX 9 18 0 -4
BITMAP
0000
0000
0000
0000
0000
0000
0800
0900
7F00
4800
0800
0800
0800
0800
0000
0000
0000
0000
ENDCHAR
STARTCHAR uni03F0
ENCODING 1008
SWIDTH 540 0
DWIDTH 9 0
BBX 9 18 0 -4
BITMAP
0000
0000
0000
0000
0000
0000
0000
6100
1200
1400
1800
1400
2400
4300
0000
0000
0000
0000
ENDCHAR
STARTCHAR uni03F1
ENCODING 1009
SWIDTH 540 0
DWIDTH 9 0
BBX 9 18 0 -4
BITMAP
0000
0000
0000
0000
0000
0000
0000
3E00
4100
4100
4100
4100
6100
5E00
4000
2000
1E00
0000
ENDCHAR
STARTCHAR uni03F2
ENCODING 1010
SWIDTH 540 0
DWIDTH 9 0
BBX 9 18 0 -4
BITMAP
0000
0000
0000
0000
0000
0000
0000
3E00
4100
4000
4000
4000
4100
3E00
0000
0000
0000
0000
ENDCHAR
STARTCHAR uni03F3
ENCODING 1011
SWIDTH 540 0
DWIDTH 9 0
BBX 9 18 0 -4
BITMAP
0000
0000
0000
0000
0600
0000
0000
0E00
0200
0200
0200
0200
0200
0200
2200
2200
1C00
0000
ENDCHAR
STARTCHAR uni03F4
ENCODING 1012
SWIDTH 540 0
DWIDTH 9 0
BBX 9 18 0 -4
BITMAP
0000
0000
0000
0000
3E00
4100
4100
4100
7F00
4100
4100
4100
4100
3E00
0000
0000
0000
0000
ENDCHAR
STARTCHAR uni03F5
ENCODING 1013
SWIDTH 540 0
DWIDTH 9 0
BBX 9 18 0 -4
BITMAP
0000
0000
0000
0000
0000
0000
0000
3E00
4000
4000
7C00
4000
4000
3E00
0000
0000
0000
0000
ENDCHAR
STARTCHAR uni03F6
ENCODING 1014
SWIDTH 540 0
DWIDTH 9 0
BBX 9 18 0 -4
BITMAP
0000
0000
0000
0000
0000
0000
0000
7C00
0200
0200
3E00
0200
0200
7C00
0000
0000
0000
0000
ENDCHAR
STARTCHAR uni03F7
ENCODING 1015
SWIDTH 540 0
DWIDTH 9 0
BBX 9 18 0 -4
BITMAP
0000
0000
0000
0000
0000
0000
4000
5C00
6200
4200
4200
4200
4200
6200
5C00
4000
4000
0000
ENDCHAR
STARTCHAR uni03F8
ENCODING 1016
SWIDTH 540 0
DWIDTH 9 0
BBX 9 18 0 -4
BITMAP
0000
0000
0000
0000
4000
4000
4000
5C00
6200
4200
4200
4200
4200
6200
5C00
4000
4000
0000
ENDCHAR
STARTCHAR uni03F9
ENCODING 1017
SWIDTH 540 0
DWIDTH 9 0
BBX 9 18 0 -4
BITMAP
0000
0000
0000
0000
0000
3C00
4200
4200
4000
4000
4000
4000
4200
4200
3C00
0000
0000
0000
ENDCHAR
STARTCHAR uni03FA
ENCODING 1018
SWIDTH 540 0
DWIDTH 9 0
BBX 9 18 0 -4
BITMAP
0000
0000
0000
0000
0000
4200
4200
6600
6600
5A00
5A00
4200
4200
4200
4200
0000
0000
0000
ENDCHAR
STARTCHAR uni03FB
ENCODING 1019
SWIDTH 540 0
DWIDTH 9 0
BBX 9 18 0 -4
BITMAP
0000
0000
0000
0000
0000
0000
4400
6C00
6C00
5400
5400
4400
4400
4500
4200
4000
4000
0000
ENDCHAR
STARTCHAR uni03FC
ENCODING 1020
SWIDTH 540 0
DWIDTH 9 0
BBX 9 18 0 -4
BITMAP
0000
0000
0000
0000
0000
0000
2C00
3200
2200
2200
2200
2200
3200
2C00
2000
7800
2000
0000
ENDCHAR
STARTCHAR uni03FD
ENCODING 1021
SWIDTH 540 0
DWIDTH 9 0
BBX 9 18 0 -4
BITMAP
0000
0000
0000
0000
0000
3C00
4200
4200
0200
0200
0200
0200
4200
4200
3C00
0000
0000
0000
ENDCHAR
STARTCHAR uni03FE
ENCODING 1022
SWIDTH 540 0
DWIDTH 9 0
BBX 9 18 0 -4
BITMAP
0000
0000
0000
0000
0000
3C00
4200
4200
4000
5800
5800
4000
4200
4200
3C00
0000
0000
0000
ENDCHAR
STARTCHAR uni03FF
ENCODING 1023
SWIDTH 540 0
DWIDTH 9 0
BBX 9 18 0 -4
BITMAP
0000
0000
0000
0000
0000
3C00
4200
4200
0200
1A00
1A00
0200
4200
4200
3C00
0000
0000
0000
ENDCHAR
STARTCHAR uni0400
ENCODING 1024
SWIDTH 540 0
DWIDTH 9 0
BBX 9 18 0 -4
BITMAP
1000
0800
0400
0000
7F00
4000
4000
4000
7C00
4000
4000
4000
4000
7F00
0000
0000
0000
0000
ENDCHAR
STARTCHAR afii10023
ENCODING 1025
SWIDTH 540 0
DWIDTH 9 0
BBX 9 18 0 -4
BITMAP
0000
1400
1400
0000
7F00
4000
4000
4000
7C00
4000
4000
4000
4000
7F00
0000
0000
0000
0000
ENDCHAR
STARTCHAR afii10051
ENCODING 1026
SWIDTH 540 0
DWIDTH 9 0
BBX 9 18 0 -4
BITMAP
0000
0000
0000
0000
7C00
1000
1000
1600
1900
1100
1100
1100
1100
1100
0100
0600
0000
0000
ENDCHAR
STARTCHAR afii10052
ENCODING 1027
SWIDTH 540 0
DWIDTH 9 0
BBX 9 18 0 -4
BITMAP
0200
0400
0800
0000
3F00
2000
2000
2000
2000
2000
2000
2000
2000
2000
0000
0000
0000
0000
ENDCHAR
STARTCHAR afii10053
ENCODING 1028
SWIDTH 540 0
DWIDTH 9 0
BBX 9 18 0 -4
BITMAP
0000
0000
0000
0000
1E00
2100
4000
4000
7800
4000
4000
4000
2100
1E00
0000
0000
0000
0000
ENDCHAR
STARTCHAR afii10054
ENCODING 1029
SWIDTH 540 0
DWIDTH 9 0
BBX 9 18 0 -4
BITMAP
0000
0000
0000
0000
3E00
4100
4000
4000
3E00
0100
0100
0100
4100
3E00
0000
0000
0000
0000
ENDCHAR
STARTCHAR afii10055
ENCODING 1030
SWIDTH 540 0
DWIDTH 9 0
BBX 9 18 0 -4
BITMAP
0000
0000
0000
0000
3E00
0800
0800
0800
0800
0800
0800
0800
0800
3E00
0000
0000
0000
0000
ENDCHAR
STARTCHAR afii10056
ENCODING 1031
SWIDTH 540 0
DWIDTH 9 0
BBX 9 18 0 -4
BITMAP
0000
1400
1400
0000
3E00
0800
0800
0800
0800
0800
0800
0800
0800
3E00
0000
0000
0000
0000
ENDCHAR
STARTCHAR afii10057
ENCODING 1032
SWIDTH 540 0
DWIDTH 9 0
BBX 9 18 0 -4
BITMAP
0000
0000
0000
0000
0F00
0200
0200
0200
0200
0200
0200
0200
4200
3C00
0000
0000
0000
0000
ENDCHAR
STARTCHAR afii10058
ENCODING 1033
SWIDTH 540 0
DWIDTH 9 0
BBX 9 18 0 -4
BITMAP
0000
0000
0000
0000
7800
4800
4800
4800
4E00
4900
4900
4900
4900
8E00
0000
0000
0000
0000
ENDCHAR
STARTCHAR afii10059
ENCODING 1034
SWIDTH 540 0
DWIDTH 9 0
BBX 9 18 0 -4
BITMAP
0000
0000
0000
0000
4800
4800
4800
4800
7E00
4900
4900
4900
4900
4E00
0000
0000
0000
0000
ENDCHAR
STARTCHAR afii10060
ENCODING 1035
SWIDTH 540 0
DWIDTH 9 0
BBX 9 18 0 -4
BITMAP
0000
0000
0000
0000
7E00
1000
1000
1000
1E00
1100
1100
1100
1100
1100
0000
0000
0000
0000
ENDCHAR
STARTCHAR afii10061
ENCODING 1036
SWIDTH 540 0
DWIDTH 9 0
BBX 9 18 0 -4
BITMAP
0400
0800
1000
0000
4100
4200
4400
4800
5000
6800
4400
4200
4100
4100
0000
0000
0000
0000
ENDCHAR
STARTCHAR uni040D
ENCODING 1037
SWIDTH 540 0
DWIDTH 9 0
BBX 9 18 0 -4
BITMAP
1000
0800
0400
0000
4100
4100
4300
4500
4900
5100
6100
4100
4100
4100
0000
0000
0000
0000
ENDCHAR
STARTCHAR afii10062
ENCODING 1038
SWIDTH 540 0
DWIDTH 9 0
BBX 9 18 0 -4
BITMAP
0000
1100
0E00
0000
2100
2100
1200
1200
1200
0C00
0C00
0800
4800
3000
0000
0000
0000
0000
ENDCHAR
STARTCHAR afii10145
ENCODING 1039
SWIDTH 540 0
DWIDTH 9 0
BBX 9 18 0 -4
BITMAP
0000
0000
0000
0000
4100
4100
4100
4100
4100
4100
4100
4100
4100
7F00
0800
0800
0000
0000
ENDCHAR
STARTCHAR afii10017
ENCODING 1040
SWIDTH 540 0
DWIDTH 9 0
BBX 9 18 0 -4
BITMAP
0000
0000
0000
0000
0800
1400
1400
1400
2200
3E00
2200
4100
4100
4100
0000
0000
0000
0000
ENDCHAR
STARTCHAR afii10018
ENCODING 1041
SWIDTH 540 0
DWIDTH 9 0
BBX 9 18 0 -4
BITMAP
0000
0000
0000
0000
7E00
4000
4000
4000
7C00
4200
4100
4100
4200
7C00
0000
0000
0000
0000
ENDCHAR
STARTCHAR afii10019
ENCODING 1042
SWIDTH 540 0
DWIDTH 9 0
BBX 9 18 0 -4
BITMAP
0000
0000
0000
0000
7C00
4200
4100
4200
7C00
4200
4100
4100
4200
7C00
0000
0000
0000
0000
ENDCHAR
STARTCHAR afii10020
ENCODING 1043
SWIDTH 540 0
DWIDTH 9 0
BBX 9 18 0 -4
BITMAP
0000
0000
0000
0000
3F00
2000
2000
2000
2000
2000
2000
2000
2000
2000
0000
0000
0000
0000
ENDCHAR
STARTCHAR afii10021
ENCODING 1044
SWIDTH 540 0
DWIDTH 9 0
BBX 9 18 0 -4
BITMAP
0000
0000
0000
0000
1E00
1200
1200
1200
1200
2200
2200
2200
2200
7F00
4100
4100
0000
0000
ENDCHAR
STARTCHAR afii10022
ENCODING 1045
SWIDTH 540 0
DWIDTH 9 0
BBX 9 18 0 -4
BITMAP
0000
0000
0000
0000
7F00
4000
4000
4000
7C00
4000
4000
4000
4000
7F00
0000
0000
0000
0000
ENDCHAR
STARTCHAR afii10024
ENCODING 1046
SWIDTH 540 0
DWIDTH 9 0
BBX 9 18 0 -4
BITMAP
0000
0000
0000
0000
4900
4900
2A00
2A00
1C00
2A00
2A00
4900
4900
4900
0000
0000
0000
0000
ENDCHAR
STARTCHAR afii10025
ENCODING 1047
SWIDTH 540 0
DWIDTH 9 0
BBX 9 18 0 -4
BITMAP
0000
0000
0000
0000
3E00
4100
0100
0200
0C00
0200
0100
0100
4100
3E00
0000
0000
0000
0000
ENDCHAR
STARTCHAR afii10026
ENCODING 1048
SWIDTH 540 0
DWIDTH 9 0
BBX 9 18 0 -4
BITMAP
0000
0000
0000
0000
4100
4100
4300
4500
4900
5100
6100
4100
4100
4100
0000
0000
0000
0000
ENDCHAR
STARTCHAR afii10027
ENCODING 1049
SWIDTH 540 0
DWIDTH 9 0
BBX 9 18 0 -4
BITMAP
0000
2200
1C00
0000
4100
4100
4300
4500
4900
5100
6100
4100
4100
4100
0000
0000
0000
0000
ENDCHAR
STARTCHAR afii10028
ENCODING 1050
SWIDTH 540 0
DWIDTH 9 0
BBX 9 18 0 -4
BITMAP
0000
0000
0000
0000
4100
4200
4400
4800
5000
6800
4400
4200
4100
4100
0000
0000
0000
0000
ENDCHAR
STARTCHAR afii10029
ENCODING 1051
SWIDTH 540 0
DWIDTH 9 0
BBX 9 18 0 -4
BITMAP
0000
0000
0000
0000
0F00
1100
1100
1100
1100
2100
2100
2100
2100
4100
0000
0000
0000
0000
ENDCHAR
STARTCHAR afii10030
ENCODING 1052
SWIDTH 540 0
DWIDTH 9 0
BBX 9 18 0 -4
BITMAP
0000
0000
0000
0000
4100
4100
6300
5500
4900
4100
4100
4100
4100
4100
0000
0000
0000
0000
ENDCHAR
STARTCHAR afii10031
ENCODING 1053
SWIDTH 540 0
DWIDTH 9 0
BBX 9 18 0 -4
BITMAP
0000
0000
0000
0000
4100
4100
4100
4100
7F00
4100
4100
4100
4100
4100
0000
0000
0000
0000
ENDCHAR
STARTCHAR afii10032
ENCODING 1054
SWIDTH 540 0
DWIDTH 9 0
BBX 9 18 0 -4
BITMAP
0000
0000
0000
0000
3E00
4100
4100
4100
4100
4100
4100
4100
4100
3E00
0000
0000
0000
0000
ENDCHAR
STARTCHAR afii10033
ENCODING 1055
SWIDTH 540 0
DWIDTH 9 0
BBX 9 18 0 -4
BITMAP
0000
0000
0000
0000
7F00
4100
4100
4100
4100
4100
4100
4100
4100
4100
0000
0000
0000
0000
ENDCHAR
STARTCHAR afii10034
ENCODING 1056
SWIDTH 540 0
DWIDTH 9 0
BBX 9 18 0 -4
BITMAP
0000
0000
0000
0000
7C00
4200
4100
4100
4200
7C00
4000
4000
4000
4000
0000
0000
0000
0000
ENDCHAR
STARTCHAR afii10035
ENCODING 1057
SWIDTH 540 0
DWIDTH 9 0
BBX 9 18 0 -4
BITMAP
0000
0000
0000
0000
1E00
2100
4000
4000
4000
4000
4000
4000
2100
1E00
0000
0000
0000
0000
ENDCHAR
STARTCHAR afii10036
ENCODING 1058
SWIDTH 540 0
DWIDTH 9 0
BBX 9 18 0 -4
BITMAP
0000
0000
0000
0000
7F00
0800
0800
0800
0800
0800
0800
0800
0800
0800
0000
0000
0000
0000
ENDCHAR
STARTCHAR afii10037
ENCODING 1059
SWIDTH 540 0
DWIDTH 9 0
BBX 9 18 0 -4
BITMAP
0000
0000
0000
0000
2100
2100
1200
1200
1200
0C00
0C00
0800
4800
3000
0000
0000
0000
0000
ENDCHAR
STARTCHAR afii10038
ENCODING 1060
SWIDTH 540 0
DWIDTH 9 0
BBX 9 18 0 -4
BITMAP
0000
0000
0000
0000
0800
3E00
4900
4900
4900
4900
4900
4900
3E00
0800
0000
0000
0000
0000
ENDCHAR
STARTCHAR afii10039
ENCODING 1061
SWIDTH 540 0
DWIDTH 9 0
BBX 9 18 0 -4
BITMAP
0000
0000
0000
0000
4100
4100
2200
1400
0800
0800
1400
2200
4100
4100
0000
0000
0000
0000
ENDCHAR
STARTCHAR afii10040
ENCODING 1062
SWIDTH 540 0
DWIDTH 9 0
BBX 9 18 0 -4
BITMAP
0000
0000
0000
0000
4200
4200
4200
4200
4200
4200
4200
4200
4200
7F00
0100
0100
0000
0000
ENDCHAR
STARTCHAR afii10041
ENCODING 1063
SWIDTH 540 0
DWIDTH 9 0
BBX 9 18 0 -4
BITMAP
0000
0000
0000
0000
4100
4100
4100
4100
3F00
0100
0100
0100
0100
0100
0000
0000
0000
0000
ENDCHAR
STARTCHAR afii10042
ENCODING 1064
SWIDTH 540 0
DWIDTH 9 0
BBX 9 18 0 -4
BITMAP
0000
0000
0000
0000
4900
4900
4900
4900
4900
4900
4900
4900
4900
7F00
0000
0000
0000
0000
ENDCHAR
STARTCHAR afii10043
ENCODING 1065
SWIDTH 540 0
DWIDTH 9 0
BBX 9 18 0 -4
BITMAP
0000
0000
0000
0000
4900
4900
4900
4900
4900
4900
4900
4900
4900
7F80
0080
0080
0000
0000
ENDCHAR
STARTCHAR afii10044
ENCODING 1066
SWIDTH 540 0
DWIDTH 9 0
BBX 9 18 0 -4
BITMAP
0000
0000
0000
0000
7000
1000
1000
1000
1C00
1200
1100
1100
1200
1C00
0000
0000
0000
0000
ENDCHAR
STARTCHAR afii10045
ENCODING 1067
SWIDTH 540 0
DWIDTH 9 0
BBX 9 18 0 -4
BITMAP
0000
0000
0000
0000
4100
4100
4100
4100
7100
4900
4500
4500
4900
7100
0000
0000
0000
0000
ENDCHAR
STARTCHAR afii10046
ENCODING 1068
SWIDTH 540 0
DWIDTH 9 0
BBX 9 18 0 -4
BITMAP
0000
0000
0000
0000
4000
4000
4000
4000
7C00
4200
4100
4100
4200
7C00
0000
0000
0000
0000
ENDCHAR
STARTCHAR afii10047
ENCODING 1069
SWIDTH 540 0
DWIDTH 9 0
BBX 9 18 0 -4
BITMAP
0000
0000
0000
0000
3C00
4200
0100
0100
0F00
0100
0100
0100
4200
3C00
0000
0000
0000
0000
ENDCHAR
STARTCHAR afii10048
ENCODING 1070
SWIDTH 540 0
DWIDTH 9 0
BBX 9 18 0 -4
BITMAP
0000
0000
0000
0000
4E00
5100
5100
5100
7100
5100
5100
5100
5100
4E00
0000
0000
0000
0000
ENDCHAR
STARTCHAR afii10049
ENCODING 1071
SWIDTH 540 0
DWIDTH 9 0
BBX 9 18 0 -4
BITMAP
0000
0000
0000
0000
1F00
2100
4100
4100
2100
1F00
0900
1100
2100
4100
0000
0000
0000
0000
ENDCHAR
STARTCHAR afii10065
ENCODING 1072
SWIDTH 540 0
DWIDTH 9 0
BBX 9 18 0 -4
BITMAP
0000
0000
0000
0000
0000
0000
0000
3E00
0100
0100
3F00
4100
4300
3D00
0000
0000
0000
0000
ENDCHAR
STARTCHAR afii10066
ENCODING 1073
SWIDTH 540 0
DWIDTH 9 0
BBX 9 18 0 -4
BITMAP
0000
0000
0000
0000
0100
3E00
4000
5E00
6100
4100
4100
4100
4100
3E00
0000
0000
0000
0000
ENDCHAR
STARTCHAR afii10067
ENCODING 1074
SWIDTH 540 0
DWIDTH 9 0
BBX 9 18 0 -4
BITMAP
0000
0000
0000
0000
0000
0000
0000
7E00
4100
4100
7E00
4100
4100
7E00
0000
0000
0000
0000
ENDCHAR
STARTCHAR afii10068
ENCODING 1075
SWIDTH 540 0
DWIDTH 9 0
BBX 9 18 0 -4
BITMAP
0000
0000
0000
0000
0000
0000
0000
3F00
2000
2000
2000
2000
2000
2000
0000
0000
0000
0000
ENDCHAR
STARTCHAR afii10069
ENCODING 1076
SWIDTH 540 0
DWIDTH 9 0
BBX 9 18 0 -4
BITMAP
0000
0000
0000
0000
0000
0000
0000
1E00
1200
1200
1200
2200
2200
7F00
4100
4100
0000
0000
ENDCHAR
STARTCHAR afii10070
ENCODING 1077
SWIDTH 540 0
DWIDTH 9 0
BBX 9 18 0 -4
BITMAP
0000
0000
0000
0000
0000
0000
0000
3E00
4100
4100
7F00
4000
4100
3E00
0000
0000
0000
0000
ENDCHAR
STARTCHAR afii10072
ENCODING 1078
SWIDTH 540 0
DWIDTH 9 0
BBX 9 18 0 -4
BITMAP
0000
0000
0000
0000
0000
0000
0000
4900
4900
2A00
1C00
2A00
4900
4900
0000
0000
0000
0000
ENDCHAR
STARTCHAR afii10073
ENCODING 1079
SWIDTH 540 0
DWIDTH 9 0
BBX 9 18 0 -4
BITMAP
0000
0000
0000
0000
0000
0000
0000
3E00
4100
0100
0E00
0100
4100
3E00
0000
0000
0000
0000
ENDCHAR
STARTCHAR afii10074
ENCODING 1080
SWIDTH 540 0
DWIDTH 9 0
BBX 9 18 0 -4
BITMAP
0000
0000
0000
0000
0000
0000
0000
4100
4300
4500
4900
5100
6100
4100
0000
0000
0000
0000
ENDCHAR
STARTCHAR afii10075
ENCODING 1081
SWIDTH 540 0
DWIDTH 9 0
BBX 9 18 0 -4
BITMAP
0000
0000
0000
0000
2200
1C00
0000
4100
4300
4500
4900
5100
6100
4100
0000
0000
0000
0000
ENDCHAR
STARTCHAR afii10076
ENCODING 1082
SWIDTH 540 0
DWIDTH 9 0
BBX 9 18 0 -4
BITMAP
0000
0000
0000
0000
0000
0000
0000
4100
4200
4400
7800
4400
4200
4100
0000
0000
0000
0000
ENDCHAR
STARTCHAR afii10077
ENCODING 1083
SWIDTH 540 0
DWIDTH 9 0
BBX 9 18 0 -4
BITMAP
0000
0000
0000
0000
0000
0000
0000
0F00
1100
1100
1100
1100
1100
2100
0000
0000
0000
0000
ENDCHAR
STARTCHAR afii10078
ENCODING 1084
SWIDTH 540 0
DWIDTH 9 0
BBX 9 18 0 -4
BITMAP
0000
0000
0000
0000
0000
0000
0000
4100
6300
5500
4900
4100
4100
4100
0000
0000
0000
0000
ENDCHAR
STARTCHAR afii10079
ENCODING 1085
SWIDTH 540 0
DWIDTH 9 0
BBX 9 18 0 -4
BITMAP
0000
0000
0000
0000
0000
0000
0000
4100
4100
4100
7F00
4100
4100
4100
0000
0000
0000
0000
ENDCHAR
STARTCHAR afii10080
ENCODING 1086
SWIDTH 540 0
DWIDTH 9 0
BBX 9 18 0 -4
BITMAP
0000
0000
0000
0000
0000
0000
0000
3E00
4100
4100
4100
4100
4100
3E00
0000
0000
0000
0000
ENDCHAR
STARTCHAR afii10081
ENCODING 1087
SWIDTH 540 0
DWIDTH 9 0
BBX 9 18 0 -4
BITMAP
0000
0000
0000
0000
0000
0000
0000
7F00
4100
4100
4100
4100
4100
4100
0000
0000
0000
0000
ENDCHAR
STARTCHAR afii10082
ENCODING 1088
SWIDTH 540 0
DWIDTH 9 0
BBX 9 18 0 -4
BITMAP
0000
0000
0000
0000
0000
0000
0000
5C00
6200
4100
4100
4100
6200
5C00
4000
4000
4000
0000
ENDCHAR
STARTCHAR afii10083
ENCODING 1089
SWIDTH 540 0
DWIDTH 9 0
BBX 9 18 0 -4
BITMAP
0000
0000
0000
0000
0000
0000
0000
3E00
4100
4000
4000
4000
4100
3E00
0000
0000
0000
0000
ENDCHAR
STARTCHAR afii10084
ENCODING 1090
SWIDTH 540 0
DWIDTH 9 0
BBX 9 18 0 -4
BITMAP
0000
0000
0000
0000
0000
0000
0000
7F00
0800
0800
0800
0800
0800
0800
0000
0000
0000
0000
ENDCHAR
STARTCHAR afii10085
ENCODING 1091
SWIDTH 540 0
DWIDTH 9 0
BBX 9 18 0 -4
BITMAP
0000
0000
0000
0000
0000
0000
0000
2100
2100
1200
1200
1200
0C00
0C00
0800
4800
3000
0000
ENDCHAR
STARTCHAR afii10086
ENCODING 1092
SWIDTH 540 0
DWIDTH 9 0
BBX 9 18 0 -4
BITMAP
0000
0000
0000
0000
0800
0800
0800
3E00
4900
4900
4900
4900
4900
3E00
0800
0800
0800
0000
ENDCHAR
STARTCHAR afii10087
ENCODING 1093
SWIDTH 540 0
DWIDTH 9 0
BBX 9 18 0 -4
BITMAP
0000
0000
0000
0000
0000
0000
0000
4100
2200
1400
0800
1400
2200
4100
0000
0000
0000
0000
ENDCHAR
STARTCHAR afii10088
ENCODING 1094
SWIDTH 540 0
DWIDTH 9 0
BBX 9 18 0 -4
BITMAP
0000
0000
0000
0000
0000
0000
0000
4200
4200
4200
4200
4200
4200
7F00
0100
0100
0000
0000
ENDCHAR
STARTCHAR afii10089
ENCODING 1095
SWIDTH 540 0
DWIDTH 9 0
BBX 9 18 0 -4
BITMAP
0000
0000
0000
0000
0000
0000
0000
4100
4100
4100
3F00
0100
0100
0100
0000
0000
0000
0000
ENDCHAR
STARTCHAR afii10090
ENCODING 1096
SWIDTH 540 0
DWIDTH 9 0
BBX 9 18 0 -4
BITMAP
0000
0000
0000
0000
0000
0000
0000
4900
4900
4900
4900
4900
4900
7F00
0000
0000
0000
0000
ENDCHAR
STARTCHAR afii10091
ENCODING 1097
SWIDTH 540 0
DWIDTH 9 0
BBX 9 18 0 -4
BITMAP
0000
0000
0000
0000
0000
0000
0000
4900
4900
4900
4900
4900
4900
7F80
0080
0080
0000
0000
ENDCHAR
STARTCHAR afii10092
ENCODING 1098
SWIDTH 540 0
DWIDTH 9 0
BBX 9 18 0 -4
BITMAP
0000
0000
0000
0000
0000
0000
0000
7000
1000
1000
1E00
1100
1100
1E00
0000
0000
0000
0000
ENDCHAR
STARTCHAR afii10093
ENCODING 1099
SWIDTH 540 0
DWIDTH 9 0
BBX 9 18 0 -4
BITMAP
0000
0000
0000
0000
0000
0000
0000
4100
4100
4100
7900
4500
4500
7900
0000
0000
0000
0000
ENDCHAR
STARTCHAR afii10094
ENCODING 1100
SWIDTH 540 0
DWIDTH 9 0
BBX 9 18 0 -4
BITMAP
0000
0000
0000
0000
0000
0000
0000
2000
2000
2000
3E00
2100
2100
3E00
0000
0000
0000
0000
ENDCHAR
STARTCHAR afii10095
ENCODING 1101
SWIDTH 540 0
DWIDTH 9 0
BBX 9 18 0 -4
BITMAP
0000
0000
0000
0000
0000
0000
0000
3E00
4100
0100
0F00
0100
4100
3E00
0000
0000
0000
0000
ENDCHAR
STARTCHAR afii10096
ENCODING 1102
SWIDTH 540 0
DWIDTH 9 0
BBX 9 18 0 -4
BITMAP
0000
0000
0000
0000
0000
0000
0000
4E00
5100
5100
7100
5100
5100
4E00
0000
0000
0000
0000
ENDCHAR
STARTCHAR afii10097
ENCODING 1103
SWIDTH 540 0
DWIDTH 9 0
BBX 9 18 0 -4
BITMAP
0000
0000
0000
0000
0000
0000
0000
3F00
4100
4100
3F00
1100
2100
4100
0000
0000
0000
0000
ENDCHAR
STARTCHAR uni0450
ENCODING 1104
SWIDTH 540 0
DWIDTH 9 0
BBX 9 18 0 -4
BITMAP
0000
0000
0000
1000
0800
0400
0000
3E00
4100
4100
7F00
4000
4100
3E00
0000
0000
0000
0000
ENDCHAR
STARTCHAR afii10071
ENCODING 1105
SWIDTH 540 0
DWIDTH 9 0
BBX 9 18 0 -4
BITMAP
0000
0000
0000
0000
1400
1400
0000
3E00
4100
4100
7F00
4000
4100
3E00
0000
0000
0000
0000
ENDCHAR
STARTCHAR afii10099
ENCODING 1106
SWIDTH 540 0
DWIDTH 9 0
BBX 9 18 0 -4
BITMAP
0000
0000
0000
0000
2000
7C00
2000
2E00
3100
2100
2100
2100
2100
2100
0100
0E00
0000
0000
ENDCHAR
STARTCHAR afii10100
ENCODING 1107
SWIDTH 540 0
DWIDTH 9 0
BBX 9 18 0 -4
BITMAP
0000
0000
0000
0200
0400
0800
0000
3F00
2000
2000
2000
2000
2000
2000
0000
0000
0000
0000
ENDCHAR
STARTCHAR afii10101
ENCODING 1108
SWIDTH 540 0
DWIDTH 9 0
BBX 9 18 0 -4
BITMAP
0000
0000
0000
0000
0000
0000
0000
3E00
4100
4000
7800
4000
4100
3E00
0000
0000
0000
0000
ENDCHAR
STARTCHAR afii10102
ENCODING 1109
SWIDTH 540 0
DWIDTH 9 0
BBX 9 18 0 -4
BITMAP
0000
0000
0000
0000
0000
0000
0000
3E00
4100
4000
3E00
0100
4100
3E00
0000
0000
0000
0000
ENDCHAR
STARTCHAR afii10103
ENCODING 1110
SWIDTH 540 0
DWIDTH 9 0
BBX 9 18 0 -4
BITMAP
0000
0000
0000
0000
1800
0000
0000
3800
0800
0800
0800
0800
0800
3E00
0000
0000
0000
0000
ENDCHAR
STARTCHAR afii10104
ENCODING 1111
SWIDTH 540 0
DWIDTH 9 0
BBX 9 18 0 -4
BITMAP
0000
0000
0000
2400
2400
0000
0000
3800
0800
0800
0800
0800
0800
3E00
0000
0000
0000
0000
ENDCHAR
STARTCHAR afii10105
ENCODING 1112
SWIDTH 540 0
DWIDTH 9 0
BBX 9 18 0 -4
BITMAP
0000
0000
0000
0000
0600
0000
0000
0E00
0200
0200
0200
0200
0200
0200
2200
2200
1C00
0000
ENDCHAR
STARTCHAR afii10106
ENCODING 1113
SWIDTH 540 0
DWIDTH 9 0
BBX 9 18 0 -4
BITMAP
0000
0000
0000
0000
0000
0000
0000
3800
2800
2800
2E00
2900
2900
4E00
0000
0000
0000
0000
ENDCHAR
STARTCHAR afii10107
ENCODING 1114
SWIDTH 540 0
DWIDTH 9 0
BBX 9 18 0 -4
BITMAP
0000
0000
0000
0000
0000
0000
0000
4800
4800
4800
7E00
4900
4900
4E00
0000
0000
0000
0000
ENDCHAR
STARTCHAR afii10108
ENCODING 1115
SWIDTH 540 0
DWIDTH 9 0
BBX 9 18 0 -4
BITMAP
0000
0000
0000
0000
2000
7C00
2000
2E00
3100
2100
2100
2100
2100
2100
0000
0000
0000
0000
ENDCHAR
STARTCHAR afii10109
ENCODING 1116
SWIDTH 540 0
DWIDTH 9 0
BBX 9 18 0 -4
BITMAP
0000
0000
0000
0400
0800
1000
0000
4100
4200
4400
7800
4400
4200
4100
0000
0000
0000
0000
ENDCHAR
STARTCHAR uni045D
ENCODING 1117
SWIDTH 540 0
DWIDTH 9 0
BBX 9 18 0 -4
BITMAP
0000
0000
0000
1000
0800
0400
0000
4100
4300
4500
4900
5100
6100
4100
0000
0000
0000
0000
ENDCHAR
STARTCHAR afii10110
ENCODING 1118
SWIDTH 540 0
DWIDTH 9 0
BBX 9 18 0 -4
BITMAP
0000
0000
0000
0000
1100
0E00
0000
2100
2100
1200
1200
1200
0C00
0C00
0800
4800
3000
0000
ENDCHAR
STARTCHAR afii10193
ENCODING 1119
SWIDTH 540 0
DWIDTH 9 0
BBX 9 18 0 -4
BITMAP
0000
0000
0000
0000
0000
0000
0000
4100
4100
4100
4100
4100
4100
7F00
0800
0800
0000
0000
ENDCHAR
STARTCHAR uni0460
ENCODING 1120
SWIDTH 540 0
DWIDTH 9 0
BBX 9 18 0 -4
BITMAP
0000
0000
0000
0000
2200
5500
5500
4100
4100
4100
4100
4900
4900
3600
0000
0000
0000
0000
ENDCHAR
STARTCHAR uni0461
ENCODING 1121
SWIDTH 540 0
DWIDTH 9 0
BBX 9 18 0 -4
BITMAP
0000
0000
0000
0000
0000
0000
0000
4100
4900
4900
4900
4900
4900
3600
0000
0000
0000
0000
ENDCHAR
STARTCHAR afii10146
ENCODING 1122
SWIDTH 540 0
DWIDTH 9 0
BBX 9 18 0 -4
BITMAP
0000
0000
0000
4000
4000
F800
4000
4000
7C00
4200
4100
4100
4200
7C00
0000
0000
0000
0000
ENDCHAR
STARTCHAR afii10194
ENCODING 1123
SWIDTH 540 0
DWIDTH 9 0
BBX 9 18 0 -4
BITMAP
0000
0000
0000
0000
2000
2000
2000
F800
2000
2000
3E00
2100
2100
3E00
0000
0000
0000
0000
ENDCHAR
STARTCHAR uni0464
ENCODING 1124
SWIDTH 540 0
DWIDTH 9 0
BBX 9 18 0 -4
BITMAP
0000
0000
0000
0000
4E00
5100
5000
5000
7F00
5000
5000
5000
5100
4E00
0000
0000
0000
0000
ENDCHAR
STARTCHAR uni0465
ENCODING 1125
SWIDTH 540 0
DWIDTH 9 0
BBX 9 18 0 -4
BITMAP
0000
0000
0000
0000
0000
0000
0000
4E00
5100
5000
7E00
5000
5100
4E00
0000
0000
0000
0000
ENDCHAR
STARTCHAR uni0466
ENCODING 1126
SWIDTH 540 0
DWIDTH 9 0
BBX 9 18 0 -4
BITMAP
0000
0000
0000
0000
0800
1400
1400
1400
2200
3E00
2A00
4900
4900
5D00
0000
0000
0000
0000
ENDCHAR
STARTCHAR uni0467
ENCODING 1127
SWIDTH 540 0
DWIDTH 9 0
BBX 9 18 0 -4
BITMAP
0000
0000
0000
0000
0000
0000
0000
0800
1400
1400
3E00
2A00
4900
5D00
0000
0000
0000
0000
ENDCHAR
STARTCHAR uni0468
ENCODING 1128
SWIDTH 540 0
DWIDTH 9 0
BBX 9 18 0 -4
BITMAP
0000
0000
0000
0000
4400
4400
4400
4A00
7A00
4A00
5500
5500
5500
5500
0000
0000
0000
0000
ENDCHAR
STARTCHAR uni0469
ENCODING 1129
SWIDTH 540 0
DWIDTH 9 0
BBX 9 18 0 -4
BITMAP
0000
0000
0000
0000
0000
0000
0000
4400
4400
4A00
7A00
5500
5500
5500
0000
0000
0000
0000
ENDCHAR
STARTCHAR uni046A
ENCODING 1130
SWIDTH 540 0
DWIDTH 9 0
BBX 9 18 0 -4
BITMAP
0000
0000
0000
0000
3E00
2200
2200
1400
0800
1C00
2A00
4900
4900
4900
0000
0000
0000
0000
ENDCHAR
STARTCHAR uni046B
ENCODING 1131
SWIDTH 540 0
DWIDTH 9 0
BBX 9 18 0 -4
BITMAP
0000
0000
0000
0000
0000
0000
0000
3E00
2200
1400
0800
3E00
4900
4900
0000
0000
0000
0000
ENDCHAR
STARTCHAR uni046C
ENCODING 1132
SWIDTH 540 0
DWIDTH 9 0
BBX 9 18 0 -4
BITMAP
0000
0000
0000
0000
5F00
5100
5100
4A00
7C00
4E00
5500
5500
5500
5500
0000
0000
0000
0000
ENDCHAR
STARTCHAR uni046D
ENCODING 1133
SWIDTH 540 0
DWIDTH 9 0
BBX 9 18 0 -4
BITMAP
0000
0000
0000
0000
0000
0000
0000
5F00
5100
4A00
7C00
4E00
5500
5500
0000
0000
0000
0000
ENDCHAR
STARTCHAR uni046E
ENCODING 1134
SWIDTH 540 0
DWIDTH 9 0
BBX 9 18 0 -4
BITMAP
0000
2200
1C00
0000
3E00
4100
0100
0200
0C00
0200
0100
0100
0100
3E00
4000
4000
3E00
0000
ENDCHAR
STARTCHAR uni046F
ENCODING 1135
SWIDTH 540 0
DWIDTH 9 0
BBX 9 18 0 -4
BITMAP
0000
0000
0000
0000
2200
1C00
0000
3E00
4100
0100
0E00
0100
0100
3E00
4000
4000
3C00
0000
ENDCHAR
STARTCHAR uni0470
ENCODING 1136
SWIDTH 540 0
DWIDTH 9 0
BBX 9 18 0 -4
BITMAP
0000
0000
0000
0000
4900
4900
4900
4900
4900
4900
3E00
0800
0800
0800
0000
0000
0000
0000
ENDCHAR
STARTCHAR uni0471
ENCODING 1137
SWIDTH 540 0
DWIDTH 9 0
BBX 9 18 0 -4
BITMAP
0000
0000
0000
0000
0000
0000
0000
4900
4900
4900
4900
4900
4900
3E00
0800
0800
0800
0000
ENDCHAR
STARTCHAR afii10147
ENCODING 1138
SWIDTH 540 0
DWIDTH 9 0
BBX 9 18 0 -4
BITMAP
0000
0000
0000
0000
3E00
4100
4100
4100
7F00
4100
4100
4100
4100
3E00
0000
0000
0000
0000
ENDCHAR
STARTCHAR afii10195
ENCODING 1139
SWIDTH 540 0
DWIDTH 9 0
BBX 9 18 0 -4
BITMAP
0000
0000
0000
0000
0000
0000
0000
1C00
2200
4100
7F00
4100
2200
1C00
0000
0000
0000
0000
ENDCHAR
STARTCHAR afii10148
ENCODING 1140
SWIDTH 540 0
DWIDTH 9 0
BBX 9 18 0 -4
BITMAP
0000
0000
0000
0000
4000
4100
4200
2200
2200
2400
1400
1400
1400
0800
0000
0000
0000
0000
ENDCHAR
STARTCHAR afii10196
ENCODING 1141
SWIDTH 540 0
DWIDTH 9 0
BBX 9 18 0 -4
BITMAP
0000
0000
0000
0000
0000
0000
0000
4100
4200
2200
2400
1400
1400
0800
0000
0000
0000
0000
ENDCHAR
STARTCHAR uni0476
ENCODING 1142
SWIDTH 540 0
DWIDTH 9 0
BBX 9 18 0 -4
BITMAP
4800
2400
1200
0000
4000
4100
4200
2200
2200
2400
1400
1400
1400
0800
0000
0000
0000
0000
ENDCHAR
STARTCHAR uni0477
ENCODING 1143
SWIDTH 540 0
DWIDTH 9 0
BBX 9 18 0 -4
BITMAP
0000
0000
0000
4800
2400
1200
0000
4100
4200
2200
2400
1400
1400
0800
0000
0000
0000
0000
ENDCHAR
STARTCHAR uni0478
ENCODING 1144
SWIDTH 540 0
DWIDTH 9 0
BBX 9 18 0 -4
BITMAP
0000
0000
0000
0000
2000
5000
5000
5500
5500
5500
5500
5500
5500
2300
0100
0100
0600
0000
ENDCHAR
STARTCHAR uni0479
ENCODING 1145
SWIDTH 540 0
DWIDTH 9 0
BBX 9 18 0 -4
BITMAP
0000
0000
0000
0000
0000
0000
0000
2500
5500
5500
5500
5500
5500
2300
0100
0100
0600
0000
ENDCHAR
STARTCHAR uni047A
ENCODING 1146
SWIDTH 540 0
DWIDTH 9 0
BBX 9 18 0 -4
BITMAP
0000
0000
0000
0800
3E00
4100
4100
4100
4100
4100
4100
4100
4100
3E00
0800
0000
0000
0000
ENDCHAR
STARTCHAR uni047B
ENCODING 1147
SWIDTH 540 0
DWIDTH 9 0
BBX 9 18 0 -4
BITMAP
0000
0000
0000
0000
0000
0000
0800
1C00
2200
4100
4100
4100
2200
1C00
0000
0000
0000
0000
ENDCHAR
STARTCHAR uni047C
ENCODING 1148
SWIDTH 540 0
DWIDTH 9 0
BBX 9 18 0 -4
BITMAP
0400
0800
1000
0000
2200
5500
5500
4100
4100
4100
4100
4900
4900
3600
0000
0000
0000
0000
ENDCHAR
STARTCHAR uni047D
ENCODING 1149
SWIDTH 540 0
DWIDTH 9 0
BBX 9 18 0 -4
BITMAP
0000
0000
0000
0400
0800
1000
0000
4100
4900
4900
4900
4900
4900
3600
0000
0000
0000
0000
ENDCHAR
STARTCHAR uni047E
ENCODING 1150
SWIDTH 540 0
DWIDTH 9 0
BBX 9 18 0 -4
BITMAP
0000
0000
3E00
0000
2200
5500
5500
4100
4100
4100
4100
4900
4900
3600
0000
0000
0000
0000
ENDCHAR
STARTCHAR uni047F
ENCODING 1151
SWIDTH 540 0
DWIDTH 9 0
BBX 9 18 0 -4
BITMAP
0000
0000
0000
0000
0000
3E00
0000
4100
4900
4900
4900
4900
4900
3600
0000
0000
0000
0000
ENDCHAR
STARTCHAR uni0480
ENCODING 1152
SWIDTH 540 0
DWIDTH 9 0
BBX 9 18 0 -4
BITMAP
0000
0000
0000
0000
1E00
2100
4000
4000
4000
4000
4000
4000
3C00
0400
0400
0400
0000
0000
ENDCHAR
STARTCHAR uni0481
ENCODING 1153
SWIDTH 540 0
DWIDTH 9 0
BBX 9 18 0 -4
BITMAP
0000
0000
0000
0000
0000
0000
0000
3E00
4100
4000
4000
4000
4000
3C00
0400
0400
0400
0000
ENDCHAR
STARTCHAR uni0482
ENCODING 1154
SWIDTH 540 0
DWIDTH 9 0
BBX 9 18 0 -4
BITMAP
0000
0000
0000
0000
0200
1200
0C00
0600
0900
4800
3000
1800
2400
2000
0000
0000
0000
0000
ENDCHAR
STARTCHAR uni0483
ENCODING 1155
SWIDTH 540 0
DWIDTH 9 0
BBX 9 18 0 -4
BITMAP
0200
3E00
2000
0000
0000
0000
0000
0000
0000
0000
0000
0000
0000
0000
0000
0000
0000
0000
ENDCHAR
STARTCHAR uni0484
ENCODING 1156
SWIDTH 540 0
DWIDTH 9 0
BBX 9 18 0 -4
BITMAP
0000
3800
4700
0000
0000
0000
0000
0000
0000
0000
0000
0000
0000
0000
0000
0000
0000
0000
ENDCHAR
STARTCHAR uni0485
ENCODING 1157
SWIDTH 540 0
DWIDTH 9 0
BBX 9 18 0 -4
BITMAP
3C00
6200
6100
0000
0000
0000
0000
0000
0000
0000
0000
0000
0000
0000
0000
0000
0000
0000
ENDCHAR
STARTCHAR uni0486
ENCODING 1158
SWIDTH 540 0
DWIDTH 9 0
BBX 9 18 0 -4
BITMAP
1E00
2300
4300
0000
0000
0000
0000
0000
0000
0000
0000
0000
0000
0000
0000
0000
0000
0000
ENDCHAR
STARTCHAR uni0487
ENCODING 1159
SWIDTH 540 0
DWIDTH 9 0
BBX 9 18 0 -4
BITMAP
0000
0000
3000
4C00
8300
0000
0000
0000
0000
0000
0000
0000
0000
0000
0000
0000
0000
0000
ENDCHAR
STARTCHAR uni0488
ENCODING 1160
SWIDTH 540 0
DWIDTH 9 0
BBX 9 18 0 -4
BITMAP
0000
0000
0000
0000
2000
5000
0200
0500
0000
0000
2000
5000
0200
0500
0000
0000
0000
0000
ENDCHAR
STARTCHAR uni0489
ENCODING 1161
SWIDTH 540 0
DWIDTH 9 0
BBX 9 18 0 -4
BITMAP
0000
0000
0000
0000
2000
4200
6400
0600
0000
0000
2000
4200
6400
0600
0000
0000
0000
0000
ENDCHAR
STARTCHAR uni048A
ENCODING 1162
SWIDTH 540 0
DWIDTH 9 0
BBX 9 18 0 -4
BITMAP
0000
0000
2200
1C00
0000
4100
4100
4300
4500
4900
5100
6100
4100
4100
0080
0100
0000
0000
ENDCHAR
STARTCHAR uni048B
ENCODING 1163
SWIDTH 540 0
DWIDTH 9 0
BBX 9 18 0 -4
BITMAP
0000
0000
0000
0000
2200
1C00
0000
4100
4300
4500
4900
5100
6100
4100
0080
0100
0000
0000
ENDCHAR
STARTCHAR uni048C
ENCODING 1164
SWIDTH 540 0
DWIDTH 9 0
BBX 9 18 0 -4
BITMAP
0000
0000
0000
0000
4000
F800
4000
4000
7C00
4200
4100
4100
4200
7C00
0000
0000
0000
0000
ENDCHAR
STARTCHAR uni048D
ENCODING 1165
SWIDTH 540 0
DWIDTH 9 0
BBX 9 18 0 -4
BITMAP
0000
0000
0000
0000
0000
0000
0000
2000
7C00
2000
3E00
2100
2100
3E00
0000
0000
0000
0000
ENDCHAR
STARTCHAR uni048E
ENCODING 1166
SWIDTH 540 0
DWIDTH 9 0
BBX 9 18 0 -4
BITMAP
0000
0000
0000
0000
7C00
4200
4100
4500
4200
7D00
4000
4000
4000
4000
0000
0000
0000
0000
ENDCHAR
STARTCHAR uni048F
ENCODING 1167
SWIDTH 540 0
DWIDTH 9 0
BBX 9 18 0 -4
BITMAP
0000
0000
0000
0000
0000
0000
0000
5C00
6200
4100
4100
4500
6200
5D00
4000
4000
4000
0000
ENDCHAR
STARTCHAR afii10050
ENCODING 1168
SWIDTH 540 0
DWIDTH 9 0
BBX 9 18 0 -4
BITMAP
0000
0000
0100
0100
3F00
2000
2000
2000
2000
2000
2000
2000
2000
2000
0000
0000
0000
0000
ENDCHAR
STARTCHAR afii10098
ENCODING 1169
SWIDTH 540 0
DWIDTH 9 0
BBX 9 18 0 -4
BITMAP
0000
0000
0000
0000
0000
0100
0100
3F00
2000
2000
2000
2000
2000
2000
0000
0000
0000
0000
ENDCHAR
STARTCHAR uni0492
ENCODING 1170
SWIDTH 540 0
DWIDTH 9 0
BBX 9 18 0 -4
BITMAP
0000
0000
0000
0000
7E00
4000
4000
4000
7800
4000
4000
4000
4000
4000
0000
0000
0000
0000
ENDCHAR
STARTCHAR uni0493
ENCODING 1171
SWIDTH 540 0
DWIDTH 9 0
BBX 9 18 0 -4
BITMAP
0000
0000
0000
0000
0000
0000
0000
7E00
4000
4000
7800
4000
4000
4000
0000
0000
0000
0000
ENDCHAR
STARTCHAR uni0494
ENCODING 1172
SWIDTH 540 0
DWIDTH 9 0
BBX 9 18 0 -4
BITMAP
0000
0000
0000
0000
7E00
4000
4000
7C00
4200
4100
4100
4100
4100
4100
0200
1C00
0000
0000
ENDCHAR
STARTCHAR uni0495
ENCODING 1173
SWIDTH 540 0
DWIDTH 9 0
BBX 9 18 0 -4
BITMAP
0000
0000
0000
0000
0000
0000
0000
7C00
4000
7800
4400
4400
4400
4400
0400
3800
0000
0000
ENDCHAR
STARTCHAR uni0496
ENCODING 1174
SWIDTH 540 0
DWIDTH 9 0
BBX 9 18 0 -4
BITMAP
0000
0000
0000
0000
4900
4900
2A00
2A00
1C00
2A00
2A00
4900
4900
4980
0080
0080
0000
0000
ENDCHAR
STARTCHAR uni0497
ENCODING 1175
SWIDTH 540 0
DWIDTH 9 0
BBX 9 18 0 -4
BITMAP
0000
0000
0000
0000
0000
0000
0000
4900
4900
2A00
1C00
2A00
4900
4980
0080
0080
0000
0000
ENDCHAR
STARTCHAR uni0498
ENCODING 1176
SWIDTH 540 0
DWIDTH 9 0
BBX 9 18 0 -4
BITMAP
0000
0000
0000
0000
3E00
4100
0100
0200
0C00
0200
0100
0100
4100
3E00
0800
2400
1800
0000
ENDCHAR
STARTCHAR uni0499
ENCODING 1177
SWIDTH 540 0
DWIDTH 9 0
BBX 9 18 0 -4
BITMAP
0000
0000
0000
0000
0000
0000
0000
3E00
4100
0100
0E00
0100
4100
3E00
0800
2400
1800
0000
ENDCHAR
STARTCHAR uni049A
ENCODING 1178
SWIDTH 540 0
DWIDTH 9 0
BBX 9 18 0 -4
BITMAP
0000
0000
0000
0000
4100
4200
4400
4800
5000
6800
4400
4200
4100
4100
0100
0100
0000
0000
ENDCHAR
STARTCHAR uni049B
ENCODING 1179
SWIDTH 540 0
DWIDTH 9 0
BBX 9 18 0 -4
BITMAP
0000
0000
0000
0000
0000
0000
0000
4100
4200
4400
7800
4400
4200
4100
0100
0100
0000
0000
ENDCHAR
STARTCHAR uni049C
ENCODING 1180
SWIDTH 540 0
DWIDTH 9 0
BBX 9 18 0 -4
BITMAP
0000
0000
0000
0000
4100
4200
5400
5800
5000
7800
5400
5200
4100
4100
0000
0000
0000
0000
ENDCHAR
STARTCHAR uni049D
ENCODING 1181
SWIDTH 540 0
DWIDTH 9 0
BBX 9 18 0 -4
BITMAP
0000
0000
0000
0000
0000
0000
0000
4100
5200
5400
7800
5400
5200
4100
0000
0000
0000
0000
ENDCHAR
STARTCHAR uni049E
ENCODING 1182
SWIDTH 540 0
DWIDTH 9 0
BBX 9 18 0 -4
BITMAP
0000
0000
0000
0000
4100
F200
4400
4800
5000
6800
4400
4200
4100
4100
0000
0000
0000
0000
ENDCHAR
STARTCHAR uni049F
ENCODING 1183
SWIDTH 540 0
DWIDTH 9 0
BBX 9 18 0 -4
BITMAP
0000
0000
0000
0000
4000
4000
F000
4200
4400
4800
5800
6400
4200
4100
0000
0000
0000
0000
ENDCHAR
STARTCHAR uni04A0
ENCODING 1184
SWIDTH 540 0
DWIDTH 9 0
BBX 9 18 0 -4
BITMAP
0000
0000
0000
0000
E100
2200
2400
2800
3000
2800
2400
2200
2100
2100
0000
0000
0000
0000
ENDCHAR
STARTCHAR uni04A1
ENCODING 1185
SWIDTH 540 0
DWIDTH 9 0
BBX 9 18 0 -4
BITMAP
0000
0000
0000
0000
0000
0000
0000
7100
1200
1400
1800
1400
1200
1100
0000
0000
0000
0000
ENDCHAR
STARTCHAR uni04A2
ENCODING 1186
SWIDTH 540 0
DWIDTH 9 0
BBX 9 18 0 -4
BITMAP
0000
0000
0000
0000
4100
4100
4100
4100
7F00
4100
4100
4100
4100
4180
0080
0080
0000
0000
ENDCHAR
STARTCHAR uni04A3
ENCODING 1187
SWIDTH 540 0
DWIDTH 9 0
BBX 9 18 0 -4
BITMAP
0000
0000
0000
0000
0000
0000
0000
4100
4100
4100
7F00
4100
4100
4180
0080
0080
0000
0000
ENDCHAR
STARTCHAR uni04A4
ENCODING 1188
SWIDTH 540 0
DWIDTH 9 0
BBX 9 18 0 -4
BITMAP
0000
0000
0000
0000
4F00
4800
4800
4800
7800
4800
4800
4800
4800
4800
0000
0000
0000
0000
ENDCHAR
STARTCHAR uni04A5
ENCODING 1189
SWIDTH 540 0
DWIDTH 9 0
BBX 9 18 0 -4
BITMAP
0000
0000
0000
0000
0000
0000
0000
4F00
4800
4800
7800
4800
4800
4800
0000
0000
0000
0000
ENDCHAR
STARTCHAR uni04A6
ENCODING 1190
SWIDTH 540 0
DWIDTH 9 0
BBX 9 18 0 -4
BITMAP
0000
0000
0000
0000
7800
4800
4800
4E00
4900
4900
4900
4900
4900
4900
0100
0E00
0000
0000
ENDCHAR
STARTCHAR uni04A7
ENCODING 1191
SWIDTH 540 0
DWIDTH 9 0
BBX 9 18 0 -4
BITMAP
0000
0000
0000
0000
0000
0000
0000
7800
4800
4800
4E00
4900
4900
4900
0100
0E00
0000
0000
ENDCHAR
STARTCHAR uni04A8
ENCODING 1192
SWIDTH 540 0
DWIDTH 9 0
BBX 9 18 0 -4
BITMAP
0000
0000
0000
0000
1E00
2000
4000
4600
4900
4900
4900
4900
2A00
1C00
0800
0700
0000
0000
ENDCHAR
STARTCHAR uni04A9
ENCODING 1193
SWIDTH 540 0
DWIDTH 9 0
BBX 9 18 0 -4
BITMAP
0000
0000
0000
0000
0000
0000
0000
3C00
4000
4C00
5200
5200
5200
3C00
1000
0E00
0000
0000
ENDCHAR
STARTCHAR uni04AA
ENCODING 1194
SWIDTH 540 0
DWIDTH 9 0
BBX 9 18 0 -4
BITMAP
0000
0000
0000
0000
1E00
2100
4000
4000
4000
4000
4000
4000
2100
1E00
0800
0800
0400
0000
ENDCHAR
STARTCHAR uni04AB
ENCODING 1195
SWIDTH 540 0
DWIDTH 9 0
BBX 9 18 0 -4
BITMAP
0000
0000
0000
0000
0000
0000
0000
3E00
4100
4000
4000
4000
4100
3E00
0800
0800
0400
0000
ENDCHAR
STARTCHAR uni04AC
ENCODING 1196
SWIDTH 540 0
DWIDTH 9 0
BBX 9 18 0 -4
BITMAP
0000
0000
0000
0000
7F00
0800
0800
0800
0800
0800
0800
0800
0800
0C00
0400
0400
0000
0000
ENDCHAR
STARTCHAR uni04AD
ENCODING 1197
SWIDTH 540 0
DWIDTH 9 0
BBX 9 18 0 -4
BITMAP
0000
0000
0000
0000
0000
0000
0000
7F00
0800
0800
0800
0800
0800
0C00
0400
0400
0000
0000
ENDCHAR
STARTCHAR uni04AE
ENCODING 1198
SWIDTH 540 0
DWIDTH 9 0
BBX 9 18 0 -4
BITMAP
0000
0000
0000
0000
4100
4100
2200
1400
0800
0800
0800
0800
0800
0800
0000
0000
0000
0000
ENDCHAR
STARTCHAR uni04AF
ENCODING 1199
SWIDTH 540 0
DWIDTH 9 0
BBX 9 18 0 -4
BITMAP
0000
0000
0000
0000
0000
0000
0000
4100
2200
1400
0800
0800
0800
0800
0800
0800
0800
0000
ENDCHAR
STARTCHAR uni04B0
ENCODING 1200
SWIDTH 540 0
DWIDTH 9 0
BBX 9 18 0 -4
BITMAP
0000
0000
0000
0000
4100
4100
2200
1400
0800
0800
0800
0800
3E00
0800
0800
0800
0800
0000
ENDCHAR
STARTCHAR uni04B1
ENCODING 1201
SWIDTH 540 0
DWIDTH 9 0
BBX 9 18 0 -4
BITMAP
0000
0000
0000
0000
0000
0000
0000
4100
2200
1400
0800
0800
0800
3E00
0800
0800
0800
0000
ENDCHAR
STARTCHAR uni04B2
ENCODING 1202
SWIDTH 540 0
DWIDTH 9 0
BBX 9 18 0 -4
BITMAP
0000
0000
0000
0000
4100
4100
2200
1400
0800
0800
1400
2200
4100
4180
0080
0080
0000
0000
ENDCHAR
STARTCHAR uni04B3
ENCODING 1203
SWIDTH 540 0
DWIDTH 9 0
BBX 9 18 0 -4
BITMAP
0000
0000
0000
0000
0000
0000
0000
4100
2200
1400
0800
1400
2200
4180
0080
0080
0000
0000
ENDCHAR
STARTCHAR uni04B4
ENCODING 1204
SWIDTH 540 0
DWIDTH 9 0
BBX 9 18 0 -4
BITMAP
0000
0000
0000
0000
FA00
2200
2200
2200
2200
2200
2200
2200
2200
3F00
0100
0100
0000
0000
ENDCHAR
STARTCHAR uni04B5
ENCODING 1205
SWIDTH 540 0
DWIDTH 9 0
BBX 9 18 0 -4
BITMAP
0000
0000
0000
0000
0000
0000
0000
FA00
2200
2200
2200
2200
2200
3F00
0100
0100
0000
0000
ENDCHAR
STARTCHAR uni04B6
ENCODING 1206
SWIDTH 540 0
DWIDTH 9 0
BBX 9 18 0 -4
BITMAP
0000
0000
0000
0000
4100
4100
4100
4100
3F00
0100
0100
0100
0100
0180
0080
0080
0000
0000
ENDCHAR
STARTCHAR uni04B7
ENCODING 1207
SWIDTH 540 0
DWIDTH 9 0
BBX 9 18 0 -4
BITMAP
0000
0000
0000
0000
0000
0000
0000
4100
4100
4100
3F00
0100
0100
0180
0080
0080
0000
0000
ENDCHAR
STARTCHAR uni04B8
ENCODING 1208
SWIDTH 540 0
DWIDTH 9 0
BBX 9 18 0 -4
BITMAP
0000
0000
0000
0000
4100
4100
4900
4900
3F00
0900
0900
0100
0100
0100
0000
0000
0000
0000
ENDCHAR
STARTCHAR uni04B9
ENCODING 1209
SWIDTH 540 0
DWIDTH 9 0
BBX 9 18 0 -4
BITMAP
0000
0000
0000
0000
0000
0000
0000
4100
4100
4900
3F00
0900
0100
0100
0000
0000
0000
0000
ENDCHAR
STARTCHAR uni04BA
ENCODING 1210
SWIDTH 540 0
DWIDTH 9 0
BBX 9 18 0 -4
BITMAP
0000
0000
0000
0000
4000
4000
4000
7E00
4100
4100
4100
4100
4100
4100
0000
0000
0000
0000
ENDCHAR
STARTCHAR uni04BB
ENCODING 1211
SWIDTH 540 0
DWIDTH 9 0
BBX 9 18 0 -4
BITMAP
0000
0000
0000
0000
4000
4000
4000
5800
6400
4200
4200
4200
4200
4200
0000
0000
0000
0000
ENDCHAR
STARTCHAR uni04BC
ENCODING 1212
SWIDTH 540 0
DWIDTH 9 0
BBX 9 18 0 -4
BITMAP
0000
0000
0000
0000
1E00
6100
A100
A100
7F00
2000
2000
2000
2100
1E00
0000
0000
0000
0000
ENDCHAR
STARTCHAR uni04BD
ENCODING 1213
SWIDTH 540 0
DWIDTH 9 0
BBX 9 18 0 -4
BITMAP
0000
0000
0000
0000
0000
0000
4000
9E00
A100
A100
7F00
2000
2100
1E00
0000
0000
0000
0000
ENDCHAR
STARTCHAR uni04BE
ENCODING 1214
SWIDTH 540 0
DWIDTH 9 0
BBX 9 18 0 -4
BITMAP
0000
0000
0000
0000
1E00
6100
A100
A100
7F00
2000
2000
2000
2100
1E00
0800
0800
0400
0000
ENDCHAR
STARTCHAR uni04BF
ENCODING 1215
SWIDTH 540 0
DWIDTH 9 0
BBX 9 18 0 -4
BITMAP
0000
0000
0000
0000
0000
0000
4000
9E00
A100
A100
7F00
2000
2100
1E00
0800
0800
0400
0000
ENDCHAR
STARTCHAR uni04C0
ENCODING 1216
SWIDTH 540 0
DWIDTH 9 0
BBX 9 18 0 -4
BITMAP
0000
0000
0000
0000
3E00
0800
0800
0800
0800
0800
0800
0800
0800
3E00
0000
0000
0000
0000
ENDCHAR
STARTCHAR uni04C1
ENCODING 1217
SWIDTH 540 0
DWIDTH 9 0
BBX 9 18 0 -4
BITMAP
0000
2200
1C00
0000
4900
4900
2A00
2A00
1C00
2A00
2A00
4900
4900
4900
0000
0000
0000
0000
ENDCHAR
ENDFONT
